<svg width="603" height="595" viewBox="0 0 603 595" fill="none" xmlns="http://www.w3.org/2000/svg">
<path d="M294.532 56.7883C294.704 56.7119 294.933 56.6737 295.048 56.5591C300.211 50.0455 307.037 46.0533 314.877 43.7038C317.688 42.8634 320.613 42.4241 323.482 41.7937C323.577 41.7746 323.673 41.7555 323.787 41.7555C326.77 41.5645 327.573 41.851 328.09 45.0983C328.453 47.4477 329.16 49.6062 329.983 51.7837C330.901 54.1523 331.646 56.559 332.22 59.0422C332.373 59.749 332.488 60.4366 332.201 61.1242C331.991 61.6209 331.627 62.0602 331.073 61.9647C326.044 61.0669 321.493 62.8052 316.923 64.467C316.636 64.5625 316.407 64.7535 316.139 64.9063C316.139 65.7468 316.846 65.5367 317.248 65.6131C319.217 66.0142 321.206 66.3389 323.156 66.9119C329.294 68.7075 334.744 71.7064 339.41 76.0997C339.696 76.3862 340.098 76.6346 340.232 76.9784C341.111 79.0604 342.832 80.5885 343.827 82.5942C344.056 83.0526 344.228 83.6638 344.611 83.8739C345.968 84.5998 345.834 85.8986 345.93 87.0638C346.045 88.3627 346.14 89.6998 345.93 90.9796C345.681 92.4886 344.917 93.864 343.521 94.6662C340.825 96.2516 338.09 97.7988 335.337 99.3078C334.725 99.6326 334.017 99.8044 333.329 99.9572C332.258 100.186 331.379 99.9954 330.748 98.9067C329.734 97.1302 327.937 96.0415 326.656 94.4752C325.183 92.6796 323.596 90.9605 321.569 89.7381C320.69 89.2032 320.001 88.4582 319.504 87.5414C318.95 86.529 318.032 85.8795 317.018 85.3829C315.929 84.8481 314.59 84.829 314.475 85.2874C314.265 86.0897 314.915 86.5863 315.259 87.1784C315.718 87.9616 316.101 88.783 316.445 89.6235C318.032 93.5774 319.657 97.4932 322.143 100.989C323.386 102.746 323.845 104.866 324.533 106.872C324.763 107.54 324.877 108.247 325.145 108.897C327.248 114.016 327.841 119.46 328.625 124.884C328.74 125.687 328.835 126.489 328.912 127.291C329.046 128.437 329.505 129.373 330.442 130.137C331.857 131.302 333.138 132.601 333.75 134.416C333.845 134.684 334.075 134.97 334.304 135.104C335.394 135.753 335.872 136.956 336.828 137.682C337.727 138.351 337.421 139.841 338.645 140.28C340.327 142.954 342.603 145.036 344.955 147.099C347.402 149.22 349.678 151.531 351.991 153.804C354.382 156.134 356.753 158.465 359.124 160.833C361.552 163.259 363.961 165.704 366.371 168.149C366.868 168.646 367.327 169.2 367.747 169.773C368.856 171.339 369.966 172.924 371.285 174.338C373.14 176.324 373.866 178.884 374.841 181.31C375.109 181.978 375.243 182.704 375.052 183.392C374.497 185.493 374.65 187.632 374.669 189.733C374.669 194.222 373.312 198.291 371.17 202.168C369.258 205.645 366.925 208.835 364.497 211.948C363.636 213.056 362.642 214.107 361.552 215.005C358.665 217.354 356.083 220.162 352.316 221.232C351.762 221.384 351.265 221.843 350.768 222.168C349.907 222.741 349.009 223.218 347.995 223.371C345.605 223.734 343.31 224.593 340.863 224.613C339.027 224.632 337.268 225.014 335.528 225.644C334.209 226.121 332.774 226.351 331.359 226.465C329.543 226.618 327.726 226.504 326.12 225.377C325.375 224.842 324.476 224.651 323.577 224.402C320.824 223.657 318.223 222.511 315.737 221.155C314.762 220.62 313.863 219.952 313.041 219.207C311.837 218.118 310.689 216.991 309.37 216.036C308.108 215.119 307.305 213.858 306.674 212.426C305.431 209.542 304.092 206.715 302.83 203.83C302.142 202.245 301.205 200.793 300.306 199.322C299.446 197.909 298.356 196.763 296.998 195.808C294.073 193.745 290.918 192.198 287.38 191.491C286.979 191.414 286.577 191.357 286.195 191.223C284.072 190.459 282.045 190.268 280.458 192.312C277.495 193.592 274.684 195.216 271.663 196.419C267.284 198.157 262.752 199.074 258.125 199.724C257.111 199.857 256.117 199.838 255.103 199.724C252.484 199.437 249.864 199.208 247.245 198.979C246.747 198.94 246.174 199.017 245.81 198.635C245.046 197.832 244.051 197.699 243.057 197.508C242.751 197.45 242.388 197.45 242.177 197.279C239.692 195.235 236.575 194.623 233.726 193.42C230.59 192.102 227.894 190.116 225.389 187.9C223.362 186.085 221.412 184.137 219.691 181.997C218.926 181.061 218.065 180.164 217.128 179.419C214.891 177.623 212.979 175.56 211.373 173.192C211.143 172.848 210.895 172.523 210.646 172.218C206.879 167.423 204.355 162.094 203.743 155.962C203.648 155.065 203.514 154.148 203.361 153.25C203.246 152.467 202.711 152.276 202.08 152.83C196.688 157.586 191.009 162.037 187.146 168.264C186.113 169.925 185.31 171.625 184.947 173.555C184.737 174.682 184.947 175.274 185.884 175.885C186.744 176.439 187.701 176.745 188.714 176.936C192.232 177.585 195.521 178.884 198.772 180.336C201.353 181.482 203.954 182.609 206.612 183.621C210.226 184.996 213.591 186.83 216.899 188.759C217.874 189.332 218.907 189.695 219.882 190.192C224.873 192.675 229.863 195.139 234.873 197.584C238.506 199.361 242.177 201.061 245.83 202.818C246.556 203.162 247.283 203.525 247.971 203.964C252.866 207.02 258.01 209.656 263.096 212.369C264.97 213.362 266.748 214.527 268.794 215.196C269.253 215.348 269.884 215.597 270.056 215.979C270.668 217.373 271.911 217.354 273.097 217.564C273.403 217.621 273.67 217.736 273.976 217.832C274.187 217.889 283.193 222.511 283.384 222.645C284.474 223.39 285.564 224.059 286.883 224.402C288.03 224.708 289.139 225.319 290.172 225.931C295.258 228.949 300.765 230.954 306.291 232.998C309.81 234.297 313.5 235.061 316.923 236.646C317.917 237.105 319.084 237.525 320.135 237.468C322.277 237.334 324.112 238.232 325.948 238.939C329.084 240.161 332.315 241.116 335.585 241.651C338.186 242.09 340.653 242.912 343.215 243.37C347.689 244.191 352.164 245.089 356.714 245.548C359.296 245.815 361.648 245.414 364.038 244.191C369.315 241.498 373.694 237.563 378.398 234.068C381.725 231.604 384.651 228.643 388.054 226.255C390.1 224.803 391.783 222.836 394.25 221.957C394.517 221.862 394.823 221.652 394.957 221.403C397.041 217.965 400.235 215.597 403.199 212.999C404.652 211.719 405.971 210.344 407.233 208.873C408.419 207.498 409.795 206.275 411 204.919C412.549 203.181 414.04 201.385 415.532 199.609C416.258 198.73 417.004 197.966 418.247 197.871C419.28 197.794 420.216 197.298 420.943 196.572C422.568 194.948 424.633 194.49 426.775 194.356C432.339 194.031 437.942 193.974 443.506 194.375C447.139 194.642 450.677 195.655 454.138 196.82C455.954 197.431 457.694 198.291 459.607 198.654C460.276 198.788 460.926 199.15 461.538 199.494C463.851 200.755 466.184 201.997 468.421 203.372C469.97 204.308 471.481 205.358 472.896 206.524C476.816 209.733 480.717 212.923 484.216 216.628C485.593 218.08 487.313 219.226 488.614 220.792C490.411 222.97 492.266 225.109 494.082 227.287C496.281 229.942 498.308 232.711 500.545 235.328C501.788 236.78 502.802 238.423 503.872 240.008C505.746 242.759 507.391 245.7 509.494 248.26C510.794 249.845 511.368 251.832 512.802 253.322C514.982 255.595 516.301 258.479 518.175 260.981C518.902 261.936 519.342 263.102 519.915 264.171C523.415 270.685 526.551 277.37 529.648 284.075C530.623 286.195 531.675 288.258 532.23 290.55C532.268 290.684 532.535 290.856 532.688 290.856C532.841 290.856 533.014 290.646 533.09 290.493C533.472 289.748 533.511 288.927 533.511 288.124C533.53 283.769 533.759 279.395 533.511 275.059C533.186 268.698 532.822 262.299 531.598 256.053C530.375 249.826 529.055 243.599 527.162 237.487C525.671 232.635 523.606 228.032 521.636 223.409C520.374 220.448 518.787 217.583 517.124 214.814C513.835 209.351 510.431 203.964 506.014 199.265C503.643 196.744 500.89 194.681 498.117 192.637C493.795 189.447 489.436 186.314 484.675 183.774C483.432 183.105 482.189 182.418 480.889 181.864C476.778 180.126 472.877 177.948 468.67 176.439C466.012 175.484 463.335 174.548 460.524 174.07C459.817 173.956 459.109 173.86 458.459 173.593C455.801 172.485 452.952 172.256 450.141 171.988C445.801 171.587 441.46 171.282 437.12 170.919C435.189 170.766 433.276 170.556 431.46 171.473C430.599 171.912 429.854 171.453 429.28 170.842C426.603 167.901 424.366 164.711 423.161 160.871C421.498 155.638 420.733 150.232 420.044 144.807C419.911 143.699 419.834 142.591 419.7 141.483C419.069 135.925 419.49 130.386 420.389 124.884C420.465 124.388 420.694 123.891 420.675 123.395C420.599 117.397 422.97 111.934 424.404 106.28C425.035 103.816 426.125 101.543 427.062 99.1932C428.668 95.1438 430.485 91.1897 432.416 87.293C435.169 81.7536 438.458 76.539 441.919 71.4199C442.149 71.0761 442.455 70.7895 442.627 70.4457C444.462 66.9311 447.101 63.9704 449.396 60.7804C451.25 58.2209 453.602 56.1388 455.534 53.6747C457.083 51.6882 459.09 50.0837 460.735 48.1736C462.914 45.6331 465.209 43.1881 467.733 41.0297C470.104 39.0049 472.15 36.5982 474.789 34.8217C477.294 33.1408 479.512 31.0206 481.806 29.034C482.667 28.2891 483.566 27.6778 484.56 27.143C487.237 25.6722 489.761 24.0295 492.228 22.2149C493.681 21.1452 495.306 20.2665 496.893 19.3688C498.404 18.5283 499.991 17.8597 501.482 17.0002C505.154 14.8608 509.035 13.1608 512.917 11.4226C518.94 8.71023 525.155 6.62816 531.637 5.19556C534.792 4.50792 537.889 3.47642 541.083 2.90338C549.458 1.41348 557.852 0 566.38 0C567.489 0 568.617 0.0382166 569.726 0.133723C570.931 0.248331 572.136 0.362935 573.36 0.248327C574.258 0.171921 575.176 0.286522 576.075 0.420232C578.981 0.859562 581.888 1.29889 584.775 1.85283C586.955 2.27306 589.039 3.07533 591.257 3.36185C592.175 3.47646 593.035 4.0495 593.475 4.85175C594.106 6.03604 595.101 6.91469 595.961 7.88886C597.032 9.09224 597.644 10.4293 597.797 11.9574C598.236 16.2935 598.848 20.5912 598.982 24.9463C599.04 27.0666 599.116 29.1869 599.384 31.3071C599.594 33.0071 599.384 34.7453 599.479 36.4644C599.862 42.8252 600.282 49.1859 600.684 55.5466C600.741 56.3489 600.741 57.1703 600.703 57.9725C600.569 62.022 600.608 66.0524 600.913 70.1019C601.143 73.0053 600.78 75.966 600.684 78.8885C600.665 79.4998 600.569 80.111 600.608 80.7032C600.971 85.4403 601.372 90.1773 601.736 94.9144C601.85 96.4234 601.908 97.9516 601.908 99.4606C601.87 105.134 601.774 110.807 601.736 116.48C601.736 119.02 601.831 121.542 601.831 124.082C601.831 128.743 601.793 133.404 601.774 138.064C601.736 149.296 601.717 160.547 601.697 171.778C601.697 175.828 601.621 179.877 601.697 183.927C601.755 187.862 602.003 191.796 602.042 195.75C602.099 200.602 602.08 205.473 602.003 210.325C601.965 213.457 602.156 216.59 601.755 219.742C601.583 221.117 602.061 222.569 602.042 223.963C601.927 231.451 602.099 238.958 601.774 246.445C601.64 249.368 601.525 252.309 601.525 255.232C601.525 263.732 601.506 272.251 601.468 280.751C601.449 287.437 601.372 294.122 601.353 300.808C601.353 302.431 601.506 304.036 601.583 305.659C601.602 306.156 601.697 306.672 601.659 307.169C601.239 313.434 602.118 319.718 601.659 325.983C601.449 328.925 601.946 331.866 601.544 334.77C601.239 336.986 601.162 339.201 601.143 341.436C601.105 348.332 601.086 355.208 601.086 362.104C601.086 363.918 601.162 365.752 601.258 367.567C601.296 368.484 601.468 369.362 601.927 370.184C603.629 373.259 603.304 376.067 600.971 378.474C600.053 379.41 598.791 379.964 597.644 379.448C595.827 378.627 594.106 379.066 592.309 379.219C591.066 379.333 589.785 380.021 588.504 379.028C587.796 378.493 586.993 379.371 586.171 379.333C585.387 379.314 584.603 379.677 584.488 378.359C584.431 377.824 583.59 377.977 583.15 378.13C581.448 378.779 579.651 378.837 577.872 379.104C577.566 379.142 577.203 379.333 577.088 379.009C576.476 377.442 575.597 378.111 574.698 378.684C574.316 378.913 573.933 378.722 573.532 378.646C572.117 378.34 570.74 378.206 569.497 379.276C569.229 379.505 568.751 379.582 568.369 379.562C565.463 379.486 562.575 379.563 559.688 379.964C559.152 380.04 558.693 379.944 558.254 379.658C557.565 379.219 556.858 378.837 556.17 378.416C555.711 378.149 555.194 378.015 554.735 378.321C553.722 378.951 552.976 378.416 552.307 377.767C551.676 377.117 551.141 376.373 550.567 375.666C549.687 374.558 548.846 373.412 547.947 372.304C546.896 370.986 545.538 370.088 543.836 369.955C542.593 369.84 541.848 369.19 541.064 368.331C538.693 365.695 536.704 362.753 534.601 359.907C531.579 355.839 528.616 351.751 525.594 347.682C525.116 347.033 524.543 346.46 523.988 345.868C521.349 342.926 519.131 339.66 516.779 336.508C513.816 332.535 510.814 328.6 507.773 324.684C507.161 323.882 506.377 323.214 505.632 322.526C505.096 322.029 504.523 322.125 504.006 322.602C503.567 323.023 503.069 323.424 502.783 323.939C501.176 326.862 499.264 329.593 497.218 332.229C497.027 332.459 496.893 332.745 496.759 333.013C494.121 338.762 489.99 343.557 486.587 348.809C486.472 348.981 486.338 349.134 486.243 349.306C484.197 353.298 481.29 356.679 478.632 360.232C478.097 360.958 477.734 361.817 477.294 362.6C476.127 364.74 474.98 366.86 473.259 368.637C472.705 369.21 472.227 369.897 471.863 370.604C470.544 373.125 469.033 375.513 467.389 377.824C466.93 378.474 466.586 379.238 466.261 379.964C466.146 380.25 466.395 380.613 466.72 380.575C467.427 380.518 468.135 380.403 468.804 380.193C472.188 379.123 475.554 378.015 478.938 376.946C487.925 374.08 496.874 371.177 505.88 368.407C509.169 367.395 512.535 366.612 515.9 365.886C519.533 365.103 523.128 365.217 526.57 366.956C527.334 367.338 527.908 367.758 528.348 368.484C528.979 369.515 529.629 370.528 530.451 371.425C531.178 372.208 531.732 373.297 531.962 374.348C532.631 377.213 533.53 380.002 533.989 382.924C534.811 388.12 535.863 393.277 536.78 398.473C537.392 401.854 537.832 405.273 538.215 408.692C538.578 411.901 539.209 415.072 539.859 418.243C540.719 422.502 541.025 426.876 542.115 431.098C542.383 432.167 542.306 433.314 542.498 434.402C543.97 442.769 545.5 451.135 546.915 459.502C547.699 464.086 548.291 468.708 548.961 473.312C549.324 475.814 549.63 478.335 549.974 480.838C550.031 481.239 550.165 481.659 550.108 482.041C549.668 484.314 550.414 486.453 551.007 488.555C551.905 491.706 551.867 494.973 552.422 498.163C552.861 500.646 553.072 503.186 553.626 505.65C554.372 509.031 554.353 512.489 554.946 515.889C555.787 520.683 556.571 525.478 557.374 530.253C557.967 533.844 558.521 537.435 559.172 541.026C559.745 544.101 560.242 547.215 561.103 550.233C561.982 553.27 562.403 556.364 563.053 559.44C564.143 564.693 564.889 570.003 565.807 575.294C566.266 577.987 566.82 580.661 567.279 583.355C567.738 585.933 567.011 588.149 565.099 589.964C564.812 590.25 564.449 590.518 564.296 590.861C563.13 593.249 560.892 593.918 558.598 594.376C557.125 594.663 555.577 594.701 554.066 594.739C549.821 594.834 545.557 594.892 541.312 594.949C541.006 594.949 540.662 595.064 540.413 594.949C538.444 594.07 536.436 594.472 534.429 594.643C532.593 594.796 530.776 594.643 528.979 594.319C526.531 593.898 524.103 593.345 521.579 593.746C521.311 593.784 520.948 593.688 520.718 593.516C519.724 592.829 518.615 592.982 517.506 592.867C515.709 592.676 513.835 592.447 512.668 590.747C512.133 589.964 511.368 589.773 510.527 589.983C508.806 590.441 507.926 589.582 507.142 588.187C506.377 586.774 505.211 585.57 504.484 584.138C503.586 582.361 502.668 581.082 500.431 582.094C500.144 582.228 499.761 581.979 499.704 581.674C499.398 580.088 498.213 579.057 497.39 577.815C496.53 576.555 495.956 575.351 495.746 573.728C495.459 571.359 494.618 569.009 493.738 566.755C493.088 565.094 493.432 563.355 492.992 561.713C492.954 561.598 493.203 561.388 493.318 561.235C493.757 560.605 493.623 560.013 492.973 559.745C492.094 559.363 491.73 558.752 491.807 557.854C491.903 556.899 491.463 556.078 491.252 555.199C490.641 552.64 490.296 550.042 490.411 547.406C490.449 546.393 490.449 545.381 490.373 544.388C490.277 543.089 490.143 541.847 490.507 540.51C490.832 539.364 490.64 538.103 490.736 536.881C490.966 533.901 491.616 531.074 493.49 528.648C493.681 528.4 493.853 528.152 493.987 527.884C495.803 523.949 499.15 522.383 503.222 522.058C504.523 521.944 505.861 522.02 507.181 522.02C508.194 522.02 509.207 522.02 510.221 521.982C510.909 521.944 511.311 521.39 511.215 520.721C511.1 519.919 510.966 519.117 510.775 518.334C510.431 516.958 510.106 515.583 509.666 514.246C508.634 511.171 508.175 507.962 507.372 504.829C507.142 503.95 506.932 503.072 506.703 502.174C506.129 499.92 505.383 497.742 505.096 495.393C504.867 493.502 504.121 491.687 503.643 489.815C502.228 484.333 500.851 478.832 499.455 473.35C498.385 469.129 497.333 464.907 496.281 460.705C496.033 459.712 495.593 459.616 494.828 460.285C493.547 461.412 492.342 462.711 490.889 463.608C489.034 464.773 487.639 466.321 486.147 467.849C484.675 469.358 483.221 470.905 481.29 471.879C481.022 472.013 480.678 472.108 480.506 472.338C479.11 474.21 476.758 474.668 475.076 476.139C474.215 476.884 472.858 476.807 472.035 477.419C470.372 478.679 468.116 478.297 466.528 479.653C466.318 479.825 465.936 479.902 465.668 479.844C464.062 479.539 462.666 480.169 461.327 480.876C459.587 481.793 457.599 481.774 455.801 482.442C455.094 482.71 454.157 482.576 453.392 482.385C452.207 482.098 451.059 482.041 449.855 482.003C448.726 481.965 447.694 482.137 446.604 482.289C445.189 482.5 443.698 482.194 442.608 481.22C441.671 480.379 440.715 480.093 439.548 480.322C438.496 480.532 437.636 480.112 436.68 479.768C434.366 478.947 432.339 477.629 430.179 476.597C428.649 475.871 427.005 475.413 425.475 474.572C424.251 473.885 423.429 472.643 421.957 472.319C420.484 472.013 419.681 470.695 418.553 469.854C417.903 469.377 417.195 468.995 416.469 468.632C415.742 468.269 415.016 467.906 414.442 467.314C412.472 465.308 410.445 463.341 408.552 461.259C407.788 460.418 406.793 459.884 406.028 459.081C402.74 455.643 399.068 452.587 396.2 448.767C395.34 447.64 394.211 446.799 393.332 445.653C390.578 442.024 388.36 438.051 385.722 434.364C382.414 429.742 379.909 424.68 377.461 419.58C377.021 418.663 376.486 417.803 376.084 416.867C375.492 415.454 374.402 414.957 372.948 414.938C371.132 414.938 369.296 414.728 367.48 414.824C361.61 415.129 355.739 415.435 350.022 417.02C347.632 417.689 345.548 418.873 343.406 420.057C342.985 420.287 342.622 420.707 342.297 421.089C341.972 421.471 341.609 421.91 341.876 422.445C342.24 423.171 342.87 422.922 343.463 422.77C344.84 422.407 346.236 422.139 347.574 421.719C350.959 420.669 354.324 420.802 357.766 421.433C362.929 422.369 366.638 425.234 369.277 429.589C370.482 431.575 371.514 433.677 372.451 435.816C373.312 437.764 373.599 439.904 373.981 442.005C374.019 442.196 374.038 442.425 373.981 442.616C373.121 445.92 372.796 449.397 370.195 452.033C369.22 453.026 368.512 454.306 367.767 455.509C365.376 459.272 362.814 462.902 359.869 466.283C358.072 468.326 356.676 470.714 354.936 472.815C351.896 476.483 349.391 480.551 346.389 484.238C343.062 488.306 340.174 492.757 336.484 496.539C335.566 497.475 334.897 498.64 334.094 499.672C332.124 502.231 330.136 504.791 328.147 507.331C325.967 510.12 323.807 512.928 321.531 515.64C318.854 518.811 316.521 522.249 313.634 525.248C312.162 526.776 311.053 528.61 309.638 530.215C306.712 533.557 304.207 537.263 300.918 540.319C300.325 540.873 299.847 541.523 299.389 542.191C298.643 543.28 298.681 543.643 299.503 544.617C301.071 546.47 302.639 548.323 304.226 550.176C305.488 551.646 306.521 553.27 307.439 554.97C308.223 556.441 308.529 558.026 308.07 559.669C307.706 560.987 307.075 562.133 305.603 562.477C304.475 562.744 303.634 563.47 302.811 564.234C299.522 567.233 295.947 569.888 292.447 572.62C291.644 573.231 290.822 573.861 290.134 574.606C288.241 576.631 285.889 578.025 283.69 579.63C282.543 580.47 281.338 581.12 279.77 581.024C278.718 580.967 277.877 580.719 276.959 580.184C272.542 577.567 268.947 574.033 265.582 570.232C264.97 569.544 264.358 568.876 263.727 568.226C259.348 563.833 256.232 558.637 254.243 552.831C252.847 548.743 252.618 544.502 253.937 540.281C255.237 536.098 257.933 533.118 261.739 531.017C263.804 529.871 265.984 529.088 268.259 528.553C269.923 528.171 271.185 527.311 272.179 525.917C274.512 522.612 277.093 519.48 279.158 515.984C279.369 515.64 279.598 515.297 279.866 514.991C283.116 511.094 285.679 506.701 288.661 502.613C291.166 499.175 293.633 495.699 296.081 492.222C299.58 487.256 302.888 482.137 306.559 477.304C309.026 474.095 311.033 470.542 313.806 467.562C314.131 467.218 314.494 466.798 314.246 466.034C313.118 466.168 311.932 466.34 310.747 466.435C309.542 466.512 308.318 466.493 307.094 466.55C302.18 466.817 297.362 466.206 292.677 464.85C289.847 464.029 287.285 462.5 284.933 460.743C283.154 459.406 281.51 457.878 280.229 456.044C279.464 454.955 278.47 454.096 277.475 453.236C276.099 452.033 274.722 450.849 273.632 449.359C271.07 445.863 269.311 442.062 268.871 437.707C268.756 436.599 268.546 435.51 268.278 434.422C267.934 433.046 266.863 432.168 265.62 432.626C264.071 433.199 262.676 433.18 261.222 432.626C258.411 433.084 255.639 432.015 252.771 432.55C251.7 432.741 250.763 433.39 249.558 433.237C248.086 433.065 246.537 433.505 245.103 432.798C244.931 432.721 244.701 432.779 244.51 432.721C243.363 432.454 242.388 433.123 241.317 433.295C240.495 432.282 239.5 432.779 238.506 432.951C237.818 433.065 237.034 433.275 236.403 433.084C233.133 432.053 229.538 432.359 226.441 430.639C225.771 430.257 224.853 430.353 224.089 430.124C222.463 429.627 220.685 429.398 219.671 427.774C219.423 427.392 219.098 427.182 218.677 427.201C216.153 427.239 214.432 425.501 212.444 424.336C211.832 423.973 211.277 423.515 210.646 423.209C209.977 422.884 209.212 423.343 209.021 424.107C208.963 424.298 208.925 424.508 208.906 424.699C208.581 429.455 208.486 434.211 209.805 438.853C211.296 444.125 212.845 449.359 215.675 454.115C216.191 454.975 216.574 455.93 216.937 456.866C217.893 459.349 217.625 461.679 215.713 463.608C214.643 464.716 213.725 465.881 213.017 467.238C212.539 468.116 211.908 468.918 211.277 469.721C209.901 471.478 208.505 473.216 207.109 474.935C206.344 475.89 205.617 476.865 204.757 477.724C203.112 479.386 201.678 481.201 200.378 483.149C199.613 484.333 198.504 485.269 197.644 486.396C193.896 491.305 189.708 495.851 186.171 500.913C184.737 502.976 183.016 504.867 181.257 506.682C179.402 508.592 178.063 510.865 176.457 512.928C176.094 513.405 175.788 513.959 175.348 514.361C171.639 517.837 168.732 522.001 165.577 525.955C161.657 530.845 157.795 535.811 153.359 540.281C151.217 542.44 149.171 544.674 147.068 546.871C145.94 548.036 144.735 549.106 143.205 549.774C141.828 550.367 140.49 550.558 139.171 549.603C138.329 548.991 137.392 548.59 136.36 548.59C132.918 548.571 129.457 548.055 126.053 548.628C120.757 549.488 115.441 550.271 110.374 552.2C108.481 552.926 106.569 553.557 104.656 554.263C101.023 555.6 97.658 557.415 94.7133 559.994C91.3862 561.484 89.3402 564.578 86.4338 566.603C84.8467 567.711 83.9097 569.487 82.7242 571.015C82.2271 571.664 81.8829 572.41 81.3284 573.002C78.7852 575.829 77.7718 579.324 76.9114 582.877C76.548 584.367 76.3568 585.857 76.9114 587.366C77.2173 588.245 77.2747 589.123 77.0261 590.059C76.4716 592.256 75.4963 593.096 73.1827 593.211C72.7811 593.23 72.3604 593.268 71.978 593.173C69.3775 592.466 66.7388 592.791 64.1 592.886C57.8091 593.077 51.5373 592.81 45.2654 592.619C42.5311 592.542 39.8159 592.218 37.1198 591.778C35.3224 591.492 33.7926 591.358 32.3777 592.867C31.5363 593.784 30.848 593.574 30.1979 592.485C29.6816 591.606 29.2418 590.709 28.7446 589.83C28.1327 588.741 27.3488 587.958 25.9529 587.786C24.6335 587.633 24.4614 587.289 24.3849 585.991C24.1746 582.667 24.0025 579.343 24.2319 576.001C24.4423 573.078 24.4614 570.136 24.8247 567.214C25.5513 561.35 27.0619 555.715 29.3182 550.271C30.9435 546.336 33.7544 543.28 36.6991 540.338C37.4831 539.555 38.4965 539.001 39.5864 538.677C42.99 537.645 46.4319 536.786 50.0267 536.977C51.9771 537.072 53.8892 537.511 55.4954 538.619C57.1207 539.727 58.6887 539.632 60.3905 538.982C65.7827 536.938 71.0793 534.665 75.9935 531.628C79.0912 529.699 82.3227 527.961 85.2865 525.84C88.6519 523.434 92.2084 521.275 95.2487 518.391C97.3712 516.366 99.7614 514.628 102.075 512.813C108.213 507.981 114.198 502.976 119.667 497.418C123.357 493.655 126.799 489.701 130.356 485.804C131.445 484.601 132.497 483.378 133.549 482.156C141.044 473.484 147.718 464.181 153.97 454.593C154.238 454.172 154.544 453.752 154.812 453.332C155.347 452.51 155.558 451.67 155.06 450.753C154.353 449.435 154.563 448.022 154.448 446.627C154.143 443.093 154.621 439.56 154.123 436.045C153.913 434.555 153.913 433.008 153.913 431.499C153.913 425.119 153.569 418.758 153.76 412.379C153.818 410.373 153.531 408.329 153.186 406.343C152.785 404.031 152.689 401.701 152.594 399.39C152.536 397.842 152.46 396.391 151.81 394.958C151.504 394.309 151.504 393.602 151.714 392.876C152.498 390.278 151.886 387.642 151.886 385.045C151.886 384.013 151.217 383.23 150.299 382.6C147.431 380.632 144.276 379.276 141.083 377.977C138.826 377.06 136.532 376.258 134.428 375.016C133.664 374.558 132.746 374.31 131.885 374.004C125.958 371.96 120.011 369.916 114.064 367.949C110.603 366.803 106.989 366.115 103.662 364.606C103.031 364.32 102.285 364.32 101.578 364.167C99.6084 363.727 97.6007 363.345 95.6503 362.792C91.1376 361.55 86.5103 360.958 81.9403 360.098C78.0586 359.372 74.1579 358.857 70.1997 358.57C67.6757 358.398 65.1708 358.073 62.6277 357.94C60.4096 357.825 58.9564 358.666 58.2107 360.805C57.9238 361.645 57.4267 362.448 56.9486 363.212C54.9983 366.344 53.7171 369.725 52.9523 373.316C52.2065 376.888 51.3269 380.441 50.8298 384.032C50.4856 386.42 50.6768 388.884 50.6768 391.31C50.6768 394.137 50.7342 396.964 50.8107 399.81C50.8681 402.637 51.021 405.483 51.6329 408.253C51.652 408.348 51.6903 408.444 51.6903 408.558C51.5182 412.55 52.608 416.39 53.0287 420.287C53.2008 421.796 53.4685 423.285 53.7553 424.775C54.1186 426.666 54.5584 428.519 54.7688 430.448C54.9791 432.339 55.7057 434.173 56.2794 436.007C56.9869 438.223 57.5223 440.496 58.0959 442.75C59.0711 446.57 60.4096 450.295 61.4039 454.115C62.3791 457.859 63.8514 461.412 65.3429 464.945C66.5475 467.811 68.2302 470.485 69.3392 473.426C70.8881 474.993 71.347 476.884 70.9837 479.023C70.8499 479.768 71.1558 480.398 71.5383 481.01C72.4178 482.385 72.1501 483.779 71.3852 485.04C69.607 488.02 67.4463 490.656 64.3486 492.413C62.7615 493.311 61.1936 494.266 59.9316 495.603C59.7212 495.813 59.5109 496.061 59.2432 496.195C56.4706 497.685 54.0039 499.672 51.3078 501.257C47.2732 503.607 43.621 506.472 39.7776 509.069C38.0758 511.495 35.112 512.221 33.0086 514.112C32.4924 514.59 31.804 514.895 31.3642 515.411C30.5611 516.366 29.4521 516.5 28.4004 516.786C27.8459 516.939 27.3679 516.748 27.1958 516.175C26.603 514.189 24.7865 512.928 24.1364 510.961C23.9834 510.521 23.5054 510.177 23.1421 509.834C22.5111 509.203 21.8035 508.955 20.9622 509.432C20.618 509.623 20.2165 509.757 19.834 509.891C18.8015 510.292 17.9219 510.12 16.985 509.471C15.3214 508.286 13.677 507.102 12.6827 505.268C12.1281 504.256 11.2676 503.607 10.3689 502.919C7.5581 500.741 4.9576 498.335 3.50437 494.992C3.29404 494.533 3.0455 494.075 2.94989 493.578C2.5101 491.305 1.85995 489.089 1.7261 486.759C1.61137 484.715 1.64958 482.729 2.41444 480.78C3.10281 478.985 3.17933 477.037 3.82946 475.203C5.22532 471.268 7.46253 467.734 8.97312 463.876C10.063 461.106 11.6119 458.661 13.3328 456.273C14.2124 455.051 15.1302 453.79 16.2392 452.778C17.5203 451.613 17.6351 450.428 16.9658 448.977C16.832 448.709 16.6981 448.423 16.5834 448.155C15.7038 446.131 14.48 444.22 14.4418 441.89C14.4418 441.413 14.2506 440.84 13.9447 440.477C12.2238 438.318 12.1663 435.587 11.3824 433.123C10.6175 430.716 9.66146 428.347 9.54673 425.769C9.50849 425.081 9.2408 424.393 8.95398 423.744C7.94054 421.318 7.76845 418.625 6.50644 416.275C6.41083 416.103 6.37262 415.893 6.3535 415.683C6.23877 413.028 5.43567 410.526 4.86203 407.947C3.92508 403.707 3.17932 399.409 2.37622 395.13C2.20413 394.232 2.05115 393.334 2.01291 392.418C1.95554 390.087 1.51576 387.795 1.24806 385.484C1.01861 383.383 0.903874 381.263 0.884753 379.142C0.884753 378.302 0.693565 377.309 1.68788 376.697C2.10855 376.449 1.89821 375.952 1.63051 375.647C0.827417 374.73 0.827377 373.622 0.693528 372.514C0.196372 368.083 0.196377 363.651 0.10077 359.201C-0.0522013 352.611 0.100793 346.04 0.00518616 339.469C-0.0330566 336.718 0.139052 334.006 0.559722 331.312C0.693572 330.51 0.750889 329.708 0.750889 328.887C0.808253 324.016 2.45269 319.584 4.5178 315.267C4.7855 314.714 5.07231 314.179 5.28265 313.606C5.79892 312.154 6.4491 310.817 7.90232 310.034C8.55245 309.69 8.78189 308.945 9.1452 308.334C10.1013 306.672 11.2677 305.43 13.4475 305.564C14.308 305.621 15.1876 305.01 16.0863 304.934C18.094 304.762 20.0826 304.762 22.1095 305.22C27.234 306.366 32.435 307.245 37.5978 308.276C40.0836 308.773 42.512 309.518 45.0169 309.938C50.6004 310.893 56.1838 311.944 61.7481 312.994C63.5455 313.338 65.3047 313.854 67.0639 314.274C67.4654 314.37 67.8669 314.484 68.2494 314.484C68.5171 314.484 68.8421 314.331 68.9951 314.121C69.2054 313.873 69.0525 313.529 68.8421 313.3C67.3507 311.791 65.84 310.282 64.3295 308.792C60.945 305.43 57.637 302.03 54.5393 298.401C53.545 297.255 52.5316 296.109 51.5373 294.963C49.2618 292.365 47.4262 289.442 45.3037 286.73C41.9001 282.394 39.4717 277.523 36.7947 272.767C34.9017 269.405 33.1807 265.967 31.5172 262.51C29.7771 258.88 28.4004 255.06 26.8707 251.316C26.7942 251.125 26.6795 250.915 26.6986 250.743C27.0237 248.145 25.5705 246.121 24.557 243.962C24.3084 243.427 24.2511 242.797 24.0981 242.224C23.9452 241.632 23.9452 240.963 23.6201 240.486C22.5302 238.805 22.2816 236.914 22.0521 235.004C21.8036 232.998 21.1343 231.088 20.6562 229.14C19.7193 225.377 19.3751 221.556 18.7632 217.774C17.9793 212.942 18.0557 208.09 18.1322 203.238C18.1513 201.615 18.1131 199.991 17.9793 198.386C17.8837 197.164 17.9411 195.961 18.247 194.776C18.3426 194.394 18.4382 193.955 18.3808 193.573C18.0557 191.758 18.2852 189.925 18.4191 188.129C18.8206 183.086 18.8779 178.043 19.987 173.058C20.7518 169.62 21.1534 166.086 21.708 162.61C21.708 162.514 21.7079 162.399 21.7462 162.304C22.9126 159.706 23.5627 156.956 24.3849 154.243C24.4997 153.899 24.8439 153.594 25.1116 153.307C25.4366 152.982 26.2588 153.116 26.3927 153.594C26.6221 154.377 26.7368 155.084 27.712 154.281C28.6681 153.498 29.5286 153.728 30.4847 154.358C32.2056 155.485 34.0795 155.943 36.2019 155.981C37.3301 155.981 37.9611 155.886 38.267 154.874C38.6877 153.517 39.682 152.409 39.835 150.939C39.9115 150.213 39.9306 149.544 39.51 148.895C38.3244 147.08 36.8712 145.552 34.7678 144.807C34.0986 144.578 33.4102 144.368 32.7792 144.062C32.435 143.89 31.9952 143.623 31.8805 143.298C31.4598 142.114 30.695 141.235 29.758 140.414C29.2035 139.917 29.1653 139.096 29.3947 138.408C30.2934 135.734 30.7714 132.964 32.2438 130.443C34.0603 127.31 35.4562 123.91 36.9668 120.606C38.4391 117.378 39.9115 114.169 41.9383 111.246C42.2825 110.75 42.665 110.272 43.1048 109.871C43.7167 109.298 44.2712 109.298 44.9978 109.794C47.082 111.189 49.2427 112.507 51.2504 114.016C53.5833 115.773 56.222 117.053 58.4592 118.944C59.3579 119.708 60.3522 119.632 61.1553 118.676C62.2643 117.359 63.3543 116.06 64.6928 114.971C65.0561 114.665 65.2473 114.13 65.4576 113.672C65.8018 112.965 65.7062 112.316 65.2091 111.685C64.5781 110.883 63.8706 110.176 62.991 109.642C59.8168 107.636 56.9677 105.21 54.1187 102.784C53.1243 101.944 51.9771 101.256 50.9445 100.454C49.7781 99.5561 49.606 98.7157 50.4665 97.5887C54.023 92.928 57.1016 87.9234 60.945 83.4728C64.6545 79.1941 68.2494 74.8008 72.4178 70.9805C75.1139 68.5165 77.4085 65.7085 79.9708 63.1299C80.7548 62.3467 81.5579 61.5636 82.4757 60.9142C83.8333 59.94 85.2865 60.0546 86.2426 61.4108C87.2751 62.8625 88.5945 63.894 89.933 64.9636C90.4684 65.403 91.0038 65.9187 91.3671 66.5108C93.9485 70.6558 97.2373 74.2469 100.239 78.0672C100.545 78.4683 100.89 78.8503 101.272 79.1941C102.247 80.111 102.897 80.2065 103.987 79.4807C105.326 78.5829 106.626 77.6087 107.926 76.6536C108.251 76.4053 108.538 76.1188 108.844 75.8514C109.571 75.2019 110.89 75.0873 110.986 73.903C111.062 72.948 110.163 72.3176 109.647 71.5918C105.938 66.5299 102.209 61.4681 98.4803 56.4253C97.5242 55.1264 96.5299 53.8467 95.5547 52.5478C94.8281 51.5545 94.8854 50.714 95.9371 49.9118C98.5758 47.887 101.215 45.805 103.987 43.9712C108.462 41.0105 112.993 38.1263 117.621 35.4139C121.885 32.9116 126.359 30.7531 130.642 28.2699C133.893 26.3789 137.316 24.87 140.719 23.3036C141.561 22.9216 142.421 22.616 143.358 22.7688C144.219 22.9216 144.926 23.3036 145.079 24.2396C145.328 25.8441 145.653 27.3722 146.723 28.7284C147.163 29.2824 147.029 30.2756 147.163 31.0778C147.507 33.2554 148.062 35.3948 148.215 37.6296C148.425 40.4566 149.515 43.1308 150.854 45.6331C151.695 47.2185 151.924 48.8612 152.058 50.5803C152.116 51.1725 151.772 51.8792 152.307 52.2994C152.938 52.777 153.703 53.1017 154.429 53.4264C154.678 53.541 155.06 53.541 155.328 53.4264C158.043 52.2612 161.045 52.0702 163.799 51.0579C164.678 50.7331 164.87 50.3511 164.64 49.3961C164.296 48.0208 163.933 46.6645 163.493 45.3084C161.81 40.0173 160.128 34.7071 158.387 29.416C157.47 26.6272 156.456 23.8766 155.5 21.1069C155.328 20.6294 155.175 20.1519 155.08 19.6553C154.946 18.8912 155.233 18.2036 155.921 17.8406C156.896 17.3249 157.929 16.8283 158.98 16.4845C160.51 15.9878 162.059 15.4721 163.589 14.9946C167.929 13.6384 172.308 12.3777 176.725 11.2889C181.926 9.99 187.184 8.90123 192.443 7.77425C193.915 7.44953 195.445 7.35399 196.955 7.14388C197.777 7.02927 198.562 7.20121 199.326 7.52593C200.13 7.86975 200.627 8.4619 200.799 9.32146C201.411 12.4923 202.195 15.6249 202.558 18.8148C202.787 20.7059 202.73 22.616 203.036 24.5261C203.686 28.7093 204.088 32.9116 204.585 37.1139C204.738 38.4128 204.852 39.7308 205.044 41.0297C205.292 42.7297 205.885 43.3409 207.644 43.3791C210.073 43.4173 212.52 43.36 214.949 43.2263C216.383 43.1499 216.975 42.4813 216.842 41.0487C216.669 39.3487 216.325 37.6487 216.038 35.9678C215.924 35.2801 215.599 34.5543 215.713 33.8857C216.115 31.2116 215.293 28.6711 214.929 26.0924C214.662 24.2205 214.757 22.3104 214.088 20.4384C213.782 19.6171 214.413 18.5092 214.107 17.4968C213.782 16.4463 213.82 15.3002 213.266 14.2687C213.036 13.8485 212.922 13.2945 212.96 12.817C213.151 10.9641 212.826 9.18777 212.272 7.43044C211.966 6.43718 212.329 5.94049 213.4 5.71128C216.593 5.04273 219.844 4.96632 223.075 4.81351C224.987 4.71801 226.938 4.88992 228.831 4.69891C231.794 4.41239 234.682 5.13824 237.607 5.23375C239.596 5.29105 241.661 4.98546 243.611 5.86412C244.013 6.05513 244.606 5.86411 245.103 5.7877C246.939 5.42477 248.736 5.88324 250.553 5.94054C251.164 5.95964 251.776 6.16975 252.101 6.76189C252.465 7.39223 252.962 7.86972 253.555 8.27085C253.937 8.53827 254.013 9.03492 253.612 9.30234C252.943 9.76077 252.082 10.0855 253.249 10.9451C253.115 12.7597 252.981 14.5552 252.063 16.217C251.757 16.7518 250.954 16.1215 250.935 16.8091C250.935 17.1339 251.566 17.5541 251.489 17.7833C251.298 18.3373 250.304 18.5283 250.916 19.5024C251.107 19.8081 250.706 20.5721 250.916 21.1834C251.088 21.6418 250.61 21.8328 250.228 22.0047C249.902 22.1575 249.826 22.4249 250.036 22.7306C250.227 22.9789 250.476 23.3036 250.189 23.4946C249.042 24.316 249.004 25.5194 248.87 26.7419C248.793 27.4295 248.449 28.0981 248.315 28.7857C248.086 29.97 247.627 31.2307 247.799 32.3768C248.373 36.0633 247.531 39.5971 247.053 43.169C246.996 43.5701 246.939 43.9713 246.919 44.3724C246.881 45.7668 247.302 46.378 248.64 46.8937C251.585 48.0398 254.702 48.5174 257.78 49.0904C259.119 49.3388 259.616 48.9949 259.941 47.5814C260.591 44.8117 261.203 42.042 261.758 39.2723C262.733 34.306 263.67 29.3205 264.626 24.3542C265.372 20.4766 266.098 16.5991 266.825 12.7215C266.863 12.5305 266.863 12.3203 266.901 12.1102C267.437 9.24504 267.953 8.93943 270.764 9.32146C273.9 9.74169 276.902 10.6586 279.904 11.5945C283.269 12.6451 286.558 14.0204 289.885 15.2429C290.593 15.5103 291.09 15.9878 291.338 16.6945C292.046 18.6238 293.021 20.362 294.799 21.5654C295.316 21.9283 295.545 22.5014 295.66 23.1126C296.1 25.5003 296.559 27.9071 296.234 30.352C295.851 33.1599 295.736 35.9869 295.641 38.833C295.641 39.3296 295.641 39.8645 295.526 40.342C294.341 45.7095 294.57 51.2106 294.13 56.6354C294.13 56.6927 294.245 56.75 294.321 56.8264L294.532 56.7883ZM294.857 127.616C294.799 124.98 292.314 122.287 289.981 122.306C286.845 122.325 284.149 124.904 284.206 127.788C284.263 130.367 287.323 133.404 289.79 133.327C292.83 133.232 294.914 130.863 294.857 127.635V127.616Z" fill="#E6DECB"/>
</svg>
