<svg width="639" height="532" viewBox="0 0 639 532" fill="none" xmlns="http://www.w3.org/2000/svg">
<path d="M25.5988 188.993C25.358 189.623 24.8763 190.067 24.2094 190.03C22.2643 189.956 20.3932 190.753 18.4481 190.475C18.1146 190.438 17.7071 190.401 17.4107 190.531C15.7249 191.327 13.9465 191.124 12.2051 191.105C10.7972 191.105 9.42636 191.513 7.99992 191.364C7.42564 191.309 6.83284 191.754 6.25856 191.216C6.05478 191.031 5.79543 191.29 5.5546 191.402C4.36899 191.957 4.18374 191.902 3.81324 190.92C3.57241 190.253 3.42421 189.567 3.22044 188.882C3.12781 188.604 2.90551 188.418 2.66468 188.715C2.18303 189.326 1.81252 189.085 1.38645 188.641C0.089686 187.288 0.0896859 185.491 0.200837 183.897C0.330513 182.044 0.200837 180.228 0.0341105 178.413C-0.132616 176.671 0.293463 175.337 1.7199 174.225C2.60911 173.521 3.25749 172.539 4.03554 171.687C5.7028 169.871 7.18482 167.888 9.16701 166.35C10.2044 165.553 10.9825 164.442 11.8717 163.46C12.6312 162.607 13.3722 161.718 14.1503 160.884C16.892 158.012 19.6708 155.177 22.3754 152.268C23.7648 150.786 24.9875 149.155 26.3398 147.654C28.0997 145.672 29.9152 143.763 31.6936 141.799C35.1763 137.927 38.7331 134.11 42.1232 130.163C45.1799 126.624 47.9957 122.881 51.0524 119.342C54.4425 115.395 57.9993 111.578 61.445 107.687C62.5565 106.446 63.5754 105.13 64.6128 103.833C68.3178 99.2195 72.0043 94.6057 75.7093 89.992C76.1539 89.4361 76.6171 88.8988 77.1172 88.3985C79.6181 85.8971 81.767 83.0992 83.8789 80.2828C84.9534 78.856 86.2501 77.6702 87.4913 76.4102C87.8062 76.0767 88.1582 75.8358 88.6213 75.7802C89.0104 75.7246 89.2697 75.5208 89.3438 75.1317C89.7514 73.3158 91.0667 72.0559 92.2152 70.7588C94.7717 67.8312 97.4393 65.0148 100.051 62.1613C100.237 61.9575 100.459 61.7908 100.57 61.5684C101.811 59.1411 104.034 57.5847 105.831 55.6576C107.795 53.5453 109.388 51.3033 109.851 48.3757C109.87 48.209 109.888 48.0237 109.962 47.8569C111.889 42.3538 113.741 36.7951 117.298 32.0887C118.78 30.1246 120.429 28.2532 122.189 26.53C124.393 24.3621 126.709 22.3053 129.117 20.3783C133.378 16.9504 137.861 13.8746 142.789 11.4102C147.142 9.22382 151.607 7.37091 156.22 5.88859C160.165 4.62861 164.278 3.94303 168.428 3.59098C170.966 3.36863 173.504 2.99805 176.06 2.88688C179.672 2.73865 183.285 2.62747 186.897 3.03511C189.898 3.36863 192.807 4.05421 195.771 4.49891C199.105 4.99919 202.236 6.18505 205.311 7.57473C207.238 8.4456 209.164 9.29793 211.147 10.0576C213.388 10.91 215.426 12.1329 217.575 13.1705C220.15 14.412 222.336 16.1722 224.596 17.8584C225.67 18.6551 226.578 19.6001 227.486 20.5636C228.746 21.8977 229.264 21.5271 230.135 20.6748C234.692 16.2463 240.12 13.1334 245.9 10.632C249.957 8.89029 253.995 7.14856 258.052 5.40683C258.293 5.29566 258.534 5.12889 258.775 5.09184C261.998 4.49891 264.981 3.10923 268.186 2.46071C271.65 1.75661 275.04 0.793095 278.56 0.385455C280.227 0.200165 281.894 -0.00365479 283.58 0.29281C284.099 0.385455 284.636 0.441043 285.155 0.366926C288.674 -0.114829 292.213 -0.00365478 295.732 0.0519324C296.955 0.0704614 298.196 0.274281 299.419 0.403984C301.346 0.607804 303.235 1.1822 305.199 1.10809C305.625 1.10809 306.088 1.1822 306.514 1.29338C310.701 2.36806 314.887 3.44275 319.074 4.53596C323.205 5.61065 327.003 7.53767 330.801 9.39058C336.247 12.0588 340.915 15.8387 345.398 19.841C348.214 22.3609 350.752 25.2144 352.901 28.3643C353.253 28.8646 353.605 29.3834 353.975 29.8837C354.735 30.8843 355.272 30.9769 356.087 30.0134C358.329 27.3082 361.2 25.3441 364.164 23.6394C366.888 22.0645 369.777 20.7304 372.797 19.6742C376.595 18.3586 380.559 18.0436 384.394 17.0616C385.968 16.654 387.728 16.7651 389.396 16.8763C392.286 17.0801 395.212 16.9875 398.102 17.4507C399.77 17.7101 401.381 18.1363 403.012 18.5069C407.143 19.4704 411.292 20.3042 415.127 22.2127C417.795 23.5468 420.536 24.7326 422.963 26.567C424.927 28.0493 427.057 29.3093 428.928 30.9399C430.67 32.4593 432.3 34.0528 433.708 35.8686C433.763 35.9427 433.819 36.0168 433.874 36.0724C437.357 39.9635 436.468 39.6671 439.265 35.9242C441.025 33.571 443.044 31.5143 445.027 29.402C447.361 26.9191 449.954 24.8623 452.77 23.065C457.457 20.0818 462.162 17.1357 467.572 15.5978C470.295 14.8196 472.777 13.4299 475.426 12.4293C476.501 12.0217 477.538 11.5399 478.613 11.1138C480.743 10.2614 482.892 9.53881 485.189 9.18676C487.357 8.85324 489.468 8.14913 491.673 7.94531C495.971 7.53767 500.231 7.31532 504.585 7.64885C508.494 7.94531 512.236 8.83471 516.033 9.64998C517.534 9.96498 518.794 10.8173 520.22 11.262C523.87 12.3552 527.334 13.8931 530.613 15.8387C533.336 17.4507 535.985 19.1739 538.375 21.2677C538.764 21.6198 539.171 21.9533 539.579 22.2868C541.635 23.9544 543.691 25.622 545.433 27.6417C546.637 29.0499 548.119 30.2358 549.212 31.7181C551.268 34.4789 553.213 37.3139 555.066 40.2044C556.4 42.2797 557.289 44.5958 558.141 46.9304C559.79 51.5257 560.79 56.2506 561.105 61.1237C561.179 62.1428 561.624 62.4949 562.717 62.3652C566.162 61.939 569.59 62.0131 572.998 62.5875C575.184 62.9581 577.333 63.4213 579.352 64.3663C579.982 64.6628 580.668 64.9036 581.335 65.0889C584.891 66.0895 588.393 67.2383 591.82 68.5909C593.469 69.2394 595.136 69.7953 596.785 70.4253C598.248 70.9997 599.73 71.5556 600.953 72.6488C601.397 73.0564 601.99 73.3158 602.509 73.6308C604.102 74.5573 605.843 75.2243 607.029 76.7622C607.381 77.2255 608.048 77.4478 608.566 77.7628C610.549 78.9487 612.346 80.3754 613.92 82.0615C616.44 84.7853 619.052 87.4164 621.33 90.3255C623.553 93.1604 625.887 95.9583 627.388 99.2936C627.573 99.7012 627.759 100.109 627.999 100.479C630.519 104.278 631.982 108.54 633.705 112.709C633.835 113.042 633.964 113.376 634.039 113.709C634.946 117.749 636.058 121.751 636.688 125.846C637.262 129.57 637.744 133.35 637.114 137.185C636.706 139.613 636.836 142.114 636.595 144.579C636.354 146.858 636.113 149.137 635.613 151.379C635.132 153.621 634.668 155.863 634.168 158.105C633.705 160.18 633.112 162.2 632.186 164.145C631.927 164.701 631.797 165.313 631.593 165.887C630.926 167.814 630.074 169.648 628.889 171.316C628.629 171.668 628.296 172.02 628.166 172.409C627.203 175.782 624.832 178.394 623.275 181.451C622.886 182.211 622.164 182.823 621.59 183.471C619.941 185.324 618.459 187.288 617.032 189.308C616.366 190.234 615.513 191.031 614.735 191.865C614.198 192.439 613.605 192.976 613.087 193.588C612.568 194.199 612.605 194.737 613.216 195.163C615.087 196.497 616.792 198.016 618.403 199.684C620.663 202.037 622.868 204.39 624.628 207.17C626.666 210.375 628.685 213.599 630.296 217.027C631.501 219.584 632.705 222.141 633.52 224.846C634.002 226.458 634.52 228.033 635.169 229.59C636.188 232.054 636.465 234.722 636.91 237.335C637.503 240.911 637.929 244.506 638.392 248.082C638.466 248.693 638.485 249.323 638.448 249.935C638.281 252.232 638.559 254.511 638.874 256.791C638.985 257.569 639.04 258.384 638.966 259.162C638.522 263.813 638.355 268.519 637.243 273.078C636.447 276.32 635.502 279.544 634.316 282.694C631.927 289.031 628.277 294.664 624.665 300.315C624.054 301.279 623.313 302.187 622.534 303.021C619.033 306.745 615.773 310.729 611.531 313.675C610.734 314.231 609.993 314.861 609.067 315.213C608.733 315.324 608.381 315.491 608.159 315.75C607.122 316.917 605.658 317.381 604.398 318.159C602.361 319.437 600.286 320.493 597.915 321.012C596.358 321.346 596.303 321.642 596.822 323.032C599.008 328.906 599.73 334.983 599.897 341.209C599.989 344.785 599.341 348.231 598.748 351.715C597.822 357.162 595.951 362.276 593.246 367.094C591.69 369.855 590.282 372.727 588.541 375.358C585.91 379.342 583.002 383.066 579.149 386.068C576.851 387.847 574.628 389.737 572.294 391.46C571.942 391.719 571.664 392.071 571.331 392.368C570.442 393.127 570.257 394.072 570.349 395.221C570.738 399.89 571.22 404.523 571.312 409.211C571.368 411.934 571.794 414.658 571.85 417.4C571.905 419.957 572.146 422.496 572.257 425.034C572.461 429.63 572.442 434.225 572.869 438.801C573.295 443.471 573.146 448.159 573.647 452.809C573.832 454.477 573.739 456.163 573.813 457.849C574.147 464.631 574.499 471.431 574.814 478.213C574.906 480.158 574.906 482.104 574.943 484.049C574.999 487.941 575.036 491.813 575.332 495.704C575.592 499.225 575.407 502.764 575.425 506.303C575.425 509.397 575.425 512.492 575.814 515.567C575.925 516.457 575.888 517.328 575.703 518.199C575.518 519.069 575.221 519.94 575.24 520.793C575.295 522.998 574.11 524.647 573.035 526.351C572.146 527.778 570.72 527.963 569.534 526.666C568.886 525.962 568.293 525.703 567.478 525.925C565.292 526.518 563.087 526.185 560.883 526.147C560.364 526.147 559.845 525.962 559.327 525.87C557.845 525.573 556.937 524.721 556.918 523.164C556.9 521.33 556.029 519.755 555.344 518.143C554.621 516.438 553.899 514.734 553.491 512.899C553.102 511.157 552.102 509.657 551.416 508.045C550.861 506.748 550.194 505.506 549.805 504.135C549.249 502.226 547.656 501.152 546.174 500.077C545.47 499.558 544.636 499.725 544.118 500.54C543.562 501.43 542.747 502.208 543.191 503.412C543.284 503.69 543.247 503.95 543.025 504.116C542.247 504.709 542.265 505.673 541.932 506.47C540.487 509.897 539.968 513.585 538.838 517.105C538.708 517.531 538.653 517.995 538.43 518.365C537.634 519.736 537.43 521.145 537.986 522.645C538.208 523.257 538.023 523.628 537.411 523.868C536.67 524.165 536.374 524.925 536.263 525.555C536.096 526.555 535.429 526.833 534.67 527.111C533.836 527.426 532.984 527.611 532.076 527.482C531.558 527.407 531.02 527.426 530.483 527.407C529.168 527.37 527.834 527.278 526.519 527.278C525.203 527.278 524.388 528.501 523.147 528.686C522.814 528.742 522.499 528.871 521.98 529.019C521.387 527.574 520.702 526.222 520.294 524.813C519.646 522.608 518.293 521.126 516.237 520.237C515.922 520.088 515.644 519.792 515.311 519.736C513.644 519.458 513.218 518.254 513.199 516.827C513.181 514.715 513.255 512.621 513.292 510.509C513.292 509.805 513.403 509.082 513.292 508.397C512.773 505.247 513.236 502.078 513.032 498.928C512.829 495.76 512.921 492.591 512.458 489.441C512.236 487.959 512.347 486.44 512.291 484.939C512.125 480.362 511.958 475.767 511.754 471.19C511.662 469.263 511.902 467.299 511.421 465.391C511.365 465.15 511.402 464.872 511.421 464.594C511.68 459.647 511.254 454.736 510.865 449.826C510.772 448.659 511.217 447.584 511.032 446.417C510.791 444.935 510.92 443.415 510.717 441.933C510.328 439.042 510.92 436.115 510.291 433.224C510.291 433.132 510.272 433.039 510.291 432.965C510.939 429.166 509.994 425.405 510.142 421.625C510.217 419.791 509.698 417.956 510.068 416.103C510.142 415.696 509.994 415.233 509.92 414.788C509.846 414.399 509.587 414.195 509.198 414.121C508.568 414.01 507.975 414.232 507.364 414.288C504.381 414.528 501.454 415.066 498.472 415.399C496.36 415.622 494.248 415.696 492.136 415.455C491.173 415.344 490.209 415.344 489.246 415.659C487.523 416.233 486.152 415.825 485.263 414.139C485.189 414.01 484.985 413.861 484.837 413.88C484.541 413.88 484.374 414.158 484.374 414.417C484.43 416.363 484.448 418.308 484.633 420.235C485.115 425.498 485.763 430.76 486.023 436.059C486.319 442.229 486.875 448.4 487.245 454.57C487.486 458.535 487.523 462.519 487.801 466.484C488.19 472.043 487.894 477.62 488.431 483.16C488.69 485.791 488.561 488.459 488.616 491.109C488.746 498.447 489.228 505.747 489.302 513.084C489.339 517.031 489.413 521.033 490.006 524.962C490.172 526.055 490.006 527.055 489.394 528C488.931 528.742 488.561 529.557 488.079 530.298C487.542 531.15 486.764 531.854 485.745 531.873C482.484 531.929 479.243 532.206 475.982 531.706C474.611 531.502 473.759 530.78 473.185 529.575C472.24 527.648 471.851 525.555 471.499 523.479C471.277 522.256 470.962 521.07 470.499 519.922C469.202 516.735 467.924 513.548 466.59 510.379C466.145 509.323 465.589 508.322 465.071 507.285C464.83 506.785 464.422 506.507 463.867 506.358C462.922 506.118 462.57 506.173 462.162 507.081C460.199 511.491 458.068 515.808 456.92 520.57C456.327 523.035 455.512 525.48 454.919 527.963C454.789 528.464 454.548 528.964 454.308 529.427C453.77 530.446 452.955 531.039 451.77 531.021C449.565 530.984 447.361 530.947 445.156 530.891C444.286 530.872 443.396 530.817 442.526 530.724C441.044 530.576 440.043 529.798 439.765 528.297C439.562 527.148 439.08 526.11 438.71 525.017C438.024 522.942 436.635 521.589 434.56 520.904C433.893 520.681 433.263 520.348 432.652 520.014C432.17 519.736 431.911 519.273 432.059 518.662C432.911 515.234 432.244 511.806 432.152 508.378C432.059 504.672 431.874 500.966 431.596 497.261C431.299 493.036 431.466 488.793 430.762 484.587C431.04 482.289 430.633 480.01 430.558 477.731C430.41 474.044 429.966 470.356 429.725 466.651C429.521 463.575 429.41 460.48 429.262 457.405C429.113 454.403 428.947 451.42 428.836 448.418C428.761 446.75 428.799 445.083 428.743 443.415C428.669 441.562 428.539 439.728 428.447 437.875C428.261 433.391 428.113 428.907 427.65 424.423C427.317 421.273 427.205 418.086 427.002 414.918C427.002 414.732 427.002 414.565 426.965 414.38C426.89 413.546 426.52 413.25 425.76 413.472C425.001 413.695 424.241 413.917 423.5 414.213C420.203 415.51 416.776 416.307 413.293 416.863C412.348 417.011 411.441 417.382 410.496 417.586C408.236 418.049 405.957 418.234 403.641 418.123C403.456 418.123 403.289 418.123 403.104 418.123C400.789 418.401 398.547 418.197 396.343 417.419C395.676 417.197 394.972 417.048 394.268 416.993C391.507 416.77 388.895 415.918 386.32 414.992C384.097 414.176 381.8 413.565 379.67 412.472C376.854 411.045 373.946 409.841 371.426 407.784C369.537 406.246 367.369 404.986 365.368 403.541C360.608 400.113 356.365 396.129 353.142 391.2C351.53 388.736 349.381 386.772 347.547 384.511C347.066 383.918 346.417 384.085 346.158 384.9C345.658 386.42 344.991 387.847 344.305 389.292C342.805 392.423 340.915 395.277 338.488 397.778C338.062 398.223 337.544 398.63 337.266 399.149C336.358 400.947 334.802 402.132 333.32 403.374C332.912 403.707 332.468 404.004 332.097 404.393C329.393 407.284 325.91 409.044 322.52 410.897C320.352 412.083 317.944 412.731 315.425 412.805C315.073 412.805 314.721 412.824 314.369 412.879C313.665 412.99 313.239 413.398 313.202 414.121C313.165 415.084 313.128 416.066 313.183 417.03C313.313 419.679 313.554 422.311 313.628 424.96C313.739 428.666 313.572 432.39 313.794 436.096C314.202 442.359 314.109 448.622 314.239 454.885C314.313 458.313 314.295 461.759 314.48 465.187C314.702 469.337 314.535 473.506 314.924 477.62C315.276 481.418 315.091 485.217 315.388 488.997C315.74 493.573 315.74 498.169 315.962 502.764C316.166 506.896 316.555 511.028 316.833 515.178C316.962 517.031 316.962 518.884 317.148 520.737C317.388 523.35 316.11 525.314 313.961 526.703C313.609 526.944 313.128 527.111 312.72 527.111C310.868 527.074 309.034 527.519 307.181 527.259C305.606 527.037 304.032 527 302.439 527.278C301.92 527.37 301.383 527.37 300.845 527.352C299.104 527.296 298.956 527.074 298.493 525.24C297.678 522.015 296.807 518.791 295.825 515.604C295.769 515.438 295.732 515.215 295.621 515.123C294.139 514.141 294.399 512.566 294.195 511.139C294.158 510.88 294.195 510.583 294.065 510.361C292.917 508.397 292.88 506.136 292.268 504.024C292.046 503.246 291.638 502.579 291.286 501.874C290.564 500.429 289.397 500.151 287.97 500.318C286.896 500.448 286.303 501.319 286.562 502.393C286.618 502.653 286.766 502.875 286.859 503.134C287.359 504.357 287.396 505.543 286.562 506.636C286.136 507.211 286.266 507.73 286.488 508.36C286.822 509.36 286.877 510.342 285.988 511.232C285.062 512.158 285.099 513.529 284.932 514.696C284.71 516.253 283.913 517.717 284.228 519.384C284.302 519.736 283.913 520.181 283.728 520.57C282.95 522.349 282.154 524.109 281.413 525.907C281.079 526.74 280.597 527.222 279.653 527.222C278.411 527.222 277.189 527.315 275.948 527.333C274.262 527.352 272.595 527.333 270.909 527.333C270.372 527.333 269.853 527.333 269.316 527.333C267.296 527.296 265.722 526.666 265.092 524.48C264.851 523.665 264.314 522.905 263.814 522.182C262.795 520.7 261.702 519.329 259.683 519.218C259.349 519.218 258.997 519.032 258.682 518.903C258.163 518.68 257.793 518.31 257.756 517.717C257.663 516.049 257.163 514.4 257.497 512.714C257.737 511.491 257.348 510.231 257.478 509.045C257.774 505.784 257.441 502.523 257.589 499.28C257.774 495.241 257.756 491.202 257.886 487.162C257.978 483.901 257.811 480.64 257.904 477.379C257.978 474.729 257.849 472.098 258.163 469.449C258.2 469.097 258.201 468.744 258.201 468.392C258.163 463.186 258.497 457.998 258.423 452.791C258.367 448.64 258.534 444.49 257.941 440.358C257.774 439.228 257.867 438.06 257.811 436.912C257.645 432.594 257.422 428.277 257.348 423.96C257.311 422.107 257.626 420.254 257.719 418.42C257.793 416.956 257.385 416.548 255.866 416.511C254.273 416.474 252.68 416.492 251.087 416.511C247.03 416.548 242.973 416.455 238.916 416.085C238.397 416.029 237.86 416.029 237.323 416.029C234.877 415.974 234.618 416.215 234.618 418.735C234.618 427.388 234.618 436.059 234.655 444.712C234.655 455.496 234.655 466.28 234.729 477.045C234.729 479.769 234.674 482.53 234.859 485.235C235.1 488.589 235.063 491.943 235.118 495.297C235.192 499.447 235.1 503.598 235.192 507.748C235.266 510.824 235.507 513.918 235.748 516.994C235.822 517.865 236.137 518.717 236.359 519.57C236.989 522.015 235.804 523.831 234.303 525.536C233.877 526.018 233.229 526.147 232.617 526.185C231.728 526.259 230.857 526.314 229.968 526.333C227.226 526.388 224.485 526.407 221.762 526.444C221.41 526.444 221.058 526.462 220.706 526.444C217.89 526.296 217.112 525.629 216.297 522.812C215.908 521.46 215.5 520.107 215.37 518.68C215.315 518.069 215.148 517.457 214.889 516.901C213.944 514.696 213.444 512.362 212.666 510.101C212.314 509.082 212.277 508.026 212.166 506.97C211.98 505.247 211.239 503.764 210.128 502.449C209.702 501.949 209.201 502.004 208.85 502.579C207.553 504.728 206.775 507.063 206.867 509.601C206.886 510.175 206.719 510.583 206.534 511.083C205.645 513.381 204.774 515.697 203.996 518.032C203.607 519.181 203.422 520.348 203.681 521.663C203.959 523.09 203.033 524.35 202.162 525.48C201.977 525.721 201.551 525.87 201.217 525.888C199.809 525.981 198.383 526.147 196.993 525.999C193.474 525.629 189.991 525.11 186.49 524.647C185.712 524.554 185.211 524.165 184.897 523.442C184.582 522.72 184.267 521.96 183.822 521.33C182.822 519.922 181.895 518.421 179.895 518.124C178.913 517.976 178.431 517.142 178.45 516.16C178.468 515.345 178.172 514.826 177.449 514.474C176.616 514.067 176.468 513.362 176.634 512.473C177.375 508.545 177.246 504.543 177.338 500.596C177.394 497.687 177.338 494.778 177.412 491.869C177.561 485.606 177.69 479.343 177.838 473.08C177.968 467.874 178.227 462.685 178.209 457.479C178.172 449.27 178.19 441.043 178.394 432.835C178.598 424.627 178.709 416.418 178.876 408.229C178.968 403.596 178.487 404.597 174.874 404.745C174.263 404.764 173.652 404.967 173.059 405.116C172.096 405.357 171.151 405.375 170.169 405.208C169.224 405.042 168.242 404.912 167.279 404.893C163 404.856 158.887 404.004 154.793 402.8C151.736 401.892 148.81 400.669 145.901 399.409C145.012 399.02 144.123 398.593 143.308 398.075C139.38 395.536 135.379 393.09 131.933 389.885C130.118 388.199 128.487 386.346 126.765 384.567C125.542 383.288 124.356 381.973 123.097 380.75C119.484 377.229 116.113 373.468 113.297 369.299C110.981 365.871 108.647 362.425 107.258 358.459C106.739 356.959 105.979 355.569 105.424 354.068C104.386 351.233 103.812 348.306 103.127 345.396C102.7 343.599 102.145 341.839 101.793 340.005C100.978 335.91 100.57 331.778 100.811 327.646C101.163 321.235 101.515 314.787 103.664 308.616C104.349 306.615 104.683 304.521 105.442 302.539C106.554 299.556 107.906 296.684 109.332 293.849C109.499 293.534 109.703 293.237 109.851 292.922C110.333 291.922 110.314 291.495 109.407 290.865C107.573 289.587 106.202 287.845 104.609 286.326C104.238 285.974 103.868 285.548 103.608 285.103C102.997 283.991 102.256 283.046 101.07 282.509C100.681 282.324 100.292 282.009 100.088 281.657C99.6253 280.767 98.8472 280.174 98.1618 279.489C94.4568 275.709 91.8447 271.243 89.8255 266.389C88.9733 264.35 87.9915 262.368 87.4357 260.218C87.3616 259.959 87.269 259.718 87.1393 259.477C85.4721 256.55 84.6384 253.27 83.2491 250.231C82.6007 248.805 82.2487 247.211 81.8226 245.692C80.637 241.337 80.1183 236.853 79.9516 232.369C79.8589 230.016 80.3036 227.626 80.5259 225.254C80.5814 224.735 80.7482 224.216 80.7667 223.679C80.8778 221.048 81.3224 220.992 78.4696 220.863C77.2284 220.807 76.0243 220.752 74.7831 220.807C72.8379 220.9 70.8928 220.9 68.9662 220.918C66.0577 220.937 63.1308 220.77 60.2223 221.011C57.3139 221.252 54.4239 221.085 51.534 220.955C49.7926 220.881 48.0328 221.196 46.2729 221.289C43.6423 221.419 41.0488 221.604 38.4367 222.012C36.2878 222.345 34.0092 221.863 31.8418 222.141C29.3779 222.475 26.9326 222.345 24.4688 222.271C23.7648 222.271 23.0609 222.215 22.3569 222.16C21.4677 222.104 20.5785 221.882 19.7263 221.974C17.1513 222.308 14.6134 221.845 12.0569 221.863C10.4638 221.882 8.8706 221.771 7.29597 222.049C6.09183 222.252 5.31378 221.771 4.68392 220.752C3.94292 219.584 3.51684 218.157 2.20155 217.379C1.97925 217.25 1.92368 216.749 1.90515 216.397C1.794 214.118 1.18267 211.858 1.44202 209.541C1.5717 208.411 1.51612 207.244 1.21972 206.114C0.941843 205.002 1.46055 204.279 2.42385 203.742C3.47979 203.149 4.79507 203.13 5.7028 202.204C5.79543 202.111 6.05478 202.093 6.20298 202.13C8.59273 202.63 10.8713 201.611 13.224 201.648C13.5575 201.648 13.965 201.592 14.2429 201.407C15.3729 200.666 16.5215 200.555 17.7627 201.092C19.9301 200.648 22.1161 200.814 24.3206 200.87C25.395 200.166 26.4139 200.388 27.5439 200.87C28.6369 201.315 29.804 201 30.8785 200.499C32.1752 199.888 33.509 199.536 34.9725 199.888C35.8803 200.11 36.6768 199.74 37.5105 199.35C39.1592 198.591 40.8821 198.294 42.6605 198.832C43.2162 198.998 43.6793 198.906 44.1795 198.683C45.9765 197.924 48.0142 198.183 49.8297 197.386C50.3484 197.164 51.0338 197.405 51.6266 197.423C52.6826 197.442 53.5718 197.201 54.2202 196.441C55.2576 195.256 56.5543 194.329 57.4065 192.976C57.8511 192.254 57.8511 191.809 57.2768 191.327C55.9986 190.253 54.6833 189.215 53.368 188.177C52.8493 187.788 52.2935 187.64 51.6637 188.066C50.6633 188.733 49.5703 188.678 48.3847 188.529C46.6434 188.326 44.865 188.418 43.1051 188.567C41.7527 188.678 40.456 188.511 39.1592 188.381C38.1774 188.289 38.1774 188.252 37.9366 186.658C37.2511 187.14 36.5286 187.492 36.0285 188.029C35.0281 189.122 33.7869 188.9 32.5643 188.9C30.9896 188.9 30.9896 188.845 29.6558 187.51C29.5447 187.622 29.3409 187.714 29.3224 187.844C29.2668 188.474 29.2668 189.141 28.6369 189.474C27.8959 189.864 27.1179 189.919 26.3769 189.419C26.1546 189.271 25.9508 189.104 25.7285 188.956C24.8949 188.122 23.9871 187.714 24.1909 188.159C24.4873 188.789 25.1727 188.789 25.7285 188.937L25.5988 188.993ZM173.985 68.6465C173.596 68.8503 173.226 69.2209 172.837 69.2394C170.688 69.2765 168.687 69.9435 166.649 70.4624C166.149 70.5921 165.556 70.7588 165.093 70.6291C163.167 70.0362 161.888 71.0553 160.666 72.2597C160.425 72.482 160.351 72.9082 159.943 72.9453C158.443 73.112 157.553 74.3164 156.368 75.0205C155.923 75.2799 155.46 75.6875 155.479 76.2619C155.516 77.0587 154.997 77.2996 154.441 77.6146C154.237 77.7257 154.034 77.9852 154.015 78.189C153.978 78.4854 154.311 78.5966 154.571 78.6337C156.034 78.8375 157.516 79.2822 158.906 78.3001C161.407 77.8184 163.926 77.3181 166.427 76.8549C166.853 76.7808 167.316 76.6881 167.724 76.7622C170.113 77.1884 172.429 76.7993 174.745 76.1878C174.986 76.1322 175.375 75.9655 175.467 76.0767C176.745 77.4293 178.468 76.8178 179.969 77.0958C180.302 77.1513 180.784 77.244 180.914 77.4663C181.414 78.4298 182.396 78.3001 183.192 78.5966C184.174 78.9672 184.378 79.1154 185.119 80.3198C185.545 81.0054 186.138 81.5242 186.99 81.6539C187.768 81.7651 188.546 81.9504 189.343 82.0615C190.139 82.1912 190.862 82.4877 191.566 82.8768C192.214 83.2474 192.436 83.655 192.066 84.3777C191.732 85.0077 191.769 85.5821 192.64 85.7674C192.807 85.8044 193.048 85.8785 193.085 85.9712C193.548 87.4906 194.548 88.7135 195.234 90.1032C196.364 92.4378 196.215 95.106 197.364 97.4221C197.401 97.4962 197.382 97.6074 197.364 97.6815C196.66 99.2009 197.105 100.831 196.993 102.388C196.882 104.074 196.197 105.668 196.16 107.335C196.104 108.892 195.641 110.263 194.9 111.597C194.252 112.764 193.696 113.95 193.733 115.34C193.548 115.488 193.177 115.636 193.196 115.766C193.27 116.303 194.104 116.97 194.585 116.915C194.678 116.915 194.77 116.655 194.789 116.507C194.789 116.266 194.733 116.007 194.696 115.766C194.863 115.84 195.048 115.859 195.178 115.97C196.215 116.896 196.234 117.526 195.122 118.212C194.511 118.582 193.992 119.046 193.474 119.509C192.733 120.176 192.103 121.232 190.825 120.491C189.972 121.121 188.713 120.898 187.972 121.769C187.212 122.659 185.563 122.714 185.6 124.363C185.6 124.641 185.267 124.715 184.989 124.734C184.489 124.771 184.174 125.067 184.007 125.512C183.729 126.253 183.174 126.605 182.451 126.791C181.951 126.939 181.34 127.05 181.006 127.384C179.932 128.44 178.524 128.662 177.19 129.051C176.171 129.348 175.134 129.514 174.096 129.755C173.485 129.904 173.244 130.422 173.504 130.96C174.263 132.572 175.449 133.387 177.301 133.165C179.395 132.905 181.543 132.887 183.581 132.405C185.026 132.071 186.564 131.997 187.935 131.441C189.861 130.645 191.714 129.626 193.603 128.755C194.585 128.292 195.437 127.699 196.049 126.791C196.512 126.105 197.049 125.605 197.975 125.605C198.939 125.605 199.68 125.049 200.143 124.289C201.05 122.807 202.162 121.417 202.884 119.898C204.607 116.34 206.793 113.005 208.164 109.281C208.312 108.873 208.535 108.41 208.868 108.169C210.146 107.224 210.684 105.908 211.054 104.445C211.11 104.204 211.313 104 211.462 103.778C211.925 103.055 211.906 102.369 211.61 101.536C211.11 100.146 210.869 98.5895 211.332 97.2183C211.739 96.0139 211.795 95.0319 211.184 93.9572C210.702 93.1049 210.572 92.1414 210.276 91.2334C209.239 88.0279 208.738 84.4703 205.256 82.6915C204.959 82.5433 204.774 82.1727 204.533 81.9318C204.107 81.5057 203.718 80.9683 203.199 80.6719C202.421 80.2272 202.014 79.7084 202.106 78.7819C202.236 77.6146 201.606 76.8363 200.828 76.0396C199.402 74.5758 197.29 74.057 195.993 72.445C195.734 72.13 195.252 71.9817 194.863 71.7964C194.474 71.6112 194.048 71.4444 193.622 71.3888C192.973 71.2962 192.751 70.9626 192.677 70.3512C192.584 69.6471 192.251 69.5174 191.603 69.9621C191.065 70.3327 190.658 69.7212 190.213 69.4803C188.75 68.7206 187.823 68.665 187.157 69.6285C186.249 70.9626 185.174 70.3512 184.1 70.1844C184.044 70.1844 183.97 70.0362 183.989 69.9621C184.026 69.7953 184.063 69.61 184.174 69.4988C184.285 69.3877 184.489 69.295 184.637 69.3135C185.267 69.4062 186.045 69.5915 186.045 68.6836C186.045 68.0721 185.193 68.2389 184.73 68.0906C184.396 67.998 184.044 67.9609 183.692 67.9239C183.266 67.8868 183.118 68.0721 183.081 68.5353C183.025 69.7397 182.748 69.9991 181.821 69.9991C180.895 69.9991 180.08 69.7212 179.395 69.1097C178.95 68.7021 178.505 68.6465 177.95 68.9059C176.82 69.4062 175.893 68.98 175.115 68.1277C175.041 67.5718 174.837 67.0901 174.208 66.9974C173.689 66.9233 173.152 66.8677 172.633 66.9048C172.429 66.9048 172.17 67.1271 172.059 67.3309C171.929 67.5718 172.059 67.8498 172.336 67.9609C172.892 68.2203 173.466 68.4427 174.022 68.665L173.985 68.6465ZM102.404 120.231C102.552 119.472 102.571 119.12 102.7 118.805C102.941 118.249 103.645 118.156 103.96 118.638C104.182 119.008 104.349 119.435 104.571 119.805C104.942 120.398 104.646 121.491 105.331 121.677C106.35 121.955 106.257 122.881 106.795 123.4C107.184 123.77 107.61 124.085 108.147 124.178C109.11 124.326 110.073 124.604 111.018 124.549C112.296 124.456 113.649 124.53 114.816 123.696C116.372 122.603 117.687 121.306 118.428 119.564C119.169 117.823 120.096 116.081 119.521 114.043C119.336 113.376 119.336 112.653 119.299 111.949C119.225 110.281 118.132 109.04 117.539 107.576C117.391 107.224 116.946 106.89 116.557 106.742C115.427 106.335 114.168 106.223 113.389 105.112C113.278 104.963 112.889 104.926 112.648 104.945C111.778 104.982 110.907 104.945 110.036 105.204C108.536 105.668 107.035 106.094 105.405 106.131C104.145 106.168 102.941 106.928 101.922 107.817C99.0695 110.318 98.7361 115.562 100.978 118.138C101.422 118.656 101.756 119.286 102.386 120.213L102.404 120.231Z" fill="#E6DECB"/>
</svg>
