<svg width="142" height="185" viewBox="0 0 142 185" fill="none" xmlns="http://www.w3.org/2000/svg">
<g filter="url(#filter0_g_32_1081)">
<path d="M0.49035 123.315L122.08 123.321L122.097 184.353C116.794 184.442 111.348 184.377 106.028 184.377L76.6286 184.378L0.416993 184.365C0.617578 178.886 0.399732 172.861 0.460012 167.337C0.619277 152.739 0.234584 137.889 0.49035 123.315Z" fill="#E6DECB"/>
</g>
<g filter="url(#filter1_g_32_1081)">
<path d="M80.2404 59.8153C82.8099 59.4895 86.2545 60.2224 88.7875 60.54C90.579 60.7647 92.3158 60.8397 94.1154 60.9315L94.1137 104.888C88.3063 105.047 81.7304 104.906 75.8504 104.906L40.3209 104.904L28.4698 104.909L28.4743 90.9062C28.4744 88.418 28.5472 85.4826 28.4277 83.0223C32.8464 79.2995 37.5085 74.9467 41.8803 71.0722L46.5543 66.9432C47.4114 66.185 48.7282 65.0857 49.4202 64.2554C51.764 65.6071 54.3902 66.3947 57.0912 66.5557C58.7219 66.6491 61.3074 66.6098 62.8079 66.1469C69.065 64.2163 73.5119 60.4461 80.2404 59.8153Z" fill="#E6DECB"/>
</g>
<g filter="url(#filter2_g_32_1081)">
<path d="M106.462 13.4324C106.866 13.6356 106.96 14.453 107.112 14.9377C107.487 16.14 107.849 17.3495 108.213 18.5558L112.925 34.2651C113.762 37.0544 114.632 40.1985 115.555 42.9371C112.4 46.3498 111.147 48.4897 106.969 51.2762C101.755 54.7527 96.2003 55.5646 90.0475 54.7919C84.7869 54.1312 81.588 53.3629 76.2037 54.5095C72.4756 55.2832 68.9973 57.1872 65.5242 58.7629C62.0832 60.3239 59.6193 61.334 55.6689 60.4753C51.5465 59.5792 49.0881 57.3066 46.8326 53.8769C47.8613 53.5926 49.6114 52.8788 50.6598 52.4898L57.7335 49.8742L64.9493 47.205C66.3626 46.681 67.9749 46.1401 69.3026 45.4354C70.1956 44.9616 70.4223 43.9878 70.6565 43.0814C70.1162 40.6624 68.7786 39.6375 66.3146 40.4872C64.4508 41.1298 62.6171 41.8157 60.7682 42.5004L50.5485 46.2868C47.7127 47.3384 44.2118 48.5142 41.4988 49.7559C38.4319 51.1596 41.3277 56.0926 42.6007 58.1087C43.1584 58.9522 43.951 59.9699 44.6805 60.6646C37.2713 67.3867 29.5809 73.9719 22.0816 80.6038C19.2721 83.0883 15.518 83.1901 12.1431 81.7689C13.535 80.117 14.9313 78.1292 16.2249 76.3754L22.4505 67.934L41.583 42.0049L47.1983 34.373C51.3671 28.7103 54.6009 23.3091 62.3552 22.5844C64.796 22.3562 67.2495 22.2741 69.6946 22.151C75.3041 21.8638 80.9155 21.6161 86.5285 21.4082C96.5145 21.0035 99.3395 20.9703 106.462 13.4324Z" fill="#E6DECB"/>
</g>
<g filter="url(#filter3_g_32_1081)">
<path d="M9.90847 97.384C13.3187 97.5868 19.0486 97.4145 22.6037 97.4257L22.6088 104.894C20.2843 104.889 15.8356 104.269 15.4345 107.373C14.8764 111.692 20.3821 110.783 23.0583 110.782L32.3088 110.782L61.0083 110.783L90.4871 110.784L99.9753 110.787C101.847 110.788 104.66 111.235 106.07 109.936C106.666 109.384 107.018 108.617 107.046 107.806C107.15 104.328 102.237 104.889 99.9672 104.902C99.9311 102.423 99.9571 99.9017 99.9567 97.4184L112.499 97.4192C113.21 99.3739 114.179 101.586 114.983 103.534C116.317 106.942 117.779 110.319 119.132 113.721C119.628 114.964 120.134 116.202 120.725 117.404C105.469 117.666 89.4997 117.443 74.1914 117.443L1.70068 117.423C2.60319 115.575 3.80408 112.354 4.61989 110.356L9.90847 97.384Z" fill="#E6DECB"/>
</g>
<g filter="url(#filter4_g_32_1081)">
<path d="M127.29 0.411919L127.471 0.399902C127.539 0.44878 127.607 0.497658 127.674 0.546536C131.17 11.8932 134.676 23.8228 138.093 35.1324C138.878 37.7327 140.425 43.3657 141.065 44.6863C138.592 45.6815 135.83 46.2806 133.295 47.1188C130.269 48.1191 126.996 48.8405 124.015 49.9273L123.802 49.8516C123.284 49.0297 121.568 42.6588 121.117 41.1593L114.084 17.7842L111.85 10.3188C111.394 8.79561 110.892 6.94762 110.3 5.50174C115.829 3.85659 121.738 1.85361 127.29 0.411919Z" fill="#E6DECB"/>
</g>
<defs>
<filter id="filter0_g_32_1081" x="-9.76622e-05" y="122.915" width="122.497" height="61.8845" filterUnits="userSpaceOnUse" color-interpolation-filters="sRGB">
<feFlood flood-opacity="0" result="BackgroundImageFix"/>
<feBlend mode="normal" in="SourceGraphic" in2="BackgroundImageFix" result="shape"/>
<feTurbulence type="fractalNoise" baseFrequency="0.99900001287460327 0.99900001287460327" numOctaves="3" seed="5497" />
<feDisplacementMap in="shape" scale="0.80000001192092896" xChannelSelector="R" yChannelSelector="G" result="displacedImage" width="100%" height="100%" />
<feMerge result="effect1_texture_32_1081">
<feMergeNode in="displacedImage"/>
</feMerge>
</filter>
<filter id="filter1_g_32_1081" x="28.0277" y="59.3336" width="66.4877" height="46.0302" filterUnits="userSpaceOnUse" color-interpolation-filters="sRGB">
<feFlood flood-opacity="0" result="BackgroundImageFix"/>
<feBlend mode="normal" in="SourceGraphic" in2="BackgroundImageFix" result="shape"/>
<feTurbulence type="fractalNoise" baseFrequency="0.99900001287460327 0.99900001287460327" numOctaves="3" seed="5497" />
<feDisplacementMap in="shape" scale="0.80000001192092896" xChannelSelector="R" yChannelSelector="G" result="displacedImage" width="100%" height="100%" />
<feMerge result="effect1_texture_32_1081">
<feMergeNode in="displacedImage"/>
</feMerge>
</filter>
<filter id="filter2_g_32_1081" x="11.7431" y="13.0324" width="104.212" height="70.0576" filterUnits="userSpaceOnUse" color-interpolation-filters="sRGB">
<feFlood flood-opacity="0" result="BackgroundImageFix"/>
<feBlend mode="normal" in="SourceGraphic" in2="BackgroundImageFix" result="shape"/>
<feTurbulence type="fractalNoise" baseFrequency="0.99900001287460327 0.99900001287460327" numOctaves="3" seed="5497" />
<feDisplacementMap in="shape" scale="0.80000001192092896" xChannelSelector="R" yChannelSelector="G" result="displacedImage" width="100%" height="100%" />
<feMerge result="effect1_texture_32_1081">
<feMergeNode in="displacedImage"/>
</feMerge>
</filter>
<filter id="filter3_g_32_1081" x="1.30068" y="96.984" width="119.824" height="20.9475" filterUnits="userSpaceOnUse" color-interpolation-filters="sRGB">
<feFlood flood-opacity="0" result="BackgroundImageFix"/>
<feBlend mode="normal" in="SourceGraphic" in2="BackgroundImageFix" result="shape"/>
<feTurbulence type="fractalNoise" baseFrequency="0.99900001287460327 0.99900001287460327" numOctaves="3" seed="5497" />
<feDisplacementMap in="shape" scale="0.80000001192092896" xChannelSelector="R" yChannelSelector="G" result="displacedImage" width="100%" height="100%" />
<feMerge result="effect1_texture_32_1081">
<feMergeNode in="displacedImage"/>
</feMerge>
</filter>
<filter id="filter4_g_32_1081" x="109.9" y="-9.76622e-05" width="31.5651" height="50.3273" filterUnits="userSpaceOnUse" color-interpolation-filters="sRGB">
<feFlood flood-opacity="0" result="BackgroundImageFix"/>
<feBlend mode="normal" in="SourceGraphic" in2="BackgroundImageFix" result="shape"/>
<feTurbulence type="fractalNoise" baseFrequency="0.99900001287460327 0.99900001287460327" numOctaves="3" seed="5497" />
<feDisplacementMap in="shape" scale="0.80000001192092896" xChannelSelector="R" yChannelSelector="G" result="displacedImage" width="100%" height="100%" />
<feMerge result="effect1_texture_32_1081">
<feMergeNode in="displacedImage"/>
</feMerge>
</filter>
</defs>
</svg>
