<svg width="217" height="203" viewBox="0 0 217 203" fill="none" xmlns="http://www.w3.org/2000/svg">
<path d="M0 52.7736C0.482309 51.5029 0.510529 49.221 0.76982 47.8242C1.21576 45.4217 1.70749 43.1271 2.41382 40.7857C6.98291 25.6968 17.5577 13.1463 31.6609 6.07393C36.8129 3.5113 42.3199 1.73322 47.9988 0.79877C52.8453 0.00523314 56.4547 0.0447347 61.3282 0.0434363L71.4657 0.0441643C76.4267 0.0457689 83.7118 -0.166167 88.4529 0.324567C92.6588 0.757802 96.805 1.64622 100.819 2.97415C112.225 6.79132 122.145 14.0872 129.181 23.8338C132.37 28.236 134.932 33.1057 136.747 38.2281C140.978 50.2382 141.084 63.3132 137.052 75.391C132.17 89.8347 121.759 101.758 108.098 108.553C101.535 111.827 94.3997 113.798 87.086 114.357C82.9636 114.643 77.8785 114.514 73.6725 114.514L54.8132 114.51C53.6722 114.51 46.9134 114.365 46.2487 114.724C44.4902 115.673 41.0803 118.083 39.2949 119.273L17.5932 133.743L12.4172 137.203C9.75439 138.987 7.58338 140.794 4.2186 139.633C2.4726 139.03 1.30863 137.706 0.499269 136.094C0.321306 135.733 0.20633 135.288 0 134.966V52.7736ZM64.2887 62.9519L56.5504 55.2139C55.2879 53.9517 53.3245 51.7894 51.8775 50.8474C49.5779 49.3505 46.0769 49.816 44.1173 51.7718C42.9268 52.9775 42.2682 54.6087 42.2884 56.3023C42.3028 59.0838 43.9237 60.5221 45.7479 62.3306C46.77 63.3438 47.9208 64.4428 48.9159 65.4728L56.5097 73.0671C58.8004 75.3578 60.8333 78.2062 64.3447 78.1804C65.6386 78.1727 66.8973 77.7579 67.9419 76.9949C68.6925 76.4495 70.5729 74.4928 71.2991 73.7674L77.5833 67.4857C84.2453 60.8244 90.9208 54.1644 97.5825 47.5017C99.0483 46.0357 99.9271 44.6437 99.8758 42.4854C99.8397 40.7685 99.1018 39.1411 97.8336 37.9818C96.5223 36.7948 94.8669 36.3056 93.1249 36.3945C93.0453 36.3988 92.9656 36.404 92.8862 36.4103C89.7467 36.9231 88.7949 38.4371 86.6462 40.5893L81.5863 45.6583L64.2887 62.9519Z" fill="#E6DECB"/>
<path d="M153.318 64.0604C166.091 63.675 176.742 65.0203 188.044 71.4404C201.229 78.8878 210.909 91.2499 214.954 105.809C215.767 108.741 216.314 111.643 216.626 114.665C216.701 115.389 216.794 116.306 217 116.986V197.832C215.869 200.19 215.272 201.93 212.41 202.75C209.257 203.652 207.202 201.942 204.741 200.3L199.004 196.458L178.372 182.73C177.099 181.878 171.519 177.891 170.515 177.807C168.66 177.653 164.238 177.736 162.07 177.738L143.303 177.744C139.854 177.744 135.681 177.847 132.287 177.672C123.525 177.254 114.973 174.849 107.283 170.64C94.3971 163.566 84.7398 151.815 80.3176 137.828C79.4316 135.009 78.7261 132.066 78.3622 129.131C78.2791 128.461 78.2084 127.819 78 127.174C82.041 126.907 85.9245 127.179 90.2615 126.806C101.278 125.832 111.898 122.225 121.22 116.293C123.911 114.582 125.995 112.99 128.492 111.054C130.102 112.34 131.556 113.996 133.018 115.45C134.624 117.048 136.374 118.614 137.861 120.32C137.952 120.426 138.207 120.708 138.197 120.845C138.129 121.813 128.477 130.149 127.181 132.513C126.793 133.22 126.598 134.179 126.546 134.979C126.431 136.684 127.012 138.362 128.156 139.634C130.042 141.706 133.49 142.283 135.911 140.797C137.514 139.813 139.002 138.042 140.365 136.724C142.708 134.457 144.942 132.027 147.343 129.82C148.245 130.573 149.364 131.761 150.212 132.598C152.609 134.961 154.964 137.391 157.375 139.738C158.712 141.039 160.413 141.715 162.3 141.614C163.999 141.519 165.586 140.737 166.695 139.45C168.356 137.542 168.768 134.082 167.189 131.983C165.729 130.043 163.502 128.045 161.751 126.308C160.018 124.591 158.13 122.513 156.29 120.967C156.926 120.131 158.439 118.69 159.236 117.897L164.309 112.859C165.309 111.867 166.597 110.689 167.319 109.501C167.881 108.587 168.182 107.536 168.19 106.464C168.238 100.567 161.22 98.1689 157.375 102.003C154.1 105.269 150.522 108.606 147.395 111.993C144.182 108.843 140.746 105.18 137.48 102.181C137.967 101.431 138.912 100.287 139.479 99.5429C140.573 98.1211 141.608 96.6553 142.582 95.1494C148.61 85.7947 152.292 75.1318 153.318 64.0604Z" fill="#E6DECB"/>
</svg>
