<svg width="498" height="655" viewBox="0 0 498 655" fill="none" xmlns="http://www.w3.org/2000/svg">
<path d="M241.647 654.721C237.042 654.739 233.714 654.487 230.386 654.361C226.699 654.217 223.245 653.461 219.719 652.562C215.941 651.609 212.02 651.249 208.206 650.367C204.609 649.522 201.011 648.533 197.935 646.266C196.856 645.475 195.704 644.791 194.571 644.089C193.438 643.406 192.988 643.586 192.377 644.845C192.287 645.025 192.233 645.205 192.161 645.367C191.369 647.076 190.991 647.201 189.373 646.41C188.743 646.104 188.203 645.744 187.862 645.151C186.692 643.154 185.739 641.049 186.153 638.657C186.71 635.437 186.656 632.199 186.854 628.961C186.89 628.386 186.944 627.81 186.854 627.252C186.278 622.971 186.512 618.672 186.548 614.391C186.566 610.289 186.602 606.188 186.674 602.087C186.71 600.09 186.854 598.093 186.908 596.078C186.998 592.733 187.106 589.405 187.124 586.059C187.16 577.478 187.124 568.898 187.142 560.299C187.142 556.774 187.142 553.248 187.16 549.704C187.16 548.553 187.142 547.402 187.286 546.269C187.628 543.516 187.592 540.764 187.43 537.994C187.358 536.753 187.25 535.511 187.376 534.288C187.7 531.338 187.628 528.388 187.754 525.42C188.167 515.598 188.599 505.795 189.067 495.991C189.355 490.181 189.75 484.37 190.056 478.56C190.254 474.837 190.2 474.837 186.908 473.128C185.199 472.246 183.328 471.85 181.512 471.239C181.062 471.095 180.504 471.131 180.144 470.879C178.112 469.422 175.647 468.864 173.525 467.695C171.042 466.328 168.362 465.303 166.06 463.54C163.883 461.867 161.401 460.59 159.044 459.151C157.101 457.963 154.943 457.118 153.27 455.499C153.144 455.373 152.928 455.319 152.802 455.175C151.849 454.294 150.374 454.6 149.474 453.628C148.629 452.729 147.909 451.686 146.704 451.182C146.236 450.984 145.985 450.606 145.769 450.157C145.499 449.599 144.959 449.383 144.402 449.185C143.376 448.825 142.621 449.311 142.711 450.372C142.855 451.883 143.088 453.394 143.322 454.905C144.258 460.752 144.851 466.616 145.013 472.534C145.049 473.865 145.265 475.196 145.373 476.527C145.751 480.989 146.182 485.45 146.47 489.911C146.83 495.325 147.064 500.758 147.37 506.19C147.514 508.655 147.837 511.119 147.801 513.584C147.765 516.336 148.287 519.052 148.017 521.822C147.765 524.269 148.089 526.769 148.197 529.234C148.323 531.896 148.413 534.558 148.647 537.22C148.971 540.908 148.917 544.614 149.546 548.283C149.672 549.039 149.798 549.794 149.762 550.55C149.6 553.5 150.284 556.45 149.942 559.4C149.924 559.58 149.942 559.778 149.978 559.976C151.093 565.336 150.464 570.823 151.237 576.201C151.597 578.738 151.687 581.328 151.813 583.882C151.885 585.213 151.759 586.545 151.777 587.876C151.795 589.944 152.424 590.862 154.439 591.365C156.598 591.887 158.504 593.002 160.519 593.866C161.922 594.459 163.199 595.341 164.62 595.881C167.535 597.014 169.801 599.064 172.176 600.989C172.607 601.349 172.985 601.799 173.291 602.266C173.723 602.914 173.435 603.58 172.643 603.777C172.464 603.831 172.266 603.813 172.068 603.813C171.51 603.813 171.168 604.083 171.132 604.659C171.096 605.163 171.294 605.594 171.708 605.9C172.284 606.314 172.985 606.26 173.633 606.368C174.604 606.512 175.468 606.817 176.133 607.609C176.979 608.634 176.835 609.624 175.665 610.181C175.234 610.379 174.766 610.595 174.316 610.631C171.168 610.829 169.352 612.862 167.876 615.29C166.941 616.819 165.88 618.33 165.592 620.183C165.502 620.794 165.142 621.226 164.549 621.424C163.289 621.874 162.03 622.305 160.663 622.359C155.339 622.593 150.032 623.133 144.725 623.691C139.041 624.302 133.339 624.77 127.636 625.274C126.881 625.346 126.107 625.346 125.352 625.364C122.69 625.453 120.009 625.471 117.419 626.281C116.969 626.425 116.483 626.443 116.016 626.497C110.799 626.982 105.565 627.432 100.312 626.929C99.1966 626.821 98.2252 626.839 97.5777 627.936C97.2359 628.512 96.6603 628.529 96.0667 628.368C94.9334 628.062 93.98 627.63 93.3684 626.461C92.6129 625.022 91.7855 623.637 91.3898 622.036C90.5443 618.51 89.3931 615.074 88.9974 611.44C88.8894 610.415 88.5295 609.39 88.1878 608.4C87.3963 606.044 86.6768 603.688 86.2451 601.241C86.0292 600.018 85.7774 598.795 85.3817 597.625C84.3564 594.549 83.6728 591.365 82.8813 588.217C82.4675 586.563 81.9458 584.926 81.4961 583.271C81.1903 582.173 80.8307 581.076 80.6867 579.943C80.3989 577.658 79.7872 575.446 79.1936 573.251C78.2042 569.564 77.125 565.93 76.3875 562.17C75.8658 559.472 74.9843 556.828 74.2468 554.165C73.9949 553.248 73.6172 552.367 73.4014 551.431C72.376 546.88 71.4045 542.311 70.3612 537.76C69.7856 535.26 69.0841 532.777 68.4005 530.295C67.3392 526.535 66.242 522.776 65.5764 518.926C65.5764 518.836 65.5764 518.728 65.5224 518.638C63.7416 514.285 63.5077 509.518 61.9067 505.129C61.2592 503.33 60.8813 501.459 60.5036 499.589C59.838 496.423 59.0826 493.257 58.3091 490.109C57.1398 485.288 55.8627 480.503 54.7654 475.664C54.0279 472.408 53.3983 469.134 52.355 465.95C52.1212 465.231 52.0312 464.457 51.9053 463.702C51.5815 461.723 51.2397 459.762 50.5562 457.856C49.7467 455.589 49.6387 453.179 49.135 450.858C48.2536 446.667 47.4261 442.439 46.5986 438.23C45.8791 434.489 45.1235 430.747 44.5479 426.969C44.2781 425.225 43.6485 423.696 42.8211 422.185C40.1228 417.238 37.3706 412.327 34.9241 407.272C32.6036 402.469 30.6608 397.486 28.5382 392.594C27.6208 390.489 26.6675 388.42 26.2358 386.154C26.1459 385.686 26.002 385.218 25.8041 384.787C24.0772 381.045 22.9259 377.106 21.6307 373.22C20.4255 369.622 19.6519 365.863 18.6626 362.193C17.5653 358.056 17.0437 353.775 15.6046 349.709C14.975 347.928 14.8131 345.986 14.4893 344.097C13.482 338.179 12.4566 332.261 12.4206 326.216C12.4206 325.065 12.2947 323.932 12.2048 322.781C12.1508 322.115 12.025 321.45 12.0429 320.784C12.2228 314.2 11.3953 307.652 11.7191 301.069C11.845 298.514 11.7191 295.942 11.7911 293.37C11.917 289.07 12.2048 284.807 12.8883 280.562C13.5359 276.604 13.6078 272.593 14.5972 268.672C15.6045 264.696 16.4501 260.703 17.6373 256.763C18.3748 254.299 19.0943 251.834 19.9937 249.424C21.6126 245.143 23.3576 240.951 25.6601 236.958C28.916 231.346 32.5138 225.967 36.5611 220.894C37.6404 219.527 38.9536 218.448 40.1408 217.225C44.584 212.692 43.9542 214.221 43.8463 208.033C43.7744 203.554 43.2707 199.092 42.9829 194.631C42.839 192.545 42.6592 190.44 42.6592 188.353C42.6592 185.115 42.4433 181.878 42.3354 178.64C42.2094 174.34 41.6517 170.077 41.3459 165.814C41.166 163.242 41.0941 160.669 41.2021 158.097C41.328 154.841 41.0043 151.621 40.8424 148.383C40.7525 146.674 40.5904 144.965 40.4825 143.256C40.1767 138.31 39.8889 133.363 39.5831 128.416C39.3132 123.937 39.1514 119.458 38.7377 114.997C38.3959 111.291 38.2699 107.585 38.0181 103.88C37.9102 102.351 37.7304 100.84 37.6764 99.3107C37.4246 92.9249 37.2626 86.539 36.9568 80.1531C36.8309 77.3829 36.5431 74.6307 36.9028 71.8784C37.0647 70.5833 36.4711 69.6839 35.5357 68.9283C35.3198 68.7485 35.0682 68.5866 34.8163 68.4786C31.1287 67.0575 28.1245 64.4852 24.7967 62.4345C22.2783 60.8875 19.6879 59.4485 17.3314 57.6496C15.8744 56.5343 14.0755 55.9407 12.3666 55.527C9.68634 54.8974 9.00279 53.0266 8.55308 50.778C8.40918 50.0225 8.51725 49.303 8.93099 48.5835C9.6865 47.2703 10.3519 45.9032 11.0355 44.5541C11.3053 43.9964 11.7192 43.6726 12.3128 43.5107C13.4281 43.2049 14.5434 43.043 15.6946 42.9711C20.2637 42.6833 24.8147 42.3595 29.3838 42.0537C30.0494 42.0177 30.7329 41.8918 31.3805 41.9997C34.6184 42.4674 37.8563 41.9817 41.0943 42.0357C42.9111 42.0717 44.7097 42.2695 46.5266 42.3595C47.2821 42.3954 48.0556 42.3595 48.8111 42.3235C48.9191 42.3235 49.0451 42.0717 49.117 41.9098C49.135 41.8558 49.0629 41.7299 48.991 41.6579C48.8651 41.532 48.7212 41.3701 48.5593 41.2982C44.1701 38.9776 40.1229 36.0995 35.9136 33.4912C34.8523 32.8436 33.8269 32.1421 32.7116 31.6024C30.2112 30.3792 28.1246 28.5444 25.7501 27.1053C21.8286 24.7488 18.0151 22.2125 14.1117 19.838C11.9171 18.5068 9.86631 16.9239 7.50983 15.8266C6.39455 15.3049 5.31524 14.7113 4.12801 14.2976C1.64561 13.4341 -0.441047 10.0343 0.0806161 7.44398C0.440384 5.69911 1.10596 3.95423 1.87946 2.33528C2.61698 0.788273 4.01997 -0.129135 5.81881 0.014772C7.70759 0.158679 9.63241 0.104714 11.5032 0.626378C12.1508 0.806262 12.8704 0.878215 13.3921 1.23798C16.1083 3.12677 19.3462 3.79234 22.3503 4.94359C26.3617 6.4906 30.463 7.76777 34.4924 9.24282C38.342 10.6459 42.1195 12.2289 45.969 13.614C48.4694 14.5134 51.0777 15.179 53.5961 16.0424C55.5748 16.726 57.4636 17.7154 59.4603 18.273C62.5903 19.1364 65.4325 20.7734 68.6704 21.349C71.4946 21.8527 74.1029 23.1299 76.8012 24.0833C80.219 25.2885 83.5649 26.6556 86.9647 27.9148C89.4111 28.8322 91.4617 30.3972 93.6563 31.7463C94.7176 32.3939 95.7429 33.0775 96.7503 33.797C97.8655 34.5885 99.0889 35.1101 100.456 35.1461C101.805 35.1821 102.776 35.8297 103.73 36.6751C107.094 39.6432 110.475 42.5573 113.929 45.4175C116.34 47.4142 118.822 49.339 121.089 51.4976C124.632 54.8254 128.338 57.9914 131.738 61.4631C133.267 63.0281 135.048 64.3413 136.72 65.7624C137.008 66.0142 137.332 66.2301 137.566 66.5179C140.174 69.7018 143.448 72.2022 146.416 75.0264C152.568 80.8546 158.702 86.7009 164.89 92.5111C165.934 93.4825 167.175 94.238 168.254 95.1734C170.701 97.296 173.111 99.4726 175.54 101.613C178.616 104.33 181.692 107.028 184.768 109.726C186.261 111.039 187.754 112.388 189.265 113.683C192.539 116.454 195.848 119.188 199.122 121.958C199.914 122.642 200.669 123.379 201.425 124.099C203.044 125.7 204.753 127.211 206.606 128.578C209.196 130.503 211.624 132.661 214.035 134.82C214.898 135.575 215.726 136.349 216.679 136.996C218.1 137.95 219.503 138.957 220.654 140.252C222.255 142.069 224.396 143.184 226.195 144.749C230.512 148.491 234.919 152.143 239.398 155.686C243.356 158.816 247.169 162.126 251.091 165.31C253.969 167.649 256.937 169.897 259.833 172.236C261.614 173.675 263.305 175.222 265.05 176.679C266.147 177.596 267.28 178.46 268.396 179.341C271.292 181.68 274.188 184.018 277.066 186.357C277.516 186.716 277.983 187.058 278.343 187.508C279.62 189.073 281.149 190.386 282.75 191.573C285.682 193.75 288.021 196.52 290.557 199.092C291.151 199.704 291.762 200.37 292.518 200.747C294.695 201.863 296.242 203.697 298.041 205.244C299.623 206.612 301.242 207.961 302.753 209.4C304.768 211.289 306.729 213.231 308.672 215.192C313.493 220.085 318.223 225.068 322.703 230.266C323.512 231.202 324.232 232.209 324.933 233.234C325.689 234.368 325.815 235.465 324.717 236.58C323.908 237.39 323.998 237.48 324.789 238.667C325.419 239.62 325.401 240.124 324.376 240.43C322.163 241.113 321.515 243.092 320.472 244.765C320.148 245.287 320.292 245.898 320.652 246.384C320.922 246.78 321.209 247.175 321.569 247.463C322.81 248.489 324.286 249.19 325.455 250.341C325.923 250.809 326.696 250.791 327.361 250.809C332.524 250.917 337.615 251.69 342.706 252.41C351.304 253.633 359.831 255.324 368.033 258.274C373.502 260.235 378.88 262.466 384.169 264.912C390.411 267.808 396.347 271.19 402.121 274.931C405.881 277.36 409.587 279.86 413.202 282.523C417.502 285.689 421.567 289.16 425.488 292.758C429.698 296.626 433.709 300.709 437.612 304.882C440.023 307.455 442.163 310.261 444.304 313.067C447.776 317.618 451.248 322.169 454.378 326.954C456.572 330.3 458.623 333.736 460.656 337.189C464.056 342.964 466.736 349.08 469.866 354.962C471.341 357.732 472.546 360.664 473.679 363.596C475.28 367.77 476.701 372.033 478.23 376.242C478.716 377.573 479.381 378.868 479.813 380.218C482.368 388.007 484.976 395.778 487.386 403.603C488.592 407.506 489.833 411.409 490.732 415.403C491.542 419.019 492.279 422.652 492.981 426.286C493.269 427.779 493.718 429.254 494.024 430.747C494.42 432.708 494.294 434.722 494.438 436.719C494.582 438.698 495.517 440.515 495.805 442.529C496.506 447.332 496.992 452.171 497.316 457.01C497.514 459.834 497.712 462.676 497.676 465.537C497.64 468.091 497.838 470.663 497.928 473.236C498.036 475.97 498.108 478.758 497.496 481.474C497.244 482.626 497.226 483.723 497.37 484.874C497.73 487.914 497.514 490.972 497.172 493.994C496.83 497.034 496.686 500.074 496.003 503.06C495.859 503.69 496.003 504.392 495.967 505.057C495.931 506.766 495.787 508.457 495.229 510.13C494.834 511.299 494.672 512.54 494.456 513.763C494.024 516.3 493.646 518.836 493.179 521.373C492.891 522.866 492.531 524.341 492.081 525.798C490.75 530.061 490.103 534.54 488.376 538.695C487.872 539.919 487.584 541.25 487.26 542.545C486.721 544.578 486.073 546.556 485.156 548.463C484.616 549.578 484.328 550.784 483.879 551.953C480.91 559.814 477.295 567.369 473.086 574.636C472.132 576.291 471.143 577.928 470.01 579.457C466.844 583.756 463.875 588.181 460.494 592.337C457.436 596.096 454.54 600.018 452.003 604.191C451.212 605.486 450.276 606.71 449.413 607.969C448.729 608.922 447.902 609.696 446.715 609.965C445.294 610.271 444.412 611.243 443.639 612.358C442.721 613.689 441.804 615.038 440.85 616.333C439.825 617.718 438.764 618.996 436.983 619.589C435.616 620.039 434.626 621.19 433.637 622.216C432.468 623.385 431.119 624.158 429.608 624.824C425.039 626.875 420.2 627.792 415.325 628.763C411.439 629.537 407.572 629.627 403.668 629.555C402.625 629.537 401.564 629.591 400.52 629.591C399.855 629.591 399.153 629.663 398.542 629.465C394.692 628.278 390.627 628.35 386.723 627.396C385.986 627.216 385.248 627.054 384.457 627.18C384.025 627.234 383.432 627.18 383.108 626.911C381.902 625.957 380.481 625.921 379.06 625.759C377.244 625.543 375.57 625.058 373.951 624.104C372.153 623.043 370.156 622.323 368.249 621.46C364.67 619.841 362.871 617.017 362.727 613.167C362.691 612.088 362.511 611.081 362.061 610.127C360.19 606.062 359.705 601.691 359.363 597.32C359.147 594.441 359.759 591.617 359.974 588.775C360.442 582.659 362.061 576.777 363.77 570.913C364.867 567.153 366.199 563.483 368.015 560.012C369.437 557.313 370.354 554.363 371.937 551.755C372.728 550.46 373.502 549.129 374.311 547.851C374.923 546.88 375.606 545.981 376.02 544.883C376.434 543.804 377.279 542.977 377.945 542.059C379.186 540.368 380.427 538.659 381.525 536.897C382.334 535.601 382.082 534.954 380.679 534.144C378.521 532.903 376.668 531.23 374.779 529.629C372.315 527.543 370.066 525.204 367.71 522.956C366.882 522.164 366.037 521.391 365.245 520.563C364.454 519.736 363.68 518.89 362.979 518.009C361.558 516.21 360.226 514.357 358.787 512.576C356.197 509.374 353.84 506.046 351.97 502.377C351.016 500.506 349.937 498.707 348.912 496.872C347.239 493.85 346.034 490.648 344.882 487.41C344.019 484.982 343.227 482.536 342.526 480.071C341.375 476.024 340.799 471.851 340.565 467.659C340.421 465.105 339.936 465.285 338.083 466.418C337.759 466.616 337.435 466.832 337.147 467.084C332.524 471.041 327.056 473.577 321.551 475.97C319.465 476.887 317.45 478.021 315.184 478.488C314.734 478.578 314.302 478.866 313.888 479.082C313.043 479.514 312.611 480.197 312.575 481.133C312.575 481.33 312.539 481.51 312.575 481.708C313.241 486.691 311.874 491.566 311.838 496.513C311.838 498.204 311.244 499.876 310.974 501.585C310.344 505.345 309.643 509.069 308.726 512.792C307.143 519.178 305.721 525.6 303.761 531.878C302.879 534.684 302.07 537.544 300.793 540.224C300.667 540.476 300.523 540.728 300.451 541.016C299.551 544.829 297.807 548.337 296.385 551.953C294.964 555.586 293.4 559.166 291.565 562.638C290.989 563.735 290.647 564.94 290.09 566.038C288.489 569.186 286.87 572.316 285.197 575.41C283.794 578 282.445 580.626 280.952 583.181C278.703 587.066 276.005 590.646 273.396 594.28C271.561 596.816 269.331 599.064 267.208 601.403C266.165 602.554 265.427 603.867 264.87 605.306C264.582 606.062 264.816 606.656 265.535 606.943C266.237 607.231 266.993 607.411 267.712 607.627C268.719 607.933 269.727 608.203 270.716 608.544C275.303 610.145 279.872 611.782 284.459 613.401C286.366 614.067 288.183 614.876 289.676 616.315C290.395 616.999 291.223 617.413 292.176 617.61C293.435 617.88 294.461 618.564 295.396 619.391C297.753 621.46 298.382 624.986 296.763 627.702C295.108 630.472 292.968 632.703 290.234 634.376C289.586 634.771 288.92 635.149 288.273 635.563C287.625 635.977 287.068 636.498 286.744 637.218C284.855 641.679 281.347 644.503 277.192 646.644C274.925 647.813 272.551 648.82 270.213 649.864C269.691 650.098 269.151 650.367 268.594 650.403C265.428 650.673 262.477 651.842 259.419 652.544C253.088 654.001 246.72 655.26 241.431 654.757L241.647 654.721ZM101.913 273.852C100.978 274.626 100.978 274.716 101.913 275.561C101.805 275.903 101.517 276.281 101.949 276.586C102.255 276.802 102.633 276.946 102.489 277.432C101.949 279.159 102.686 280.634 103.532 282.001C105.798 285.707 108.623 288.873 112.328 291.229C113.965 292.272 115.728 292.92 117.509 293.621C121.556 295.24 125.694 296.14 130.065 295.564C130.91 295.456 131.774 295.456 132.637 295.438C133.986 295.438 135.299 295.204 136.559 294.755C138.627 294.035 140.732 293.46 142.891 293.01C144.851 292.614 146.65 291.859 148.359 290.707C150.5 289.268 152.622 287.847 154.619 286.21C155.788 285.239 157.173 284.591 158.217 283.404C161.652 279.501 163.703 274.967 164.674 269.895C164.926 268.546 164.729 267.286 164.063 266.027C163.343 264.678 162.696 263.293 162.39 261.782C162.246 261.062 162.354 260.433 162.894 259.947C164.171 258.814 165.358 257.573 166.923 256.799C168.542 255.99 170.089 255.036 171.654 254.137C175 252.194 177.896 249.784 179.641 246.204C180.522 244.405 181.548 242.696 182.483 240.933C184.929 236.382 186.296 231.723 185.505 226.399C184.803 221.668 183.238 217.387 180.81 213.339C178.867 210.101 176.223 207.529 173.489 204.993C170.503 202.222 166.923 201.413 163.164 201.935C160.429 202.312 157.695 202.6 154.961 202.906C152.119 203.23 149.33 204.129 146.47 203.949C144.258 203.823 142.099 204.093 139.922 204.255C138.124 204.381 136.307 204.471 134.508 204.579C132.709 204.687 130.892 204.813 129.093 204.921C127.474 205.029 125.874 205.208 124.237 205.011C120.243 204.507 116.25 204.939 112.238 204.813C110.367 204.759 108.461 205.244 106.572 205.496C105.906 205.586 105.223 205.82 104.611 205.694C103.442 205.478 102.363 205.496 101.247 205.91C100.726 206.09 100.114 206.036 99.5566 206.072C98.0275 206.144 96.5164 206.198 94.9874 206.252C92.0373 206.342 89.3751 207.133 87.1805 209.22C86.2811 210.065 85.2916 210.821 84.3202 211.594C83.3848 212.314 82.6833 213.177 82.2875 214.293C82.0357 215.012 81.748 215.732 81.1184 216.217C79.8233 217.207 79.3016 218.61 78.8519 220.103C78.4921 221.29 78.0424 222.441 77.7186 223.629C77.4128 224.726 77.089 225.841 76.999 226.974C76.7292 230.968 76.7472 234.997 77.1789 238.973C77.3947 241.041 77.8805 243.128 78.582 245.089C79.9132 248.866 81.694 252.464 83.9785 255.756C84.2664 256.17 84.5722 256.511 85.1298 256.439C85.5256 256.385 85.8673 256.457 86.2091 256.691C88.2778 258.112 90.5623 258.976 92.9907 259.587C94.2859 259.911 95.5271 260.433 96.7503 260.954C99.2327 262.016 99.8982 263.149 99.8622 265.811C99.8622 266.783 99.4486 267.718 99.4845 268.618C99.5745 270.632 99.4845 272.845 101.913 273.834V273.852Z" fill="#E6DECB"/>
<path d="M104.323 239.945C100.581 239.873 97.2897 237.246 96.1924 233.505C94.3576 227.227 99.736 221.992 104.827 222.172C106.734 222.244 108.604 222.496 110.421 223.125C113.803 224.259 114.756 227.533 113.983 230.501C113.245 233.307 111.68 235.627 109.648 237.714C108.137 239.261 106.446 240.016 104.341 239.945H104.323Z" fill="#E6DECB"/>
<path d="M150.95 226.237C151.004 222.621 153.504 219.671 157.066 219.078C157.821 218.952 158.559 218.808 159.314 218.736C162.552 218.358 165.34 219.401 167.607 221.686C169.765 223.845 169.981 226.291 168.344 228.917C166.815 231.382 164.909 233.45 162.174 234.638C160.699 235.285 159.224 235.393 157.731 234.854C153.684 233.36 150.878 230.159 150.95 226.255V226.237Z" fill="#E6DECB"/>
</svg>
