<svg width="175" height="183" viewBox="0 0 175 183" fill="none" xmlns="http://www.w3.org/2000/svg">
<path d="M53.0601 0.0328898C59.5554 -0.190289 66.0395 0.723716 72.2159 2.73309C86.1287 7.29832 97.6381 17.1806 104.201 30.1956C115.456 52.5788 109.966 79.6976 90.8745 96.0157C88.8611 97.7249 86.7289 99.2916 84.4947 100.704C81.3468 102.706 77.9032 103.75 75.9257 106.804C73.6585 110.303 74.3208 113.773 73.8378 117.695C73.5397 120.1 73.0002 122.468 72.2276 124.766C69.0577 134.198 62.2072 141.969 53.2147 146.334C48.8942 148.54 43.4691 149.795 38.6387 149.964C28.9874 150.392 19.5677 146.952 12.4929 140.415C4.85306 133.419 0.370664 123.66 0.0568439 113.341C-0.0545358 109.941 0.0321604 106.117 0.0318436 102.69L0.0292123 82.6342L0.0282004 64.7572C0.0281652 56.7912 -0.244419 50.2909 1.65735 42.4581C7.44751 18.61 28.0888 0.84734 53.0601 0.0328898ZM50.4208 18.9236C42.4138 19.2237 34.6898 20.9154 29.0856 27.0138C23.7271 32.9091 22.2322 40.3599 25.8768 47.5332C28.6394 52.9705 33.2169 57.6995 32.9758 64.0697C32.7952 68.8385 28.4672 70.0191 24.7918 71.6844C17.3838 75.0409 15.4234 85.1702 21.6095 90.6537C23.9951 92.7834 27.1379 93.8781 30.3398 93.6953C31.1656 93.6446 32.4554 93.5021 33.0527 92.8691C33.7612 92.1417 33.7585 90.6161 32.9005 90.0015C31.8095 89.2216 30.1221 89.873 28.8039 89.699C22.6553 88.885 19.9927 82.7083 23.5075 77.6693C25.014 75.5097 27.6936 74.8581 29.942 73.7373C35.5063 71.2322 37.6337 67.1608 36.8353 61.1692C36.4846 58.5698 35.4893 56.1223 34.2394 53.8349C31.3771 48.5964 26.6729 43.5794 28.118 37.1446C30.0213 28.6699 37.5441 24.4403 45.614 23.2603C47.8637 22.9488 50.1346 22.8144 52.4056 22.8579C54.8586 22.971 56.997 23.1503 59.4496 23.4398C76.6238 25.4482 94.4472 37.7678 93.7019 56.6086C93.4484 63.017 90.1564 69.6019 87.0105 74.6231C83.4178 80.3569 80.1244 84.5783 73.4973 86.2342C71.6658 87.3104 72.7301 90.2008 74.7514 89.8598C83.1924 88.4382 87.6441 81.0574 91.677 74.6607C101.379 59.272 99.3936 41.8201 85.1461 29.9779C75.9702 22.3514 62.5203 18.4321 50.4208 18.9236ZM19.8685 105.636C19.1561 105.983 18.799 106.208 18.507 107.007C18.1348 108.027 18.5932 110.647 18.9573 111.617C20.0477 115.627 23.0085 119.072 26.608 121.116C29.9809 123.043 33.9927 123.541 37.7391 122.497C44.8867 120.511 50.0184 113.445 49.2698 106.108C48.956 103.034 48.1457 99.6431 48.8424 96.5953C49.6142 93.8151 53.4435 91.3496 55.4654 89.2137C64.9077 79.2363 62.8716 62.3376 50.4334 55.807C47.9721 54.521 43.6488 52.8464 40.8588 53.1508C38.9605 54.0588 38.9878 56.5074 41.105 56.9878C42.1676 57.2236 43.2017 57.3121 44.2612 57.5924C54.0015 60.173 59.2327 69.3174 56.6788 78.982C55.3619 83.9653 52.6527 86.583 48.9129 89.9044C46.5639 91.9905 44.9736 93.9786 44.6202 97.1619C43.9483 103.214 47.1843 108.13 43.3862 113.715C42.3013 115.294 40.8758 116.613 39.2131 117.576C32.0528 121.71 23.4718 116.571 22.4696 108.674C22.205 106.589 22.3776 105.745 19.8685 105.636Z" fill="#E6DECB"/>
<path d="M120.979 83.0794C123.892 82.923 127.768 83.0458 130.752 83.0459L149.325 83.0444L162.552 83.0457C164.257 83.0461 167.768 82.9477 169.344 83.1115C170.486 83.2262 171.575 83.6551 172.497 84.3532C173.834 85.3744 174.716 86.9026 174.943 88.5965C175.17 90.3003 174.715 92.0256 173.681 93.38C172.52 94.9288 170.976 95.6642 169.124 95.907C166.138 96.0852 162.117 95.9527 159.034 95.9518L140.242 95.9527H127.279C126.539 95.9527 125.79 95.9697 125.05 95.9535C122.228 95.8891 119.694 96.3862 117.325 94.4585C116.034 93.4194 115.209 91.8876 115.04 90.2134C114.644 86.298 117.242 83.4389 120.979 83.0794ZM167.477 91.7532C168.413 91.7515 169.688 91.8455 170.325 91.0832C171.675 89.4681 170.832 87.2959 168.698 87.2421C166.764 87.1937 164.944 87.2009 163.058 87.2027L152.727 87.2081L122.608 87.209C121.002 87.2305 118.97 87.1696 119.017 89.5398C119.025 90.1561 119.286 90.741 119.736 91.1522C120.145 91.5212 120.674 91.6986 121.209 91.721C122.932 91.7953 124.728 91.7613 126.454 91.7577L136.172 91.7497L167.477 91.7532Z" fill="#E6DECB"/>
<path d="M112.861 105.002C116.247 104.925 117.565 106.707 119.78 108.931C120.844 109.999 121.934 111.088 123.002 112.155L134.65 123.801L145.968 135.114L149.466 138.608C151.143 140.285 152.685 141.546 152.96 144.055C153.152 145.73 152.652 147.41 151.577 148.709C150.383 150.154 148.941 150.807 147.116 150.994C143.998 151.115 142.502 149.383 140.496 147.324C139.559 146.362 138.571 145.391 137.621 144.438L126.655 133.465L114.222 121.028L110.404 117.208C108.751 115.557 107.361 114.469 107.05 112.019C106.838 110.354 107.302 108.673 108.336 107.352C109.559 105.793 110.96 105.223 112.861 105.002ZM147.28 146.914C148.543 146.558 149.313 145.269 148.869 143.996C148.728 143.595 148.104 143.003 147.822 142.672C145.76 140.587 143.672 138.517 141.599 136.442L129.97 124.794L120.306 115.129C118.502 113.322 116.709 111.503 114.878 109.724C114.146 109.012 113.606 109.042 112.655 109.082C111.968 109.302 111.552 109.615 111.227 110.287C110.961 110.84 110.933 111.477 111.151 112.051C111.401 112.719 117.64 118.797 118.479 119.636L130.6 131.754L140.081 141.242C141.722 142.883 143.357 144.532 145.014 146.157C145.718 146.847 146.301 147.045 147.28 146.914Z" fill="#E6DECB"/>
<path d="M91.5423 122.664C94.5358 124.302 94.7875 126.52 95.6004 129.576C95.9909 131.042 96.3932 132.541 96.7879 134.01L101.085 150.034L105.261 165.602L106.553 170.412C107.172 172.719 107.883 174.595 106.858 176.923C106.183 178.48 104.9 179.694 103.309 180.285C101.54 180.944 99.9525 180.788 98.2664 180.031C95.4853 178.566 95.0521 176.302 94.3395 173.496C94.0062 172.185 93.6336 170.84 93.2841 169.531L89.244 154.436L84.6596 137.327L83.2522 132.072C82.6425 129.799 81.9769 128.15 82.9402 125.856C83.5937 124.298 84.8446 123.065 86.4121 122.434C88.2634 121.69 89.773 121.899 91.5423 122.664ZM100.464 176.555C101.746 176.881 103.066 176.144 103.319 174.81C103.399 174.39 103.152 173.559 103.073 173.129C102.324 170.271 101.545 167.414 100.782 164.56L96.5015 148.543L92.9384 135.246C92.2741 132.762 91.6263 130.272 90.9248 127.798C90.6447 126.808 90.1584 126.562 89.3084 126.118C88.5983 125.964 88.0778 126.027 87.4555 126.45C86.945 126.798 86.6001 127.34 86.5013 127.95C86.3832 128.659 88.7652 137.102 89.0748 138.257L93.5465 154.932L97.0402 167.982C97.6452 170.24 98.2414 172.501 98.8681 174.754C99.1346 175.71 99.5437 176.176 100.464 176.555Z" fill="#E6DECB"/>
</svg>
