<svg width="565" height="560" viewBox="0 0 565 560" fill="none" xmlns="http://www.w3.org/2000/svg">
<path d="M432.359 146.884C433.433 147.808 434.575 148.429 435.818 148.9C436.809 149.286 437.816 149.639 438.807 150.042C440.066 150.563 441.309 151.084 441.443 152.73C442.367 153.536 442.568 154.729 443.089 155.737C443.811 157.181 443.811 158.643 443.021 160.087C442.518 161.028 442.115 162.019 441.544 162.909C440.922 163.884 440.318 164.069 439.26 163.632C438.001 163.111 436.741 162.909 435.381 162.893C434.239 162.893 433.131 162.624 432.006 162.288C427.657 161.045 423.258 159.953 418.858 158.844C417.901 158.609 416.977 158.324 416.054 158.055C414.19 157.517 412.242 157.198 410.345 156.795C409.74 156.661 409.119 156.577 408.531 156.375C407.255 155.938 405.996 155.72 404.619 155.972C403.309 156.19 401.899 156.157 400.656 155.669C399.413 155.199 398.221 155.317 396.979 155.35C396.089 155.384 395.148 155.569 394.325 155.333C392.445 154.796 390.631 155.132 388.801 155.468C387.558 155.686 386.349 155.737 385.107 155.434C383.293 154.981 381.429 155.115 379.582 155.065C378.155 155.031 376.728 155.065 375.384 154.51C373.974 153.939 372.362 154.107 371.035 153.284C369.272 153.452 367.442 153.418 366.233 155.048C365.863 155.552 365.578 156.106 365.276 156.66C363.798 159.415 362.069 161.985 360.07 164.388C358.593 166.151 357.451 168.184 356.158 170.116C355.906 170.502 356.175 170.939 356.779 171.023C358.895 171.325 361.011 171.594 363.126 171.863C365.763 172.199 368.416 172.4 371.086 172.434C373.017 172.451 374.948 172.955 376.896 173.156C378.474 173.324 380.086 173.509 381.681 173.224C382.034 173.156 382.387 173.14 382.739 173.19C388.935 173.862 395.165 174.064 401.328 174.954C403.343 175.256 405.391 175.307 407.44 175.407C411.604 175.626 415.768 176.096 419.933 176.432C420.823 176.499 421.713 176.583 422.603 176.516C424.215 176.398 425.793 176.516 427.372 176.852C427.892 176.97 428.446 177.138 428.95 177.037C431.385 176.583 433.736 177.322 436.12 177.44C441.729 177.725 447.253 178.733 452.828 179.17C456.253 179.439 459.679 179.993 463.172 179.809C465.354 179.691 467.588 179.926 469.788 180.262C471.551 180.531 473.331 180.598 475.111 180.749C480.433 181.203 485.74 181.707 491.063 182.093C494.354 182.328 497.595 182.815 500.869 183.118C504.412 183.437 507.972 183.571 511.515 183.773C516.233 184.042 520.935 184.361 525.62 184.915C526.51 185.016 527.35 185.301 528.156 185.705C528.743 185.99 529.264 186.343 529.398 187.015C529.549 187.754 530.053 188.258 530.406 188.863C531.161 190.156 532.169 191.332 532.488 192.878C532.572 193.297 532.857 193.684 533.109 194.053C534.721 196.506 536.031 199.127 537.374 201.747C538.214 203.41 539.205 205.006 540.128 206.635C540.481 207.257 540.917 207.845 541.169 208.5C542.311 211.591 544.125 214.379 545.367 217.403C546.627 220.444 547.819 223.518 548.944 226.608C549.397 227.851 549.565 229.195 549.951 230.472C551.278 234.907 552.671 239.325 553.998 243.743C554.519 245.456 554.653 247.253 555.14 248.95C555.845 251.335 556.382 253.771 557.121 256.156C557.424 257.097 557.591 258.055 557.759 259.012C558.263 261.818 558.901 264.589 559.355 267.395C560.11 271.964 561.017 276.499 561.302 281.135C561.37 282.295 561.554 283.42 561.756 284.562C562.26 287.452 562.747 290.341 562.881 293.281C562.965 295.229 563.284 297.178 563.469 299.126C563.804 302.755 564.107 306.383 564.426 310.012C565.198 318.898 564.997 327.801 564.913 336.721C564.879 339.745 564.342 342.752 564.493 345.792C564.745 350.983 564.006 356.089 563.452 361.213C563.2 363.514 563.049 365.816 562.914 368.117C562.763 370.788 562.293 373.408 561.924 376.046C561.621 378.162 561.353 380.279 561 382.379C560.564 385.1 560.043 387.804 559.573 390.509C559.405 391.466 559.304 392.441 559.203 393.415C558.968 395.8 558.834 398.203 558.532 400.588C558.28 402.537 557.726 404.452 556.735 406.148C555.543 408.181 554.905 410.381 554.384 412.649C553.713 415.589 552.772 418.461 551.782 421.334C551.295 422.762 550.959 424.257 550.405 425.651C548.591 430.287 546.929 434.974 544.679 439.459C543.083 442.634 541.841 445.994 540.111 449.101C538.214 452.511 536.132 455.854 534.117 459.197C533.613 460.037 532.975 460.793 532.505 461.65C531.077 464.152 529.213 466.269 527.047 468.15C526.51 468.604 525.989 469.142 525.654 469.763C523.991 472.804 521.405 474.987 518.903 477.255C518.316 477.793 517.694 478.297 517.157 478.901C516.385 479.775 516.334 480.363 517.107 481.27C518.5 482.899 519.709 484.663 520.801 486.494C522.295 488.997 524.226 491.248 525.318 494.02C525.855 495.397 526.04 496.758 525.721 498.186C525.335 499.966 524.075 501.226 522.211 501.209C521.103 501.209 520.297 501.562 519.592 502.251C517.711 504.031 515.528 505.409 513.362 506.803C511.196 508.214 509.181 509.827 507.015 511.221C503.22 513.64 499.341 515.958 495.496 518.327C495.277 518.461 495.025 518.68 494.79 518.68C493.162 518.713 491.986 519.704 490.727 520.527C490.357 520.763 489.988 521.031 489.568 521.183C486.025 522.51 482.935 524.593 479.963 526.877C479.46 527.263 478.905 527.532 478.318 527.734C477.042 528.187 476.269 529.094 475.816 530.321C475.497 531.161 475.144 531.967 474.808 532.79C472.928 537.594 470.946 542.365 469.2 547.22C468.142 550.143 466.799 552.965 466.228 556.073C465.959 557.484 465.338 558.777 464.078 559.651C463.239 560.222 462.567 560.104 462.08 559.214C461.543 558.189 461.073 557.131 460.535 556.106C460.166 555.401 459.746 554.712 459.309 554.04C458.957 553.469 458.503 553.2 457.748 553.385C456.253 553.721 455.363 552.814 454.876 551.571C454.188 549.84 453.634 548.043 453.013 546.279C452.626 545.187 452.274 544.079 451.854 543.003C451.619 542.399 451.014 542.281 450.561 542.718C450.04 543.205 449.587 543.759 449.083 544.263C448.126 545.238 447.119 546.078 445.607 545.893C445.07 545.826 444.533 545.977 444.113 546.346C442.837 547.455 441.292 548.228 440.301 549.672C440.049 550.025 439.73 550.361 439.378 550.63C438.185 551.503 437.027 551.251 436.204 550.025C435.6 549.135 435.364 548.093 434.693 547.22C433.836 546.094 432.98 545.288 431.452 545.17C430.109 545.07 429.773 544.549 429.941 543.188C430.176 541.34 430.545 539.509 430.864 537.662C430.965 537.057 431.284 536.469 430.948 535.831C430.226 535.579 429.504 535.78 428.916 536.083C426.817 537.141 424.534 537.561 422.317 538.216C419.513 539.039 416.558 539.257 413.636 539.425C413.199 539.442 412.746 539.375 412.309 539.308C411.755 539.224 411.268 538.955 411.084 538.401C410.597 536.855 409.371 535.747 408.8 534.201C408.363 533.008 407.238 532.068 406.382 531.043C405.945 530.506 405.307 530.455 404.669 530.556C403.947 530.674 403.259 530.657 402.604 530.27C401.512 529.632 401.277 528.49 402.1 527.583C402.402 527.263 402.755 526.961 403.124 526.743C405.845 525.147 407.977 522.862 410.227 520.729C412.494 518.596 414.845 516.58 417.448 514.85C419.362 513.573 421.041 511.944 422.871 510.532C425.054 508.836 427.103 506.988 429 504.972C429.974 503.931 430.999 502.956 432.208 502.167C432.862 501.73 433.417 501.109 433.988 500.554C436.523 498.051 439.008 495.498 441.561 493.029C442.77 491.853 444.113 490.828 445.389 489.719C445.641 489.501 445.859 489.215 446.061 488.98C445.893 488.392 445.49 488.544 445.171 488.577C441.712 488.863 438.269 489.182 434.81 489.417C433.752 489.484 432.661 489.215 431.637 489.367C428.732 489.753 425.76 489.467 422.888 490.19C422.72 490.24 422.536 490.24 422.351 490.24C418.186 490.391 414.005 490.643 409.841 490.677C407.792 490.677 405.811 491.298 403.762 491.214C402.973 491.181 402.167 491.248 401.361 491.214C399.245 491.13 397.13 491.063 395.031 491.584C394.527 491.718 393.956 491.769 393.452 491.702C391.656 491.466 389.892 491.702 388.146 491.97C387.357 492.088 386.568 492.122 385.762 492.088C384.166 492.038 382.571 491.954 381.026 492.542C380.623 492.693 380.153 492.726 379.717 492.709C375.804 492.525 371.908 492.911 367.996 493.18C364.722 493.415 361.464 493.785 358.173 493.516C357.3 493.449 356.41 493.617 355.52 493.701C354.63 493.785 353.757 493.986 352.867 494.003C349.122 494.07 345.445 494.675 341.734 495.011C340.76 495.095 339.769 495.095 338.795 495.112C336.831 495.145 334.883 495.112 332.968 495.716C332.481 495.868 331.911 495.884 331.39 495.8C329.694 495.565 328.015 495.7 326.336 495.834C325.983 495.868 325.58 495.784 325.278 495.918C322.558 497.043 319.653 496.691 316.848 496.959C314.917 497.144 312.986 497.447 311.022 497.463C309.964 497.463 308.906 497.581 307.865 497.396C306.236 497.111 304.674 497.665 303.079 497.699C300.141 497.749 297.202 497.766 294.28 498.001C288.252 498.488 282.207 498.522 276.179 498.841C272.35 499.042 268.572 499.546 264.744 499.681C263.686 499.714 262.645 500.033 261.587 500.168C260.445 500.302 259.286 500.47 258.144 500.403C254.836 500.218 251.596 500.621 248.355 501.209C247.75 501.31 247.112 501.478 246.508 501.428C244.577 501.243 242.629 502.033 240.698 501.361C240.614 501.327 240.513 501.327 240.429 501.361C236.953 502.066 233.36 501.293 229.867 502.117C229.044 502.318 228.104 501.932 227.248 502.016C223.705 502.385 220.145 502.15 216.585 502.234C211.245 502.352 205.922 502.906 200.599 502.755C198.198 502.688 195.814 503.141 193.412 502.822C192.203 502.654 190.91 503.158 189.701 503.007C187.267 502.688 184.932 503.158 182.548 503.376C179.727 503.628 176.872 503.628 174.035 503.78C170.307 503.981 166.579 504.25 162.868 504.451C161.374 504.535 159.862 504.703 158.351 504.351C157.68 504.183 156.941 504.216 156.235 504.25C155.178 504.3 154.12 504.435 153.045 504.25C152.155 504.099 151.282 504.317 150.409 504.502C148.494 504.939 146.563 505.107 144.599 504.972C143.977 504.939 143.356 504.972 142.735 505.039C139.998 505.275 137.261 505.728 134.507 505.745C131.669 505.762 128.882 506.333 126.027 506.282C123.575 506.249 121.057 506.383 118.588 506.635C116.372 506.854 114.155 506.585 111.956 506.904C109.235 507.29 106.498 507.122 103.761 507.374C100.504 507.677 97.2293 507.996 93.9213 508.013C90.3782 508.03 86.8184 508.416 83.2753 508.718C81.5794 508.869 79.9002 508.668 78.2042 508.668C77.5829 508.668 76.928 508.567 76.3571 508.735C73.9223 509.457 71.4875 509.558 68.9856 509.037C68.3811 508.92 67.743 508.937 67.1217 508.987C65.4257 509.172 63.7465 509.121 62.0506 508.953C61.1606 508.869 60.3042 509.054 59.4311 509.172C57.4161 509.424 55.3507 509.441 53.3189 509.457C51.6229 509.457 49.9437 509.306 48.2478 509.273C46.2663 509.239 44.3521 509.441 42.7737 511.087C41.7829 509.827 40.5571 508.886 39.9023 507.509C38.9955 505.594 37.2156 504.451 35.9226 502.889C35.5196 502.402 34.9151 502.654 34.4282 502.486C33.4207 502.116 33.068 501.176 33.7733 500.369C35.8555 498.051 36.8798 495.263 37.8369 492.373C38.4246 490.61 38.9116 488.829 39.3481 487.015C39.7679 485.302 40.5404 483.689 41.1617 482.043C41.3967 481.421 41.8501 481.001 42.4882 480.816C42.992 480.665 43.5293 480.615 44.0498 480.514C46.0816 480.128 47.5593 480.581 48.6172 482.647C49.4232 484.21 50.4475 485.688 51.1359 487.334C52.0931 489.619 52.6808 489.82 55.0148 488.796C56.2406 488.258 57.4832 487.771 58.709 487.25C59.2128 487.032 59.7165 486.948 60.2539 486.914C61.4293 486.83 61.8491 486.444 61.933 485.352C61.9834 484.646 62.0338 483.907 61.8827 483.219C61.4629 481.287 61.7651 479.321 61.5132 477.389C61.4629 476.936 61.4797 476.499 61.7651 476.113C62.2353 475.458 62.5879 474.735 62.7894 473.963C63.0413 473.005 63.8137 472.804 64.6365 472.736C65.3921 472.669 66.047 472.904 66.4332 473.627C66.5675 473.862 66.7355 474.08 66.8194 474.332C67.3736 475.911 68.5322 476.734 70.0938 477.154C71.0509 477.406 71.9073 477.91 72.5622 478.683C73.8048 480.144 75.7358 480.212 77.2807 481.051C77.5326 481.186 77.9691 481.051 78.2882 480.934C80.236 480.312 82.1671 479.674 84.0981 479.036C84.1821 479.002 84.2828 478.985 84.3332 478.935C86.5497 477.154 89.3707 476.768 91.9063 475.726C94.4586 474.685 97.0278 473.677 99.5801 472.636C100.319 472.333 101.075 472.048 101.797 471.695C102.922 471.14 104.03 470.637 105.273 470.385C107.052 470.015 108.228 468.906 108.849 467.143C109.42 465.513 109.622 463.85 109.739 462.17C109.907 459.768 110.159 457.383 110.696 455.031C110.898 454.157 111.133 453.301 111.737 452.595C112.543 451.671 114.206 451.487 115.028 452.511C116.64 454.51 118.656 456.156 119.932 458.475C120.519 459.55 121.493 460.406 122.266 461.381C123.038 462.355 124.029 462.506 125.137 462.153C125.557 462.019 125.994 461.918 126.397 461.733C128.949 460.541 129.52 460.742 129.05 457.416C128.949 456.711 128.764 455.972 129.134 455.317C129.671 454.359 129.486 453.234 129.083 452.528C128.479 451.453 129.134 450.63 129.15 449.706C129.15 449.152 129.688 448.799 130.242 448.664C132.912 447.993 135.313 448.144 137.261 450.495C138.335 451.789 139.679 452.847 140.888 454.023C141.392 454.51 141.946 454.628 142.601 454.443C145.27 453.704 147.873 452.73 150.308 451.47C151.752 450.731 153.23 450.176 154.758 449.756C156.907 449.168 159.006 448.496 161.004 447.472C162.499 446.699 164.161 446.246 165.672 445.506C169.199 443.793 173.01 442.768 176.436 440.853C177.057 440.517 177.746 440.181 178.417 440.114C180.214 439.929 181.591 438.989 182.884 437.897C183.539 437.326 184.177 437.057 185.05 437.107C186.83 437.242 188.358 436.721 189.517 435.243C190.121 434.453 191.045 434.05 191.985 433.714C193.681 433.109 194.537 431.9 194.638 430.086C194.705 428.893 194.285 428.103 193.144 427.952C191.632 427.751 190.205 427.28 188.727 426.961C186.276 426.457 183.959 425.533 181.541 424.996C179.29 424.492 177.007 424.105 174.773 423.501C171.869 422.711 168.863 422.241 166.075 421.031C164.245 420.242 162.264 420.309 160.349 419.956C159.879 419.872 159.493 420.141 159.191 420.494C159.073 420.628 158.922 420.779 158.889 420.931C158.418 423.383 156.37 424.71 154.926 426.457C154.422 427.079 153.801 427.28 153.028 427.079C152.692 426.995 152.323 426.894 151.987 426.894C151.248 426.894 150.828 426.491 150.593 425.852C150.308 425.08 149.871 424.341 149.183 423.954C147.722 423.114 147.034 421.754 146.748 420.275C146.177 417.168 144.246 415.824 141.308 415.303C139.561 415.001 137.899 414.362 136.085 414.262C134.977 414.194 134.171 414.497 133.55 415.37C133.147 415.958 132.744 416.529 132.341 417.117C130.091 420.443 127.438 423.434 124.432 426.104C124.298 426.222 124.163 426.323 124.012 426.424C123.575 426.692 123.139 426.709 122.87 426.222C122.249 425.147 121.695 424.038 121.107 422.946C120.519 421.854 119.915 420.763 119.294 419.688C118.891 418.982 118.303 418.696 117.497 418.932C117.161 419.032 116.808 419.15 116.473 419.184C115.969 419.234 115.549 418.948 115.515 418.461C115.482 417.604 115.146 416.966 114.542 416.361C114.189 416.009 113.836 415.454 113.819 414.984C113.685 412.968 112.359 411.356 112.124 409.39C112.006 408.483 111.385 408.013 110.528 407.794C109.672 407.576 108.816 407.29 107.942 407.122C105.843 406.719 103.711 406.534 101.763 405.527C101.528 405.409 101.242 405.375 100.991 405.359C96.8766 405.039 93.0313 403.494 89.0349 402.654C87.8259 402.402 86.6337 402.016 85.4079 401.781C84.5347 401.613 83.6783 401.428 82.8555 401.041C82.1335 400.689 81.3443 400.538 80.5383 400.47C79.3125 400.37 78.2546 400.605 77.4318 401.629C74.997 404.703 71.4875 406.4 68.465 408.735C67.7598 409.273 67.0377 409.76 66.3493 410.331C65.4593 411.07 64.5357 411.776 63.5282 412.363C61.7147 413.422 60.3378 413.052 59.2296 411.288C58.9945 410.919 58.8098 410.499 58.6922 410.079C58.4907 409.441 58.1885 409.004 57.5 408.785C56.1399 408.366 55.6361 407.425 55.5522 405.98C55.485 404.821 55.082 403.746 56.1063 402.772C56.4589 402.436 56.291 401.881 55.8208 401.663C55.2163 401.361 54.8973 400.924 54.6958 400.286C54.4943 399.681 54.7294 399.513 55.2667 399.412C55.6193 399.345 55.6025 399.009 55.3843 398.824C55.1156 398.606 54.763 398.488 54.4607 398.337C54.0409 398.119 53.8058 397.85 53.7722 397.312C53.554 394.557 52.6136 393.566 50.0949 392.945C47.6936 392.357 45.2253 391.937 42.9752 390.761C42.3539 390.442 41.6486 390.24 40.9602 390.089C39.7344 389.82 38.7101 390.055 37.988 391.265C36.6279 393.566 35.0327 395.716 33.2527 397.715C32.7826 398.253 32.2452 398.74 31.859 399.345C30.6668 401.226 28.9876 401.041 27.1909 400.571C26.5193 400.403 26.1666 399.882 25.8308 399.362C25.1927 398.404 24.605 397.396 23.9837 396.439C23.5135 395.716 22.9426 395.28 21.9687 395.649C21.2634 395.901 20.7765 395.364 20.5078 394.776C19.8697 393.398 19.2652 392.021 18.6775 390.61C18.0394 389.048 17.4013 387.468 16.8136 385.889C16.1252 384.008 14.9833 382.664 12.9347 382.227C12.1623 382.059 11.4067 381.74 10.6511 381.471C9.42527 381.035 8.43456 380.346 7.96439 379.069C7.30951 377.289 5.9158 376.197 4.33738 375.307C3.95117 375.088 3.51458 374.954 3.14516 374.719C2.57424 374.366 2.28878 373.778 2.70858 373.123C3.31308 372.199 2.92687 371.678 2.28878 371.073C1.71787 370.519 1.14695 369.931 0.69357 369.276C-0.397893 367.663 -0.196392 366.605 1.26449 365.345C2.80933 364.001 4.67321 363.413 6.60426 363.061C12.3806 361.985 18.2074 361.28 24.118 361.364C31.7751 361.482 39.4321 361.297 47.0723 361.314C51.9587 361.314 56.8787 361.213 61.7483 361.532C65.3921 361.767 69.0359 361.986 72.6797 362.137C77.4654 362.321 82.2678 362.59 87.0703 362.473C87.6916 362.473 88.3128 362.456 88.9341 362.506C93.6358 362.876 98.3375 362.842 103.056 363.027C106.599 363.161 110.142 363.094 113.685 363.145C115.18 363.161 116.674 363.531 118.202 363.497C121.141 363.43 124.079 363.397 127.001 363.481C131.165 363.581 135.33 363.817 139.511 363.951C141.559 364.018 143.608 364.085 145.657 363.984C147.437 363.9 149.216 363.968 150.98 364.169C155.597 364.707 160.232 364.522 164.85 364.606C167.251 364.64 169.652 364.539 172.053 364.522C172.675 364.522 173.313 364.522 173.917 364.64C177.359 365.362 180.835 365.06 184.294 365.16C185.537 365.194 186.78 365.278 188.022 365.278C190.239 365.278 192.455 365.732 194.688 365.379C195.377 365.261 196.116 365.379 196.821 365.48C199.105 365.799 201.355 366.168 203.706 366.051C206.359 365.933 209.045 366.168 211.715 366.235C214.385 366.303 217.055 366.37 219.725 366.437C221.169 366.471 222.546 366.79 223.873 367.327C224.443 367.563 225.048 367.747 225.652 367.865C226.845 368.1 227.281 367.815 227.483 366.571C228.222 361.616 231.059 357.92 234.703 354.762C235.845 353.771 237.104 352.914 238.313 351.991C239.103 351.386 239.976 350.949 240.916 350.647C243.301 349.891 245.651 349.051 248.053 348.446C250.991 347.707 253.997 347.405 257.053 347.825C259.521 348.177 262.057 348.043 264.458 348.748C268.169 349.84 271.46 351.52 274.265 354.376C277.505 357.685 280.024 361.33 281.603 365.664C281.72 366 281.888 366.319 282.022 366.639C282.392 367.512 283.08 367.798 283.97 367.68C285.028 367.546 286.086 367.361 287.144 367.227C289.881 366.891 292.618 366.622 295.355 366.219C296.849 366 298.294 365.513 299.771 365.177C301.769 364.724 303.751 364.236 305.766 363.884C309.191 363.279 312.499 362.221 315.807 361.162C317.167 360.726 318.544 360.356 319.888 359.97C323.498 358.945 326.823 357.248 330.282 355.821C333.019 354.695 335.302 352.83 337.485 350.848C338.543 349.891 339.618 348.967 340.693 348.026C340.894 347.858 341.163 347.724 341.314 347.522C342.976 345.221 345.176 343.323 346.452 340.719C346.805 339.997 347.258 339.341 347.678 338.653C348.383 337.51 349.005 336.301 349.256 334.991C349.575 333.412 350.096 331.933 350.734 330.438C351.171 329.38 351.12 328.036 351.003 326.86C350.835 325.097 350.516 323.333 350.13 321.603C349.659 319.486 348.702 317.537 347.325 315.891C345.31 313.506 343.027 311.339 340.088 310.112C338.627 309.491 337.687 308.08 335.924 307.845C334.379 307.643 332.918 306.837 331.424 306.283C329.929 305.728 328.435 305.14 326.923 304.62C325.143 303.998 323.33 303.612 321.416 303.746C318.998 303.897 316.63 303.326 314.246 303.074C310.35 302.671 306.437 302.402 302.575 301.73C301.45 301.529 300.275 301.73 299.116 301.73C296.715 301.73 294.314 301.848 291.929 301.713C291.006 301.663 290.2 301.764 289.327 301.982C287.161 302.553 284.91 302.301 282.694 302.503C282.257 302.537 281.804 302.436 281.367 302.503C276.414 303.343 271.427 302.469 266.473 302.738C266.204 302.738 265.919 302.738 265.684 302.654C263.77 301.831 261.671 301.965 259.673 301.579C258.212 301.293 256.65 301.293 255.172 301.445C253.258 301.629 251.445 301.411 249.648 300.857C248.875 300.622 248.12 300.42 247.398 301.058C246.978 301.428 246.407 301.461 245.87 301.327C244.107 300.873 242.327 301.209 240.547 301.092C238.767 300.974 236.987 301.058 235.291 300.319C234.905 300.151 234.401 300.084 233.981 300.151C232.352 300.403 230.808 299.95 229.229 299.681C226.694 299.244 224.141 298.891 221.589 298.522C219.406 298.203 217.223 297.9 215.09 297.363C211.9 296.556 208.659 295.935 205.502 295.044C203.79 294.574 202.53 295.044 201.405 296.204C200.985 296.64 200.65 297.195 200.347 297.732C200.163 298.051 200.247 298.471 200.532 298.706C201.17 299.194 201.808 299.681 202.497 300.067C207.215 302.788 212.219 304.871 217.206 307.038C220.111 307.458 222.428 309.189 224.914 310.549C227.651 312.044 230.287 313.674 232.839 315.454C233.746 316.093 234.418 316.849 234.921 317.823C235.392 318.764 235.795 319.771 236.181 320.729C237.356 323.585 235.358 325.903 233.125 326.558C232.806 326.659 232.403 326.625 232.1 326.491C230.539 325.852 228.927 326.104 227.348 326.272C225.837 326.424 224.359 326.676 222.831 326.491C222.009 326.39 221.639 326.928 221.958 327.633C222.344 328.523 222.831 329.38 223.234 330.27C223.604 331.077 224.024 331.883 224.259 332.723C224.981 335.159 223.335 337.897 220.85 338.048C217.878 338.233 215.09 339.19 212.219 339.728C210.389 340.064 208.609 340.719 206.695 340.383C206.443 340.333 206.157 340.417 205.905 340.484C205.217 340.635 204.797 341.172 204.931 341.844C205.217 343.239 205.469 344.633 206.241 345.893C206.997 347.119 207.501 348.446 207.803 349.857C208.055 351.05 207.87 352.159 207.249 353.2C207.014 353.603 206.678 353.939 206.208 353.973C204.797 354.04 203.37 354.158 202.262 352.914C200.901 351.386 199.239 350.176 197.845 348.664C195.192 345.792 192.304 343.121 189.567 340.333C187.938 338.686 186.108 337.275 184.613 335.495C183.824 334.554 182.733 333.882 181.776 333.093C179.257 330.993 177.208 328.389 174.303 326.692C172.725 325.769 171.398 324.441 170.424 322.745C169.266 320.712 167.284 319.368 165.504 317.89C163.641 316.345 161.844 314.782 160.467 312.767C160.114 312.263 159.644 311.826 159.224 311.389C157.696 309.777 156.084 308.248 154.64 306.568C153.901 305.711 153.381 304.636 152.843 303.628C152.575 303.124 152.76 302.553 153.079 302.117C153.633 301.31 154.187 300.487 154.825 299.765C158.083 296.12 161.374 292.491 164.648 288.846C165.001 288.443 165.387 288.073 165.723 287.653C166.562 286.679 166.512 286.242 165.32 285.604C164.312 285.066 163.238 284.529 162.146 284.294C161.172 284.092 160.265 283.806 159.392 283.37C159.224 283.286 159.073 283.202 158.889 283.185C156.336 282.748 153.969 281.673 151.517 280.917C149.384 280.262 147.201 279.808 145.254 278.666C144.884 278.448 144.414 278.347 143.994 278.313C142.013 278.145 140.216 277.373 138.403 276.6C135.951 275.559 133.516 274.45 131.048 273.442C128.831 272.535 126.632 271.661 124.533 270.452C121.611 268.772 118.504 267.411 115.314 266.252C114.558 265.967 113.87 265.597 113.232 265.076C112.678 264.623 112.107 264.169 111.469 263.901C105.911 261.482 100.94 257.971 95.6508 255.081C92.2253 253.2 88.783 251.335 85.3407 249.488C84.9545 249.286 84.5011 249.202 84.0981 249.017C83.2921 248.648 82.3182 248.429 81.7137 247.841C80.1521 246.33 78.1706 245.523 76.4915 244.23C74.8627 242.987 73.469 241.475 72.0249 240.03C69.6908 237.729 67.1888 235.579 64.7205 233.412C63.9816 232.757 63.2428 232.152 62.6047 231.379C62.2689 230.976 61.8827 230.573 61.4293 230.321C60.0691 229.582 59.0616 228.473 58.1381 227.264C57.2313 226.054 56.1903 224.962 55.0148 223.971C50.2628 220.007 46.3839 215.236 42.5218 210.465C38.8612 205.93 36.3256 200.722 34.1259 195.347C33.0009 192.626 31.6911 190.005 30.2134 187.469C28.0641 183.756 26.5025 179.792 24.8737 175.844C23.9501 173.61 23.1945 171.359 22.5732 169.041C21.5825 165.328 21.1123 161.532 20.6422 157.736C20.2727 154.729 20.0209 151.705 20.4742 148.698C20.8101 146.414 20.5582 144.095 20.9948 141.811C21.4649 139.274 22.1702 136.788 22.7075 134.268C23.4296 130.909 25.2095 128.003 26.2842 124.811C27.8962 119.956 30.3814 115.555 33.4207 111.456C34.0587 110.6 34.6632 109.709 35.2006 108.802C36.2249 107.022 37.3667 105.325 38.878 103.914C39.1299 103.679 39.3649 103.393 39.5496 103.091C41.8837 99.1433 45.4435 96.2036 48.3485 92.7264C49.0874 91.8528 50.0445 91.1641 50.9009 90.3746C53.9737 87.5357 56.9291 84.5792 60.1195 81.8915C62.907 79.5397 65.5265 76.9696 68.5658 74.9538C69.1535 74.5674 69.7412 74.1475 70.3625 73.8115C71.3196 73.3076 72.1256 72.6525 72.9484 71.9469C74.8459 70.3175 77.1128 69.2256 79.2621 67.9826C79.7994 67.6802 80.3872 67.4954 80.8741 67.0754C83.3929 64.9588 86.281 63.3462 88.9677 61.4648C89.6898 60.9609 90.4958 60.5409 91.285 60.1546C92.2589 59.6842 93.1657 59.1634 94.022 58.4915C94.5762 58.0548 95.1807 57.6684 95.8188 57.3324C97.8673 56.2741 99.9495 55.2663 102.015 54.208C103.123 53.6368 104.181 52.9985 105.289 52.4106C106.146 51.957 107.002 51.4531 107.926 51.1003C112.107 49.5381 115.969 47.3375 119.982 45.4393C120.301 45.2881 120.603 45.0361 120.939 44.9689C124.986 44.045 128.462 41.7941 132.206 40.1982C133.264 39.7447 134.322 39.2743 135.43 38.9384C137.21 38.4008 138.957 37.7625 140.653 36.9226C142.332 36.0995 144.095 35.4779 145.841 34.8396C150.022 33.3278 154.204 31.8159 158.418 30.4217C160.954 29.5817 163.557 28.9602 166.092 28.1707C169.652 27.0452 173.195 25.8189 176.755 24.6934C180.315 23.5512 183.942 22.6776 187.586 21.8377C189.735 21.3506 191.867 20.7459 194.034 20.2251C198.618 19.1332 203.219 18.1758 207.769 16.9495C211.379 15.9752 215.006 15.068 218.667 14.3457C223.302 13.4218 227.919 12.4979 232.554 11.6244C236.047 10.9693 239.573 10.3981 243.082 9.8438C245.198 9.50784 247.331 9.37347 249.43 9.0207C253.913 8.28158 258.363 7.44166 262.846 6.70254C266.188 6.16499 269.546 5.81222 272.871 5.22428C276.565 4.58595 280.326 4.72034 284.021 4.1828C285.162 4.01482 286.304 3.96441 287.446 3.69564C288.37 3.46046 289.394 3.64523 290.351 3.52764C293.088 3.22527 295.825 3.07411 298.579 3.02372C300.879 2.99012 303.18 2.58694 305.48 2.31817C309.191 1.88141 312.886 1.47826 316.63 1.42786C319.737 1.39426 322.86 1.14233 325.949 0.890356C327.377 0.772769 328.787 0.839915 330.215 0.78952C334.026 0.68873 337.855 0.688745 341.667 0.436771C344.32 0.268788 347.006 0.369564 349.676 0.369564C351.104 0.369564 352.531 0.369574 353.941 0.1176C354.294 0.0504071 354.647 0 354.999 0C358.811 0.100789 362.623 0.319206 366.451 0.302407C368.416 0.302407 370.38 0.151217 372.311 0.453586C375.233 0.907138 378.172 0.453555 381.094 0.78952C385.812 0.201581 390.497 1.0247 395.215 1.0583C399.195 1.09189 403.175 1.64624 407.171 1.89821C410.278 2.08299 413.384 2.20061 416.457 2.77175C418.27 3.10772 420.218 2.85571 422.032 3.20847C424.584 3.71242 427.17 3.86362 429.722 4.01481C433.014 4.19959 436.271 4.61952 439.546 4.8883C443.257 5.20746 446.984 5.54343 450.611 6.46734C451.031 6.58492 451.501 6.53453 451.938 6.56812C452.912 6.65211 453.936 6.60172 454.86 6.88729C458.638 8.02957 462.584 8.0464 466.429 8.80232C469.301 9.35666 472.222 9.59183 475.111 10.163C477.008 10.5325 478.939 10.9021 480.87 11.1876C482.532 11.4396 484.178 11.8932 485.824 12.2628C486.176 12.3467 486.495 12.5483 486.848 12.5651C490.173 12.7835 493.246 14.0769 496.453 14.7657C499.324 15.3704 502.229 15.7736 505.084 16.4287C507.602 16.9999 510.071 17.739 512.556 18.3773C514.537 18.8812 516.485 19.4692 518.5 19.8892C519.978 20.1915 521.422 20.6955 522.866 21.149C525.167 21.8714 527.434 22.5937 529.902 22.5097C530.758 22.4761 531.648 22.8121 532.505 23.0304C533.445 23.2824 534.385 23.568 535.326 23.8703C538.919 25.063 542.68 25.1134 546.375 25.5334C547.785 25.7013 549.196 25.8861 550.623 25.9869C552.017 26.0877 553.276 26.5412 554.267 27.4651C555.291 28.4226 556.5 28.893 557.793 29.229C558.314 29.3634 558.801 29.5817 559.321 29.6825C561.168 30.0689 562.226 31.2784 562.864 32.9582C563.2 33.8149 563.032 34.5708 562.31 35.0748C561.957 35.3267 561.554 35.5619 561.135 35.6963C559.556 36.1834 558.549 37.1914 558.095 38.7872C557.994 39.1232 557.86 39.4759 557.692 39.7783C557.088 40.803 555.929 41.4077 554.77 41.0382C553.864 40.7526 552.957 40.7022 552.151 40.971C550.304 41.5925 548.306 41.6933 546.543 42.6508C546.089 42.9028 545.569 43.0707 545.048 43.1883C542.345 43.7595 539.759 44.7002 537.122 45.4729C533.361 46.5648 529.717 48.0598 525.822 48.6813C525.301 48.7653 524.764 48.8829 524.277 49.0845C521.439 50.1932 518.484 50.7139 515.478 51.0331C514.336 51.1507 513.228 51.5539 512.103 51.8394C508.056 52.8977 504.009 53.9224 499.979 55.0143C497.847 55.6022 495.764 56.4589 493.598 56.9293C490.911 57.5004 488.326 58.4411 485.656 59.0795C483.238 59.6506 480.786 60.121 478.351 60.6249C478.267 60.6417 478.167 60.6249 478.083 60.6753C475.984 61.868 473.599 61.5824 471.366 62.0023C470.325 62.1871 469.267 62.1536 468.411 63.0271C467.907 63.5478 467.067 63.4638 466.379 63.531C465.035 63.6486 463.726 63.8333 462.651 64.774C462.45 64.942 462.198 65.0933 461.946 65.1437C459.931 65.4628 458.017 66.1516 456.052 66.6387C455.279 66.8235 454.49 66.9243 453.751 67.2434C451.199 68.3353 448.445 68.6713 445.775 69.3264C443.005 69.9983 440.217 70.4182 437.43 70.9558C435.784 71.275 434.189 71.7285 432.493 71.9301C431.015 72.0981 429.622 72.8037 428.178 73.2404C426.431 73.778 424.685 74.3658 422.955 74.937C420.772 75.6425 418.707 76.6504 416.339 76.516C414.627 77.2887 412.763 77.5072 411.016 78.1791C409.287 78.851 407.473 79.3214 405.576 79.439C404.535 79.5062 403.477 79.7582 402.469 80.0773C400.522 80.6821 398.607 81.3707 396.676 82.0259C396.424 82.1099 396.173 82.2275 395.904 82.2275C392.31 82.345 388.952 83.6049 385.493 84.3944C384.888 84.5288 384.25 84.5624 383.629 84.5792C382.806 84.596 382.051 84.7808 381.312 85.1C379.767 85.7551 378.205 86.3094 376.476 86.3094C376.056 86.3094 375.636 86.5446 375.216 86.679C374.881 86.7798 374.511 87.0821 374.243 87.0149C372.647 86.5782 371.489 87.3342 370.347 88.2581C369.742 88.7452 369.037 88.762 368.315 88.762C367.308 88.762 366.384 88.9635 365.595 89.6691C365.343 89.9042 365.007 90.1562 364.688 90.1898C362.455 90.4922 360.54 91.8024 358.307 92.0712C357.955 92.1048 357.602 92.2225 357.283 92.3568C354.613 93.4151 351.809 93.8854 349.021 94.4902C347.812 94.7589 346.57 94.9102 345.394 95.3973C345.142 95.4981 344.857 95.6661 344.622 95.5989C342.876 95.1621 341.348 95.9852 339.736 96.3884C339.316 96.506 338.913 96.5731 338.51 96.8083C335.386 98.5721 331.944 99.3617 328.519 100.302C323.112 101.781 317.554 102.621 312.247 104.435C311.156 104.804 310.014 105.006 308.906 105.325C307.512 105.728 306.085 105.543 304.691 105.56C302.911 105.594 301.299 105.963 299.922 106.988C298.025 108.416 295.808 108.534 293.625 108.685C292.45 108.769 291.392 108.886 290.317 109.441C289.31 109.961 288.134 110.163 287.009 110.365C284.743 110.768 282.509 111.322 280.192 111.574C277.824 111.826 275.49 112.414 273.139 112.867C272.804 112.935 272.401 113.187 272.132 113.086C270.52 112.515 268.975 113.271 267.38 113.271C265.214 113.271 263.3 114.413 261.15 114.631C260.243 114.732 259.689 115.622 259.202 116.362C258.363 117.621 257.574 118.915 256.868 120.259C256.247 121.435 255.659 122.594 254.836 123.686C253.93 124.878 253.308 126.289 252.57 127.6C252.351 127.986 252.2 128.423 251.948 128.775C248.069 134 245.013 139.761 241.353 145.12C240.496 146.363 239.825 147.724 239.069 149.034C237.944 150.949 236.802 152.847 235.459 154.628C234.183 156.324 233.377 158.34 232.033 160.02C231.58 160.591 231.933 161.314 232.688 161.398C234.535 161.616 236.416 162.002 238.263 161.935C242.746 161.767 247.129 162.422 251.545 162.909C253.93 163.178 256.314 163.313 258.715 163.43C261.184 163.548 263.669 163.531 266.137 163.968C268.152 164.32 270.201 164.472 272.25 164.505C275.725 164.572 279.151 165.278 282.61 165.429C287.597 165.631 292.5 166.538 297.487 166.672C299.704 166.723 301.937 166.756 304.154 166.823C305.497 166.857 306.589 166.37 307.411 165.328C308.839 163.514 310.266 161.683 311.693 159.869C313.49 157.551 315.32 155.249 317.419 153.183C317.99 152.629 318.544 152.007 318.947 151.335C319.737 150.025 320.761 148.916 321.802 147.825C322.961 146.598 324.102 145.339 325.11 143.995C327.847 140.349 331.155 137.225 334.177 133.832C335.89 131.9 337.704 130.069 339.45 128.171C339.803 127.784 340.071 127.314 340.407 126.877C340.844 126.306 341.18 125.634 341.734 125.214C343.598 123.786 344.991 121.939 346.469 120.175C347.678 118.73 349.139 117.89 351.087 117.907C351.977 117.907 352.867 117.773 353.74 117.689C354.361 117.638 355.05 117.571 355.553 117.957C356.443 118.629 357.4 118.495 358.374 118.394C358.996 118.327 359.617 118.277 360.221 118.142C363.546 117.403 366.921 117.302 370.296 116.983C371.707 116.849 373.134 116.714 374.545 116.546C377.819 116.16 381.11 116.294 384.402 116.177C387.407 116.076 390.43 116.126 393.435 115.942C395.383 115.807 397.331 115.606 399.279 115.404C404.233 114.883 409.203 114.581 414.19 114.547C415.248 114.547 416.289 114.178 417.347 114.094C418.942 113.959 420.554 113.892 422.149 113.892C426.247 113.892 430.293 113.304 434.374 112.918C434.81 112.884 435.264 112.817 435.7 112.8C438.219 112.699 438.773 113.069 439.462 115.538C439.646 116.227 439.881 116.849 440.268 117.47C441.46 119.352 440.872 121.821 439.025 123.114C437.245 124.358 435.146 124.895 433.232 125.819C432.762 126.054 432.275 126.272 431.821 126.541C431.486 126.743 431.519 127.264 431.905 127.398C433.736 128.087 435.616 128.658 437.598 128.725C438.404 128.759 439.193 128.859 439.999 128.876C441.225 128.927 441.812 129.464 442.232 130.707C442.736 132.185 443.341 133.714 444.466 134.924C444.701 135.176 444.885 135.528 444.969 135.864C445.322 137.259 444.55 138.468 444.23 139.745C444.029 140.551 443.66 141.139 442.904 141.626C441.695 142.382 440.519 143.121 439.176 143.642C437.094 144.431 435.113 145.473 433.114 146.414C432.896 146.514 432.745 146.733 432.426 147.018L432.359 146.884ZM457.009 34.1677C455.598 34.2517 454.171 34.3188 452.761 34.4364C452.19 34.4868 451.652 35.0916 451.72 35.4947C451.837 36.0658 452.223 36.5026 452.761 36.5866C453.886 36.7378 455.044 36.8554 456.186 36.7714C456.724 36.721 457.479 36.805 457.882 36.1667C458.403 36.2843 458.974 36.2843 459.427 36.5194C460.267 36.9562 460.989 37.3761 461.543 36.1499C461.694 35.8307 462.164 35.8475 462.517 35.9651C463.625 36.2842 464.716 36.6034 465.808 36.9561C466.58 37.2081 467.353 37.3425 468.159 37.1241C469.166 36.8554 469.485 35.8475 468.83 35.058C468.008 34.0669 467.017 33.6469 465.774 34.2181C465.455 34.3693 465.052 34.6212 464.817 34.2685C463.944 32.975 462.752 33.6133 461.66 33.6973C461.677 33.0758 461.828 32.2527 461.291 31.9839C460.267 31.4631 459.981 30.3545 459.142 29.7497C458.957 29.6154 458.655 29.6321 458.403 29.6321C458.352 29.6321 458.285 29.9177 458.285 30.0857C458.229 31.3175 457.653 32.0623 456.556 32.3199C456.304 32.3703 456.052 32.3871 455.985 32.7902C456.304 33.227 456.656 33.7309 457.009 34.2181V34.1677ZM268.287 366.655C266.154 365.967 264.072 366.622 261.99 366.975C261.889 366.991 261.805 367.227 261.721 367.361C261.855 367.445 262.023 367.63 262.141 367.596C263.518 367.21 264.559 367.714 265.415 368.772C265.499 368.89 265.516 369.125 265.482 369.276C265.398 369.578 265.147 369.646 264.878 369.528C264.173 369.192 263.585 368.57 262.695 368.688C260.982 368.923 259.421 369.444 258.094 370.62C257.523 371.124 257.422 371.863 257.003 372.417C256.734 372.77 255.995 372.753 255.911 372.316C255.743 371.359 255.156 370.973 254.299 370.805C254.198 370.687 254.081 370.569 253.963 370.469C253.51 369.41 252.805 368.688 251.545 368.755C251.092 368.789 250.639 368.789 250.32 368.419C249.144 367.075 247.515 367.025 245.937 366.84C244.258 366.639 242.595 366.84 240.916 367.092C240.11 367.21 240.06 367.546 240.379 368.134C240.564 368.47 240.681 368.772 240.295 369.058C239.892 369.36 239.758 369.78 239.959 370.233C240.513 371.443 240.967 372.736 241.705 373.811C244.963 378.498 249.631 380.396 255.206 380.447C256.583 380.447 257.809 379.96 259.068 379.556C262.477 378.448 265.231 376.566 266.742 373.14C267.061 372.4 266.943 372.031 266.406 371.577C266.053 371.292 266.137 370.956 266.591 370.838C266.843 370.771 267.128 370.855 267.38 370.805C269.143 370.401 270.167 369.209 270.218 367.462C270.235 366.79 269.815 366.403 269.009 366.437C268.757 366.437 268.522 366.605 268.27 366.706H268.303L268.287 366.655ZM406.684 395.011C406.902 394.86 407.138 394.725 407.339 394.54C408.078 393.818 408.397 392.709 409.606 392.424C410.026 392.323 410.11 391.752 410.076 391.282C409.925 389.131 408.666 387.905 406.735 387.233C405.643 386.864 404.484 386.629 403.443 386.175C402.352 385.705 401.26 385.537 400.068 385.553C398.473 385.553 396.861 385.52 395.45 384.562C394.93 384.21 394.292 384.142 393.654 384.159C393.217 384.159 392.747 384.193 392.344 384.058C389.725 383.218 387.071 382.647 384.351 382.211C382.89 381.975 381.581 382.11 379.952 382.479C380.539 383.924 380.892 385.268 380.791 386.696C380.674 388.56 380.926 390.425 381.228 392.273C381.413 393.398 381.497 394.574 381.396 395.716C381.295 396.791 381.429 397.85 381.48 398.908C381.547 400.235 381.664 401.562 381.748 402.889C381.9 404.939 382.101 406.971 383.26 408.752C383.629 409.323 383.579 409.928 383.612 410.549C383.646 411.188 384.049 411.54 384.687 411.406C385.862 411.171 386.971 410.986 387.844 412.111C387.945 412.229 388.364 412.212 388.583 412.111C388.935 411.96 389.187 411.54 388.952 411.255C388.146 410.196 388.549 409.037 388.532 407.895C388.532 407.559 388.482 407.055 388.952 407.072C389.238 407.072 389.506 407.458 389.775 407.677C390.295 408.097 390.044 408.634 390.044 409.155C390.044 409.894 390.497 410.129 391.068 409.76C393.486 408.197 395.131 405.812 397.314 403.981C397.701 403.662 397.919 403.108 398.104 402.62C398.355 401.982 398.742 401.579 399.397 401.411C399.732 401.327 400.102 401.226 400.387 401.025C402.755 399.294 405.005 397.43 406.701 395.011H406.684ZM126.934 107.038C127.857 107.996 128.479 109.088 128.798 110.23C129.385 112.279 130.107 114.279 130.897 116.261C131.938 118.898 132.996 121.535 134.07 124.173C135.279 127.129 136.723 130.019 137.328 133.193C137.664 134.89 138.201 136.435 139.444 137.678C139.796 138.031 139.83 138.804 140.468 138.737C141.19 138.67 141.425 137.998 141.543 137.376C141.795 136.15 141.962 134.924 141.291 133.748C141.156 133.512 141.072 133.261 140.989 133.009C140.804 132.404 141.039 131.984 141.627 131.749C142.752 131.312 143.893 131.413 145.052 131.53C146.479 131.665 147.604 130.976 148.058 129.75C148.562 128.389 148.83 127.079 150.493 126.676C150.745 126.608 150.946 126.155 151.114 125.853C151.349 125.382 151.567 124.912 151.97 124.509C153.163 123.35 154.623 122.375 155.026 120.578C155.026 120.511 155.161 120.443 155.228 120.427C156.202 120.242 156.336 119.721 155.95 118.881C155.53 117.974 156.353 117.403 156.672 116.714C156.907 116.227 157.428 116.395 157.864 116.479C158.385 116.563 158.704 116.244 158.939 115.858C160.534 113.304 159.812 110.516 157.159 109.088C156.689 108.836 156.185 108.618 155.681 108.5C153.851 108.13 152.021 107.744 150.174 107.475C147.453 107.072 144.683 107.005 141.946 106.736C139.595 106.501 137.362 106.736 135.078 107.005C134.44 107.072 134.255 107.61 134.792 108.13C135.229 108.55 135.313 108.802 134.792 109.105C134.49 109.273 134.137 109.39 133.802 109.457C132.576 109.659 132.039 109.021 132.324 107.727C132.374 107.492 132.509 107.29 132.626 107.022C130.762 106.518 128.966 105.963 126.967 107.055L126.934 107.038ZM377.366 241.609C377.181 241.609 377.013 241.609 376.828 241.609C376.056 241.626 375.821 241.945 376.123 242.6C376.341 243.088 376.694 243.524 376.828 244.028C377.349 245.91 377.987 247.791 376.778 249.672C376.157 250.63 376.14 251.705 376.526 252.763C376.812 253.553 376.963 254.275 376.392 255.031C376.106 255.417 376.291 255.905 376.56 256.274C377.047 256.946 377.131 257.668 376.543 258.206C375.703 259.012 375.804 259.802 375.989 260.843C376.174 261.834 375.787 262.943 375.636 263.985C375.535 264.69 375.317 265.379 375.334 266.084C375.334 267.092 376.073 268.134 375.116 269.091C375.065 269.142 375.082 269.276 375.099 269.343C375.452 270.485 376.073 271.577 377.131 271.997C378.021 272.35 378.34 271.241 378.776 270.603C379.062 270.166 379.482 270.065 379.935 270.334C380.321 270.553 380.657 270.872 381.043 271.057C381.765 271.409 382.403 271.073 382.605 270.2C382.672 269.881 382.454 269.461 382.84 269.242C383.243 269.041 383.478 269.36 383.713 269.629C383.965 269.931 384.351 270.15 384.637 269.881C385.594 268.974 386.903 268.923 388.012 268.369C388.835 267.949 389.489 267.529 389.909 266.639C390.379 265.648 390.497 265.648 391.706 266.353C392.226 266.655 392.529 266.504 392.814 266.118C392.965 265.916 393.116 265.681 393.2 265.429C393.553 264.438 393.587 264.354 394.359 264.858C394.964 265.244 395.434 265.463 395.853 264.656C395.937 264.505 396.324 264.488 396.559 264.488C397.264 264.455 397.986 264.489 398.691 264.438C399.8 264.337 400.673 263.985 401.059 262.708C401.361 261.7 402.15 260.877 403.057 260.272C403.88 259.718 404.468 259.919 405.106 260.944C405.274 261.213 405.542 261.28 405.777 261.162C406.936 260.541 407.625 259.533 407.927 258.273C408.011 257.954 407.994 257.5 407.809 257.265C407.121 256.358 406.701 255.199 405.71 254.527C404.165 253.486 402.604 252.427 400.841 251.789C397.348 250.529 393.906 249.152 390.547 247.573C389.187 246.934 387.793 246.363 386.316 245.994C385.644 245.826 384.972 245.523 384.368 245.17C382.84 244.28 381.329 243.339 379.834 242.399C379.062 241.912 378.256 241.592 377.332 241.609H377.366ZM246.256 234.134C246.575 233.294 246.441 232.387 246.189 231.547C245.232 228.406 244.426 225.197 243.183 222.157C241.957 219.167 241.218 216.076 240.244 213.019C239.623 211.07 239.052 209.105 237.81 207.408C237.138 206.484 236.332 205.812 235.14 205.963C233.981 206.114 233.041 206.451 232.537 207.811C231.983 209.273 231.076 210.7 229.078 210.616C228.306 210.583 227.768 211.12 227.399 211.776C227.097 212.313 226.845 212.884 226.542 213.439C226.106 214.228 225.636 215.102 224.796 215.387C223.184 215.925 222.042 216.933 221.152 218.327C220.917 218.68 220.531 218.965 220.178 219.217C219.087 220.007 218.281 221.031 217.424 222.073C215.98 223.803 214.62 225.836 211.934 225.869C211.43 225.869 211.245 226.491 211.547 226.877C212.102 227.599 212.756 228.171 213.63 228.49C214.217 228.708 214.855 228.893 215.242 229.414C216.232 230.741 217.424 231.093 218.953 230.321C219.255 230.17 219.641 230.17 219.994 230.153C220.783 230.119 221.589 230.354 222.277 229.716C222.395 229.615 222.798 229.716 222.999 229.834C223.386 230.086 223.721 230.254 224.225 230.203C225.182 230.102 225.971 230.489 226.542 231.262C227.416 232.454 228.541 232.622 229.85 232.118C230.27 231.967 230.69 231.816 231.11 231.698C231.462 231.614 231.916 231.547 232.067 231.917C232.503 232.857 233.343 232.757 234.115 232.857C235.442 233.025 236.802 233.109 237.759 234.235C238.129 234.672 238.683 234.789 239.203 234.806C241.084 234.907 242.864 235.36 244.61 236.099C245.752 236.587 246.29 236.083 246.306 234.688C246.306 234.504 246.289 234.336 246.273 234.117L246.256 234.134ZM322.339 242.432C322.474 241.542 322.322 240.669 322.205 239.778C321.752 236.351 321.231 232.925 320.946 229.464C320.761 227.364 320.106 225.5 319.199 223.652C318.528 222.258 317.604 221.804 315.958 221.938C314.346 222.073 313.305 223.148 312.852 224.458C312.399 225.752 311.677 226.155 310.535 226.037C309.846 225.97 309.359 226.088 308.839 226.508C308.15 227.062 307.361 227.482 306.673 228.036C304.809 229.531 302.962 231.077 301.131 232.605C298.881 234.487 296.598 236.318 294.683 238.552C293.877 239.493 293.122 240.467 291.896 240.937C291.442 241.122 291.392 241.744 291.778 242.029C293.609 243.44 295.758 244.314 297.79 245.389C297.924 245.456 298.142 245.338 298.31 245.389C299.771 245.758 301.366 245.876 302.559 246.833C304.019 247.993 305.514 248.345 307.277 247.892C307.798 247.757 308.335 247.724 308.788 248.127C310.048 249.269 311.609 249.572 313.238 249.504C314.011 249.471 314.682 249.639 315.169 250.193C316.697 251.856 318.628 251.772 320.593 251.554C321.399 251.47 321.919 250.999 322.003 250.193C322.071 249.488 322.037 248.765 322.692 248.261C323.212 247.875 323.179 247.405 322.977 246.85C322.44 245.422 322.306 243.927 322.39 242.416L322.339 242.432ZM444.953 310.566C445.255 307.946 444.6 305.409 444.516 302.822C444.482 301.797 443.979 300.958 443.441 300.134C443.122 299.63 442.635 299.446 442.064 299.479C441.208 299.513 440.519 299.765 440.217 300.689C439.613 302.52 438.572 304.032 436.943 305.107C436.674 305.291 436.422 305.627 436.305 305.93C436.036 306.635 435.549 307.139 434.978 307.559C434.021 308.265 433.282 309.138 432.913 310.281C432.644 311.12 432.04 311.591 431.234 311.86C430.898 311.977 430.562 312.111 430.226 312.229C429.286 312.548 428.698 313.17 428.648 314.161C428.581 315.438 427.942 316.277 426.901 316.966C425.927 317.621 425.357 318.663 424.87 319.704C425.592 321.468 424.097 321.199 423.224 321.485C422.804 321.619 422.351 321.636 421.948 321.787C421.679 321.888 421.545 322.241 421.713 322.459C422.603 323.518 423.274 324.677 424.668 325.365C427.926 326.978 431.385 328.053 434.71 329.481C435.28 329.733 435.868 329.867 436.506 329.884C438.622 329.968 440.755 330.052 442.652 331.228C442.87 331.362 443.156 331.396 443.408 331.446C443.911 331.547 444.499 331.161 444.6 330.623C444.667 330.203 444.717 329.733 444.65 329.313C444.449 328.053 444.65 326.793 444.986 325.617C445.322 324.458 445.339 323.366 445.221 322.207C445.12 321.233 444.885 320.208 445.104 319.301C445.507 317.605 445.372 315.958 445.188 314.278C445.053 313.035 445.02 311.792 444.936 310.566H444.953ZM138.436 188.056C138.436 188.56 138.906 188.779 139.141 189.132C139.343 189.434 139.612 189.736 139.46 190.106C139.024 191.131 139.276 192.357 138.251 193.281C137.647 193.835 137.026 194.524 136.388 195.347C137.177 195.834 137.932 196.304 138.436 197.027C138.839 197.615 139.209 198.253 139.729 198.707C140.468 199.362 140.938 198.169 141.643 198.303C141.912 198.354 142.164 198.438 142.416 198.505C142.886 198.623 143.356 198.522 143.608 198.119C144.296 197.01 145.354 197.044 146.446 197.128C148.578 197.312 150.694 197.514 152.827 197.648C153.969 197.732 155.178 197.917 156.235 197.329C157.142 196.825 158.049 196.792 159.056 196.892C161.273 197.094 163.506 197.161 165.588 196.153C166.109 195.901 166.613 196.036 167.15 196.12C168.04 196.271 168.443 195.683 168.04 194.843C167.553 193.785 166.915 192.81 165.975 192.088C163.725 190.341 161.726 188.308 159.392 186.662C158.469 186.007 157.78 185.016 156.672 184.579C155.06 182.244 152.592 180.951 150.375 179.338C149.871 178.985 149.351 178.599 148.981 178.129C148.31 177.255 147.336 176.785 146.496 176.146C145.858 175.659 145.069 175.458 144.229 175.441C143.39 175.441 142.886 175.794 142.869 176.701C142.869 177.541 142.869 178.28 141.979 178.733C141.559 178.952 141.475 179.372 141.543 179.876C141.962 183.151 141.24 186.007 138.436 188.056ZM238.146 71.4598C238.078 70.2167 236.97 68.8056 235.778 68.4697C235.19 68.3017 234.485 68.3185 233.981 68.0161C231.63 66.6218 229.044 65.614 227.113 63.5646C226.811 63.2455 226.408 63.0271 226.039 62.7751C224.544 61.8176 223.033 60.8937 221.538 59.9194C221.001 59.5666 220.43 59.3482 219.792 59.3314C219.356 59.3314 219.003 59.3315 218.835 59.9362C218.466 61.2969 218.113 62.7079 217.475 63.9509C215.661 67.4282 213.865 70.8886 212.421 74.5338C212.269 74.937 211.984 75.3066 211.715 75.6594C211.094 76.4321 211.346 77.1375 211.782 77.8767C212.253 78.6662 212.723 79.4222 213.831 79.2206C214.721 79.0526 215.594 78.9854 216.367 79.6237C216.585 79.7917 217.005 79.691 217.038 79.439C217.206 78.3975 218.382 78.0615 218.633 77.1712C218.818 76.4992 219.053 76.4656 219.49 76.8352C219.893 77.1711 220.178 77.6752 220.8 77.6416C221.471 77.5912 221.925 77.1544 222.361 76.7009C222.479 76.5833 222.613 76.4321 222.664 76.2641C223.201 74.6179 224.477 74.5842 225.888 74.6514C226.559 74.685 226.811 74.9874 226.979 75.5753C227.097 75.9617 227.483 76.0961 227.852 75.9113C228.322 75.6761 228.742 75.3402 229.229 75.1218C231.194 74.2819 233.259 73.7443 235.358 73.3747C236.063 73.2572 236.752 73.1396 237.373 72.7364C237.843 72.4172 238.145 71.9974 238.129 71.4598H238.146ZM308.167 50.4956C308.285 50.5124 308.385 50.5292 308.469 50.546C309.762 50.8147 310.434 50.4116 310.3 48.7654C310.216 47.7911 309.779 47.0687 308.856 46.6992C308.117 46.3968 307.361 46.1112 306.605 45.9265C303.852 45.2209 301.098 44.5154 298.327 43.8603C296.598 43.4571 294.851 43.1883 293.054 43.2051C291.493 43.2051 290.452 43.7427 290.066 45.2713C289.78 46.3632 289.243 47.2199 288.319 47.8582C287.48 48.4294 287.06 49.3365 286.506 50.1428C286.12 50.7139 286.036 51.2347 286.606 51.7722C287.026 52.1754 287.026 52.7801 286.758 53.2673C286.136 54.376 286.959 55.2999 287.093 56.3078C287.144 56.6269 287.597 56.8621 287.967 56.8117C290.066 56.5261 292.215 56.6773 294.263 55.8542C296.161 55.0815 298.042 54.3088 299.788 53.2673C300.392 52.8977 300.812 52.6289 301.232 53.452C301.417 53.788 301.87 53.704 302.223 53.6536C303.113 53.5024 303.784 53.1665 304.372 52.3266C305.228 51.0835 306.438 50.126 308.15 50.5123L308.167 50.4956ZM420.772 36.2338C420.688 35.7971 420.605 35.2763 420.47 34.7724C420.218 33.7813 419.53 33.0758 418.825 32.4038C418.321 31.9167 417.616 31.5303 417.297 30.9424C416.104 28.7418 414.106 27.1628 412.964 24.9454C412.712 24.4751 412.326 24.0551 411.789 23.9375C410.815 23.7191 409.975 24.5758 408.985 24.3575C408.934 24.3575 408.75 24.643 408.75 24.7942C408.716 26.6924 408.279 28.4562 406.986 29.9345C406.835 30.1025 406.919 30.4553 406.869 30.7072C406.802 31.0768 406.634 31.3456 406.248 31.48C405.257 31.8159 405.307 32.9078 404.787 33.5965C404.518 33.9661 404.585 34.6212 404.619 35.1251C404.652 35.6795 405.29 35.5955 405.626 35.8475C406.466 36.4858 407.339 37.0906 408.212 37.6785C408.498 37.8633 408.85 38.0649 409.186 38.0817C410.949 38.132 412.729 38.3 414.459 38.0817C415.466 37.9473 416.339 37.7961 417.229 38.3504C417.515 38.5352 417.884 38.636 418.22 38.72C419.211 38.972 419.933 38.5856 420.353 37.6113C420.521 37.2081 420.621 36.7714 420.789 36.2507L420.772 36.2338ZM369.776 41.9789C370.162 40.299 369.961 38.9384 369.155 37.6785C368.063 35.9651 366.502 34.8732 364.638 34.1677C363.479 33.7309 362.27 33.4454 361.33 32.5383C360.658 31.8999 359.718 31.8327 358.844 31.7319C358.24 31.6647 357.669 32.0511 357.669 32.5718C357.652 33.8317 357.115 35.1588 358.206 36.3179C358.609 36.7378 358.811 37.3929 359.012 37.9641C359.08 38.1488 358.928 38.4848 358.777 38.6696C358.559 38.9048 358.274 38.8208 358.139 38.5352C357.82 37.8969 357.367 38.0816 357.165 38.4848C356.527 39.7783 355.57 40.5006 354.143 40.803C353.303 40.9877 353.135 41.5589 353.37 42.4828C353.454 42.8356 353.605 43.1715 353.975 43.2891C354.428 43.4235 354.613 43.0539 354.731 42.7348C354.932 42.1468 355.05 41.5589 355.822 41.4245C356.141 41.3741 356.426 41.0718 356.729 40.887C357.669 40.3158 357.787 40.3326 358.492 41.1389C359.886 42.7348 359.986 42.802 361.8 42.0124C362.404 41.7437 362.908 41.4917 363.496 42.0124C363.983 42.4324 364.52 42.298 364.973 41.9789C365.696 41.4749 366.367 41.4581 367.207 41.7269C367.946 41.9621 368.768 41.878 369.793 41.9452L369.776 41.9789Z" fill="#E6DECB"/>
</svg>
