<svg width="685" height="550" viewBox="0 0 685 550" fill="none" xmlns="http://www.w3.org/2000/svg">
<path d="M190.434 368.562C190.115 369.023 190.346 369.466 190.434 369.909C190.948 372.674 191.622 375.403 192.136 378.168C192.738 381.376 193.678 384.531 194.511 387.703C195.68 392.134 196.868 396.583 198.126 400.978C199.19 404.664 200.342 408.333 201.529 411.984C202.912 416.256 204.223 420.562 205.8 424.781C207.573 429.513 209.079 434.333 211.064 438.995C213.386 444.418 215.46 449.948 217.711 455.389C219.43 459.536 220.989 463.737 223.524 467.512C225.048 469.78 225.739 472.457 226.555 475.044C227.264 477.277 226.023 479.05 224.889 480.751C224.41 481.478 223.152 481.708 222.496 480.698C222.248 480.308 221.947 479.936 221.716 479.528C220.865 478.022 219.696 476.87 218.083 476.143C216.966 475.647 216.08 475.009 215.956 473.485C215.867 472.457 214.893 471.553 214.13 470.72C210.001 466.236 206.119 461.521 202.734 456.47C200.288 452.801 197.524 449.398 195.202 445.659C192.242 440.891 189.211 436.159 186.464 431.25C184.036 426.907 181.466 422.654 179.357 418.17C176.699 412.498 173.898 406.88 171.842 400.942C171.594 400.234 171.204 399.578 170.921 398.887C168.936 394.243 167.128 389.529 165.692 384.672C165.09 382.616 164.31 380.596 163.601 378.593C161.084 371.504 159.471 364.202 157.823 356.882C156.919 352.859 156.157 348.818 155.43 344.759C155.342 344.21 155.094 343.696 154.899 343.164C154.207 341.214 153.764 339.194 153.782 337.12C153.8 335.862 153.623 334.621 153.144 333.558C152.081 331.218 151.708 328.773 151.567 326.256C151.513 325.405 151.443 324.572 150.946 323.845C150.237 322.817 150.486 321.453 149.759 320.425C149.475 320.017 148.961 319.858 148.571 320.194C148.217 320.496 147.827 320.797 147.579 321.169C146.214 323.207 144.513 324.944 142.953 326.823C140.578 329.712 138.239 332.636 135.881 335.543C135.474 336.057 135.084 336.624 134.552 336.979C133.01 337.971 132 339.424 130.954 340.86C130.334 341.711 129.731 342.491 128.739 342.934C128.331 343.111 127.888 343.412 127.64 343.784C126.647 345.291 125.052 346.266 124.042 347.701C122.394 350.041 120.037 351.636 118.14 353.674C116.297 355.659 114.383 357.591 112.274 359.328C111.778 359.735 111.299 360.214 110.909 360.728C110.094 361.774 109.208 362.695 107.949 363.245C106.886 363.705 106.195 364.645 105.468 365.496C103.82 367.445 101.888 369.04 99.8319 370.529C99.4597 370.795 99.0521 371.078 98.7862 371.433C96.8012 374.091 94.1427 376.041 91.5905 378.097C89.9245 379.444 88.2585 380.844 86.3443 381.837C85.9367 382.049 85.5822 382.386 85.2455 382.705C82.6579 385.151 79.8576 387.331 77.0041 389.458C76.6319 389.741 76.3129 390.078 75.9939 390.415C75.6748 390.751 75.4267 391.195 75.0368 391.443C71.4921 393.871 68.6209 397.185 64.9521 399.418C63.9242 400.039 62.9671 400.783 61.7796 401.173C61.0353 401.421 60.4858 402.36 59.7237 402.538C58.5185 402.839 58.0754 404.221 56.9589 404.363C55.7359 404.505 54.9384 405.302 53.9813 405.834C53.4851 406.1 52.9534 406.295 52.4394 406.508C52.014 406.685 51.4469 406.703 51.1456 407.004C49.7986 408.386 47.9908 408.989 46.4311 409.999C45.1019 410.85 43.7372 411.647 42.5497 412.764C41.5394 413.703 40.3343 414.43 39.0404 415.068C37.7289 415.724 36.5946 416.77 35.1944 417.337C33.7234 417.939 32.2524 418.524 30.7636 419.127C28.3355 420.119 25.9251 421.112 23.497 422.087C22.4513 422.494 21.4056 422.92 20.3245 423.203C18.7825 423.593 17.2051 423.753 16.0886 425.17C15.7341 425.614 14.9011 425.649 14.3339 425.95C13.6073 426.322 12.9692 427.173 12.0831 426.783C11.3032 426.447 10.9665 425.56 10.5057 424.869C10.2575 424.479 10.0271 424.072 9.77901 423.664C9.30048 422.92 8.73333 422.335 7.75854 422.388C6.83692 422.441 6.42928 421.838 6.16343 421.094C5.86213 420.296 5.56083 419.517 5.25953 418.737C4.7101 417.319 3.91255 416.078 2.68963 415.104C2.10476 414.643 1.57305 414.076 1.16541 413.473C0.651432 412.711 -0.252464 411.949 0.0665582 410.992C0.456474 409.786 0.296963 408.404 1.39582 407.394C2.56557 406.33 3.52263 405.019 4.92279 404.204C5.33042 403.973 5.70262 403.69 6.03936 403.371C8.89284 400.535 11.764 397.699 14.5821 394.828C16.0177 393.357 17.0634 391.496 18.6762 390.202C21.1397 388.217 23.2134 385.753 25.996 384.141C26.4745 383.857 26.8644 383.432 27.2721 383.042C27.6797 382.652 27.9987 382.156 28.4418 381.837C31.8979 379.338 34.5919 376.112 37.2504 372.833C38.7214 371.008 40.5469 369.519 41.8762 367.569C42.5674 366.559 43.3472 365.637 44.0916 364.68C44.5524 364.095 44.9246 363.404 45.4918 362.926C47.1755 361.49 48.3098 359.7 49.32 357.786C49.7986 356.882 50.3835 356.014 50.986 355.181C53.9813 350.98 56.498 346.514 58.5894 341.782C58.8907 341.108 59.3161 340.47 59.6528 339.814C59.9896 339.158 60.3795 338.503 60.6099 337.794C61.3011 335.667 61.9037 333.487 62.5949 331.36C62.9671 330.19 63.3393 329.056 63.4279 327.816C63.4811 327.089 63.7469 326.344 64.0482 325.671C64.4027 324.873 64.5445 324.076 64.4559 323.207C64.2432 320.886 64.2964 318.582 63.7469 316.26C63.2684 314.239 62.5417 312.325 61.7796 310.429C60.8048 308.001 59.511 305.714 58.3236 303.375C58.0223 302.79 57.7387 302.187 57.3133 301.691C55.6119 299.706 53.8395 297.774 52.1203 295.789C51.2342 294.779 50.0467 294.194 49.0365 293.343C48.5934 292.971 48.1326 292.404 48.5402 291.89C50.153 289.799 49.4441 287.353 49.3909 285.137C49.2846 280.281 48.8947 275.425 48.682 270.569C48.487 266.563 48.044 262.558 48.1148 258.517C48.168 256.106 47.6895 253.678 47.4768 251.25C47.3705 250.134 47.1401 248.982 47.3173 247.9C47.5831 246.093 47.4059 244.356 47.0337 242.619C46.7324 241.236 46.6792 239.854 46.8033 238.436C46.9097 237.249 46.8033 236.008 46.6615 234.821C46.3602 232.038 46.5197 229.238 46.0767 226.437C45.7045 224.133 45.7399 221.776 45.6158 219.454C45.3854 215.254 45.155 211.053 44.9069 206.853C44.9069 206.569 44.8537 206.286 44.8537 206.02C44.5347 199.764 44.0916 193.507 43.9853 187.233C43.9498 184.699 43.7549 182.2 43.5245 179.683C43.5067 179.488 43.4536 179.311 43.4713 179.116C43.8967 174.898 43.0991 170.715 43.0991 166.497C43.0991 163.679 43.2941 160.878 43.3827 158.078C43.4359 156.447 44.198 155.455 45.7399 155.012C46.7324 154.728 47.6895 154.338 48.682 154.072C49.4973 153.842 50.3126 153.558 51.1456 153.523C53.9813 153.381 54.832 153.877 56.4449 156.341C57.331 157.688 57.7741 159.23 58.4122 160.683C58.7844 161.534 59.0325 162.456 59.4579 163.289C61.2834 166.887 62.719 170.644 64.2077 174.401C66.1396 179.275 68.0183 184.167 69.8615 189.076C71.0844 192.32 72.0592 195.652 73.4062 198.824C74.6469 201.749 75.8521 204.691 76.9864 207.686C77.5535 209.175 78.0852 210.681 78.6169 212.17C78.9891 213.216 79.2195 214.332 79.8576 215.272C80.4424 215.378 80.4956 214.935 80.5133 214.616C80.6019 213.304 80.6374 212.01 80.6906 210.699C80.6906 210.415 80.5842 210.114 80.6728 209.866C81.3286 208.058 81.0273 206.162 81.24 204.318C81.6299 200.88 82.0375 197.459 82.1262 193.986C82.1793 191.469 82.711 188.97 83.0123 186.471C83.1896 185.071 83.3845 183.688 83.5086 182.288C83.7744 179.204 84.0403 176.138 84.253 173.054C84.3593 171.654 84.4302 170.254 84.7847 168.872C85.0151 167.968 85.1569 167.028 85.2632 166.107C85.6 163.041 85.8304 159.957 86.2026 156.908C86.8052 152.087 87.4964 147.267 88.1699 142.446C88.6838 138.83 89.2333 135.232 89.7827 131.617C90.0308 129.933 90.5271 128.32 91.1474 126.761C91.5728 125.697 92.3526 125.148 93.5046 125.041C95.1352 124.9 96.4822 125.148 97.9532 126.193C100.824 128.214 102.065 131.174 103.341 134.169C103.625 134.86 103.713 135.658 104.086 136.278C105.858 139.202 106.921 142.393 107.79 145.654C108.534 148.454 109.509 151.201 110.218 154.002C110.82 156.341 111.742 158.61 112.061 161.038C112.221 162.225 112.735 163.36 113.107 164.529C113.408 165.469 113.195 166.638 114.312 167.206C115.304 166.745 115.889 165.859 116.368 164.972C117.52 162.899 119.115 161.197 120.639 159.425C122.217 157.582 124.007 155.933 125.247 153.824C125.425 153.505 125.779 153.31 126.027 153.027C128.703 150.014 131.344 146.983 134.038 144.006C135.35 142.552 136.714 141.117 138.097 139.734C143.183 134.63 148.323 129.579 153.392 124.439C156.423 121.373 159.454 118.324 162.36 115.134C164.948 112.316 167.925 109.87 170.743 107.265C173.491 104.73 176.238 102.178 178.985 99.6437C179.198 99.4488 179.41 99.2715 179.623 99.0943C182.955 96.5244 185.932 93.5291 189.318 91.0124C191.781 89.1691 193.979 86.9537 196.496 85.1636C197.098 84.7383 197.701 84.2597 198.357 83.9053C199.774 83.1609 201.033 82.2038 202.256 81.1581C205.162 78.6591 208.424 76.6032 211.561 74.4055C212.713 73.608 213.794 72.6863 214.999 71.9951C220.032 69.1062 224.906 65.9691 230.011 63.222C232.208 62.0345 234.601 61.1306 236.515 59.4115C236.852 59.1102 237.313 58.9152 237.738 58.738C244.03 56.0617 250.233 53.2083 256.383 50.213C257.145 49.8408 257.925 49.5395 258.723 49.2559C261.807 48.1393 264.89 47.0228 267.974 45.9239C268.683 45.6758 269.392 45.3745 270.119 45.2504C273.096 44.7542 275.897 43.7616 278.732 42.7691C281.285 41.8652 283.89 41.1031 286.566 40.5537C288.037 40.2524 289.455 39.7739 290.926 39.4903C292.947 39.0827 294.967 38.6927 297.005 38.4623C298.6 38.2851 300.16 38.037 301.72 37.7357C303.74 37.3458 305.778 37.0622 307.817 36.7963C309.483 36.5659 311.184 36.495 312.832 36.2292C317.76 35.4316 322.74 35.7861 327.685 35.4316C331.531 35.148 335.323 35.8393 339.169 35.7329C341.154 35.6798 343.104 35.9102 344.93 36.7432C345.178 36.8672 345.461 37.0267 345.727 37.0267C348.474 36.9913 351.062 37.7888 353.685 38.4801C356.769 39.2776 359.87 40.0397 362.954 40.6955C366.924 41.5462 370.629 43.1236 374.404 44.4351C379.349 46.1543 384.134 48.3343 388.636 51.0637C389.026 51.3118 389.38 51.6131 389.752 51.9144C391.276 53.1374 392.765 54.4312 394.538 55.3351C395.193 55.6718 395.778 56.1681 396.328 56.6643C398.951 59.0747 401.662 61.3965 404.108 63.9841C407.298 67.387 410.648 70.6659 412.97 74.8131C414.37 77.3299 416.125 79.6694 417.578 82.1507C418.712 84.0825 419.793 86.0853 420.573 88.1766C421.548 90.8174 422.771 93.3519 423.834 95.9395C425.447 99.8387 426.652 103.88 427.982 107.867C428.496 109.374 428.815 110.934 429.169 112.493C429.612 114.407 429.896 116.357 430.569 118.218C430.817 118.909 430.835 119.689 430.959 120.416C431.19 121.798 431.296 123.216 431.668 124.563C432.554 127.842 432.802 131.209 433.139 134.559C433.316 136.225 433.582 137.891 433.866 139.557C434.291 142.074 434.291 144.59 434.291 147.125C434.291 151.538 434.362 155.933 434.203 160.347C434.061 164.653 433.671 168.942 433.387 173.232C433.051 178.105 431.916 182.855 431.207 187.676C431.012 188.97 430.782 190.264 430.693 191.575C430.516 194.127 429.559 196.485 429.01 198.931C428.194 202.493 427.326 206.038 426.422 209.582C425.979 211.301 425.394 212.985 424.862 214.687C423.25 219.773 421.672 224.86 419.988 229.911C419.368 231.772 418.517 233.562 417.755 235.37C417.454 236.079 417.613 236.628 418.269 237.054C419.51 237.887 420.733 238.737 421.956 239.606C422.558 240.031 423.161 240.474 423.764 240.935C424.136 241.219 424.437 241.644 424.845 241.804C427.131 242.761 428.921 244.409 430.871 245.862C431.686 246.483 432.111 246.429 432.696 245.508C433.919 243.611 435.691 242.14 436.719 240.12C438.793 238.454 440.069 236.114 441.824 234.147C443.756 231.985 445.546 229.698 447.389 227.448C447.513 227.306 447.672 227.146 447.708 226.987C448.08 224.736 449.923 224.736 451.554 224.559C455.559 224.116 459.565 224.027 463.606 224.204C467.239 224.364 470.908 224.169 474.559 224.045C477.926 223.938 481.294 223.708 484.644 223.584C485.565 223.548 486.505 223.708 487.444 223.761C488.933 223.85 490.439 223.921 491.928 224.009C493.115 224.08 493.842 223.495 494.303 222.432C495.224 220.27 496.182 218.143 497.103 215.998C498.308 213.162 499.425 210.291 500.453 207.385C501.8 203.503 503.537 199.746 505.096 195.935C505.593 194.73 506.142 193.525 506.603 192.302C508.393 187.463 510.289 182.678 512.558 178.052C513.054 177.042 513.285 175.925 513.692 174.88C514.703 172.363 515.553 169.775 516.936 167.418C517.645 166.213 518.194 164.884 518.584 163.554C519.346 161.02 520.675 158.751 521.757 156.377C522.341 155.1 522.962 153.842 523.617 152.601C523.972 151.91 524.114 151.201 524.202 150.439C524.309 149.429 524.167 149.252 522.997 149.057C522.82 149.021 522.625 149.057 522.43 149.021C521.579 148.844 521.26 148.029 521.757 147.32C522.235 146.629 522.82 145.991 523.6 145.618C525.709 144.59 527.712 143.403 529.909 142.552C532.887 141.418 535.776 140.089 538.736 138.937C541.713 137.785 544.691 136.686 547.633 135.463C549.228 134.807 550.663 134.027 551.94 132.911C553.038 131.954 554.137 131.262 555.715 131.422C556.619 131.51 557.558 131.209 558.479 131.032C559.915 130.766 561.138 131.245 561.971 132.361C563.708 134.683 565.516 136.952 566.934 139.504C567.855 141.134 568.795 142.747 569.823 144.307C571.01 146.097 572.002 148.011 573.048 149.872C574.519 152.477 575.955 155.083 577.408 157.688C577.745 158.291 578.223 158.344 578.791 157.848C579.145 157.546 579.517 157.245 579.801 156.873C581.29 154.959 582.832 153.08 584.214 151.077C585.242 149.606 586.27 148.135 587.564 146.93C589.832 144.803 591.498 142.18 593.466 139.805C594.653 138.369 595.734 136.828 596.833 135.321C597.489 134.417 598.145 133.566 598.216 132.308C598.251 131.528 598.8 130.784 599.19 130.039C599.297 129.844 599.669 129.65 599.882 129.685C602.239 130.039 604.419 128.958 606.758 128.923C609.913 128.852 612.217 130.164 614.167 132.255C615.053 133.212 615.974 134.134 616.931 135.002C617.623 135.64 618.208 136.367 618.828 137.076C620.795 139.291 623.152 141.099 625.421 143.226C625.616 142.712 625.758 142.464 625.775 142.215C626.024 138.476 626.289 134.736 626.484 130.997C626.555 129.508 626.414 128.001 626.449 126.495C626.484 124.846 625.829 123.606 624.464 122.702C624.145 122.489 623.861 122.259 623.56 122.046C622.248 121.036 622.213 120.841 623.861 120.167C624.712 119.813 624.748 118.643 625.74 118.626C626.484 118.608 627.353 118.891 627.955 118.608C629.373 117.934 630.898 118.218 632.333 117.793C633.645 117.385 634.956 117.686 636.073 118.519C637.81 119.795 639.83 120.628 641.425 122.117C642.099 122.737 642.932 123.269 643.765 123.641C646.441 124.793 648.727 126.619 651.226 128.072C652.963 129.082 654.842 130.022 656.348 131.475C656.738 131.847 657.27 132.131 657.784 132.326C658.936 132.769 659.982 133.407 660.903 134.187C661.931 135.055 663.154 135.516 664.342 136.065C665.955 136.81 667.036 137.909 667.798 139.539C668.985 142.074 670.403 144.519 671.077 147.267C671.13 147.444 671.165 147.639 671.272 147.798C673.948 151.928 675.1 156.731 677.138 161.162C677.528 162.013 677.847 162.881 678.379 163.679C678.68 164.139 678.981 164.671 679.052 165.203C679.247 166.94 680.116 168.428 680.878 169.882C682.367 172.735 683.306 175.748 684.316 178.761C684.795 180.179 684.741 181.544 683.997 182.838C681.906 186.471 681.09 190.512 680.24 194.535C679.105 199.852 677.989 205.169 676.394 210.362C675.242 214.12 674.48 217.966 673.788 221.847C673.735 222.131 673.753 222.414 673.664 222.68C672.512 225.835 671.786 229.131 670.403 232.215C669.801 233.544 668.613 234.395 667.975 235.636C667.479 236.611 666.362 236.983 665.937 237.922C665.529 238.808 665.104 239.57 664.164 239.978C664.04 240.031 663.899 240.297 663.916 240.421C664.164 241.414 662.569 241.077 662.764 242.069C662.853 242.548 662.463 242.548 662.038 242.601C660.726 242.743 660.62 242.902 660.655 244.09C660.691 245.348 660.708 245.419 659.698 245.65C658.298 245.969 657.217 246.465 657.057 248.095C657.022 248.521 656.526 248.485 656.189 248.645C654.363 249.496 653.3 251.144 652.095 252.633C651.864 252.916 652.449 253.483 651.988 253.909C650.039 255.646 649.755 256.213 649.791 258.215C649.791 258.676 649.844 259.155 649.844 259.616C649.844 260.147 649.56 260.502 649.064 260.626C648.337 260.821 647.611 260.98 646.884 261.14C646.512 261.228 646.104 261.228 645.945 261.636C645.714 262.239 646.175 262.416 646.583 262.664C647.558 263.249 647.115 264.135 646.955 264.933C646.884 265.234 646.494 265.234 646.282 265.021C645.821 264.56 645.431 264.029 644.935 263.621C644.651 263.373 644.243 263.408 643.907 263.674C643.552 263.958 643.588 264.56 643.977 264.897C644.19 265.074 644.491 265.145 644.704 265.323C644.899 265.5 645.129 265.73 645.165 265.961C645.218 266.262 644.935 266.475 644.651 266.492C643.871 266.546 643.233 266.935 642.595 267.325C642.258 267.538 641.851 267.644 641.532 267.414C640.645 266.758 640.185 267.237 639.387 267.768C637.686 268.92 636.551 270.764 634.566 271.526C634.318 271.614 634.07 271.845 633.928 272.057C632.953 273.67 631.146 274.539 630.189 276.169C630.047 276.4 629.87 276.719 629.639 276.79C627.778 277.41 627.14 279.129 626.165 280.547C626.059 280.707 626.006 280.937 625.864 281.008C623.223 282.266 622.337 285.315 619.944 286.821C618.42 289.302 615.62 290.685 614.326 293.379C614.06 293.928 613.493 294.424 612.944 294.726C611.065 295.736 609.807 297.367 608.495 298.962C607.609 300.043 606.811 301.195 605.642 302.028C605.057 302.453 604.56 303.074 604.135 303.694C602.717 305.785 600.927 307.575 599.314 309.489C599.084 309.773 598.712 310.11 598.712 310.411C598.747 312.095 597.595 312.573 596.319 313.07C595.77 313.282 595.415 313.814 595.592 314.452C596.248 316.703 594.742 317.908 593.342 319.184C593.129 319.379 592.845 319.485 592.597 319.29C592.03 318.83 591.534 319.06 591.108 319.468C589.283 321.222 587.28 322.782 585.65 324.714C584.923 325.582 584.143 326.362 583.186 326.983C582.211 327.603 581.006 327.993 580.811 329.464C580.758 329.942 579.748 329.623 579.553 330.368C579.322 331.289 578.383 331.821 578.223 332.902C578.046 334.001 577.142 334.852 576.061 335.348C574.307 336.146 573.19 337.687 571.79 338.893C570.833 339.726 570.283 341.002 569.574 342.101C569.433 342.331 569.397 342.739 569.22 342.827C567.306 343.696 566.739 345.84 565.197 347.045C564.435 347.63 564.381 348.995 563.088 349.03C562.662 349.917 561.936 350.466 561.032 350.821C560.784 350.909 560.5 351.122 560.394 351.352C559.596 353.018 557.948 353.851 556.725 355.092C555.963 355.854 555.75 356.864 555.077 357.644C554.811 357.963 555.148 358.3 555.431 358.583C555.803 358.956 555.661 359.31 555.165 359.346C554.439 359.381 553.925 359.558 553.73 360.373C553.659 360.693 553.357 361.065 553.056 361.224C551.869 361.898 551.195 363.05 550.38 364.06C549.937 364.609 549.6 364.875 548.856 364.999C547.792 365.159 547.526 365.708 547.58 367.002C547.615 367.764 547.438 368.367 546.64 368.473C545.364 368.633 544.318 369.164 543.415 370.015C542.83 370.564 542.156 370.689 541.359 370.724C539.001 370.813 536.697 370.387 534.393 369.997C530.795 369.377 527.304 368.367 523.812 367.357C522.058 366.843 520.215 366.435 518.318 366.524C517.574 366.559 516.776 366.665 516.085 366.435C513.657 365.655 511.122 365.513 508.641 364.999C507.099 364.68 505.504 364.556 503.944 364.344C503.2 364.237 502.42 364.237 501.729 363.971C499.07 362.926 496.252 362.748 493.505 362.164C491.946 361.845 490.386 361.508 488.826 361.171C488.277 361.047 487.727 360.87 487.178 360.852C483.332 360.622 479.592 359.7 475.853 358.92C473.407 358.406 470.908 358.105 468.498 357.236C465.325 356.084 461.922 355.748 458.555 355.5C456.96 355.375 455.418 355.198 453.858 354.791C452.688 354.489 451.465 354.401 450.26 354.294C449.409 354.223 448.594 354.383 447.814 354.773C447.318 355.021 446.786 355.216 446.237 355.34C444.571 355.73 443.968 355.535 443.313 354.028C442.302 351.689 440.565 349.793 439.413 347.542C438.828 346.39 437.907 345.645 436.507 345.734C435.815 345.769 435.213 345.521 434.717 345.06C433.547 343.979 432.253 342.934 431.562 341.498C430.374 339.034 428.602 336.961 427.22 334.621C423.888 328.985 420.148 323.597 416.674 318.05C413.785 313.459 411.074 308.763 407.954 304.314C405.756 301.177 403.63 297.951 401.911 294.549C399.66 290.135 396.753 286.094 394.608 281.646C394.573 281.557 394.52 281.486 394.467 281.398C394.165 280.955 393.563 280.955 393.35 281.433C392.393 283.471 391.436 285.492 390.479 287.53C390.319 287.867 390.231 288.257 390.018 288.558C388.582 290.543 387.803 292.883 386.544 294.956C385.818 296.161 385.091 297.367 384.276 298.501C381.688 302.17 378.994 305.768 376.477 309.489C373.766 313.513 371.107 317.589 368.697 321.825C368.059 322.959 367.403 324.111 367.119 325.405C366.889 326.398 367.066 327.195 367.793 327.975C370.008 330.368 372.685 332.051 375.768 333.062C377.647 333.664 379.508 334.267 381.227 335.242C382.078 335.72 382.911 335.986 383.903 335.72C385.038 335.401 385.888 335.862 386.562 336.801C388.263 339.123 389.398 341.711 389.486 344.564C389.54 346.017 389.008 347.489 388.671 348.942C388.529 349.509 388.015 349.863 387.484 350.058C384.931 350.998 382.415 352.043 379.827 352.806C376.211 353.851 372.897 355.57 369.512 357.148C369.175 357.307 368.856 357.502 368.519 357.662C365.56 359.062 362.6 360.462 359.64 361.827C358.949 362.146 358.275 362.447 357.726 362.961C356.308 364.326 354.926 365.726 353.171 366.665C352.444 367.055 352.249 367.8 352.356 368.615C352.71 371.77 353.029 374.942 353.384 378.097C353.419 378.469 353.455 378.859 353.596 379.196C355.262 382.971 356.68 386.888 360.278 389.405C360.65 389.67 360.987 390.025 361.271 390.379C361.997 391.301 362.919 391.904 364.018 392.258C365.4 392.701 366.641 393.286 367.173 394.792C367.811 396.583 368.342 398.355 367.527 400.251C367.084 401.297 366.552 402.272 365.896 403.193C363.327 406.774 360.721 410.318 358.222 413.934C357.265 415.316 356.556 416.858 355.741 418.329C354.784 420.048 353.844 421.768 352.852 423.469C351.895 425.082 350.991 426.712 350.495 428.556C350.371 428.999 350.176 429.442 349.963 429.849C347.517 434.706 345.78 439.845 344.061 444.985C342.874 448.53 341.757 452.11 340.729 455.69C339.542 459.802 337.964 463.843 337.681 468.221C337.557 470.17 336.936 472.084 336.546 473.999C335.944 476.941 335.465 479.9 335.288 482.896C335.253 483.552 335.146 484.207 335.04 484.845C334.136 490.96 333.622 497.128 333.143 503.278C332.63 509.729 333.019 516.198 333.268 522.667C333.516 529.03 334.632 535.322 335.997 541.56C336.334 543.102 337.025 544.573 337.592 546.062C337.964 547.037 338.212 548.029 338.071 549.075C337.982 549.678 337.415 550.139 336.865 549.961C335.731 549.554 334.508 549.306 333.852 548.083C333.303 547.055 332.505 546.293 331.407 545.849C330.556 545.513 330.13 544.786 329.723 544.042C326.94 538.937 324.299 533.762 322.208 528.339C320.737 524.493 319.337 520.611 318.025 516.694C317.051 513.77 316.43 510.757 315.562 507.797C314.428 503.969 313.914 499.946 313.275 495.976C312.637 492.006 312.053 488.018 311.716 484.012C311.273 478.713 310.457 473.431 310.741 468.061C310.901 464.889 311.096 461.698 310.599 458.526C310.493 457.888 310.599 457.214 310.652 456.576C311.078 449.841 311.858 443.16 312.974 436.513C313.559 433.004 314.286 429.53 314.995 426.039C315.154 425.295 315.261 424.586 315.261 423.823C315.243 421.927 315.828 420.19 316.519 418.436C318.539 413.331 321.712 408.9 324.654 404.345C325.363 403.247 326.019 402.095 326.798 401.049C328.11 399.276 327.791 397.522 326.869 395.767C325.646 393.445 324.867 393.375 323.307 395.43C322.456 396.547 321.659 397.699 320.808 398.833C319.514 400.553 318.344 402.378 316.785 403.885C316.182 404.469 315.65 405.143 315.207 405.852C312.602 410.088 309.323 413.845 306.647 418.01C304.821 420.846 303.155 423.77 301.436 426.677C300.586 428.13 299.788 429.619 298.919 431.072C297.573 433.323 296.172 435.539 294.861 437.807C293.833 439.58 292.84 441.352 292.22 443.355C291.422 445.942 290.164 448.37 289.242 450.923C288.321 453.475 287.559 456.08 286.726 458.668C286.637 458.934 286.513 459.199 286.495 459.483C286.336 463.542 284.794 467.352 284.493 471.393C284.404 472.705 284.209 473.999 284.191 475.31C284.191 476.622 283.961 477.915 283.837 479.209C283.589 481.708 283.536 484.26 283.606 486.777C283.766 491.917 284.227 497.039 285.29 502.09C285.893 504.926 286.07 507.85 287.027 510.615C287.24 511.236 287.399 511.891 287.701 512.459C289.03 514.975 289.632 517.705 290.146 520.487C290.519 522.508 289.934 524.191 288.906 525.804C288.02 527.187 286.495 527.258 285.432 525.946C284.315 524.564 283.27 523.128 282.242 521.657C281.586 520.718 280.948 519.849 279.725 519.548C279.087 519.388 278.555 518.963 278.13 518.431C276.641 516.624 274.993 514.922 273.717 512.972C271.714 509.924 269.534 506.982 267.992 503.632C267.443 502.445 266.787 501.31 266.167 500.141C265.954 499.733 265.635 499.343 265.529 498.9C264.837 495.958 263.154 493.423 262.232 490.588C262.143 490.322 262.019 490.056 262.002 489.79C261.683 486.972 260.442 484.402 259.822 481.691C258.687 476.675 257.305 471.695 257.429 466.466C257.464 464.818 256.879 463.152 256.897 461.504C256.933 458.526 256.224 455.584 256.72 452.553C257.181 449.7 257.198 446.775 257.518 443.904C257.748 441.866 258.031 439.828 258.528 437.843C259.219 435.131 260.105 432.455 260.105 429.601C260.105 429.229 260.247 428.857 260.371 428.52C261.842 424.284 262.746 419.853 264.731 415.777C264.979 415.281 265.121 414.731 265.316 414.2C265.635 413.313 265.883 412.41 266.273 411.559C267.691 408.617 269.091 405.675 270.562 402.768C272.707 398.514 275.081 394.367 277.527 390.273C279.211 387.473 281.161 384.814 283.057 382.138C286.903 376.715 290.66 371.22 294.701 365.939C297.253 362.607 299.717 359.151 302.819 356.262C303.368 355.748 303.793 355.127 304.29 354.578C304.591 354.241 305.052 353.904 304.715 353.408C304.485 353.071 304.042 353.178 303.669 353.213C303.386 353.231 302.996 353.142 302.854 353.302C301.631 354.631 299.894 354.011 298.476 354.542C296.934 355.127 295.322 354.844 293.744 354.968C292.061 355.092 290.43 355.482 288.729 355.535C286.743 355.606 284.812 355.251 282.862 355.074C279.92 354.808 277.261 353.621 274.514 352.717C272.175 351.955 270.048 350.714 268.027 349.403C266.06 348.144 264.554 346.266 263.029 344.511C261.629 342.88 260.371 341.126 259.095 339.407C258.404 338.485 257.517 337.812 256.614 337.156C254.699 335.773 252.998 334.178 251.314 332.548C249.489 330.775 247.894 328.861 246.866 326.486C246.423 325.458 245.767 324.537 245.235 323.544C243.959 321.134 243.516 318.404 242.577 315.87C242.328 315.196 242.275 314.381 242.328 313.654C242.488 311.616 242.417 309.56 242.754 307.54C243.232 304.81 243.215 301.992 244.739 299.476C245.324 298.501 245.483 297.172 245.093 295.913C244.969 295.488 245.005 294.974 245.058 294.513C245.501 290.72 245.997 286.91 247.468 283.347C248.762 280.228 250.251 277.197 251.686 274.149C252.218 273.032 252.998 272.022 253.991 271.349C255.798 270.126 255.94 268.194 256.117 266.421C256.295 264.685 256.082 262.877 255.976 261.122C255.869 259.368 254.894 257.613 252.909 257.152C248.62 256.195 244.314 255.309 239.865 255.929C238.837 256.071 237.933 256.567 236.887 256.691C235.594 256.833 234.335 257.258 233.095 257.666C232.297 257.932 231.57 258.375 230.826 258.765C230.082 259.155 229.373 259.651 228.611 259.97C226.2 261.016 223.878 262.186 221.805 263.798C221.503 264.029 221.202 264.259 220.848 264.383C219.128 265.039 217.817 266.226 216.612 267.556C214.432 269.984 211.933 272.093 210.001 274.751C206.598 279.448 204.843 284.659 204.666 290.454C204.56 293.822 204.276 297.189 203.957 300.539C203.851 301.656 203.78 302.755 203.886 303.889C204.329 308.55 204.755 313.194 205.145 317.855C205.481 321.967 205.924 326.061 206.509 330.137C207.307 335.88 208.016 341.64 208.778 347.4C208.92 348.41 209.115 349.438 209.416 350.413C210.143 352.646 210.71 354.915 211.082 357.236C211.614 360.568 212.801 363.759 213.581 367.037C213.847 368.136 214.095 369.217 214.343 370.316C214.467 370.866 214.503 371.468 214.751 371.947C215.832 374.056 216.31 376.36 217.055 378.558C218.118 381.659 218.827 384.867 219.678 388.022C220.83 392.347 222.088 396.671 223.542 400.907C225.527 406.667 227.76 412.321 230.17 417.922C231.801 421.697 233.573 425.436 235.239 429.211C236.249 431.515 237.189 433.873 237.774 436.336C238.075 437.648 238.057 438.924 237.561 440.2C237.011 441.6 235.718 442.079 234.477 441.015C229.993 437.169 225.81 433.04 221.876 428.627C218.189 424.479 215.105 419.871 212.075 415.281C209.912 412.002 208.087 408.51 206.19 405.054C204.613 402.183 203.071 399.294 201.706 396.317C200.023 392.666 198.233 389.068 196.832 385.275C195.414 381.411 193.89 377.583 192.437 373.719C191.941 372.408 191.551 371.061 191.09 369.731C190.948 369.324 191.019 368.774 190.416 368.65L190.434 368.562ZM78.6346 301.744C80.5311 304.35 83.0832 304.793 85.7595 304.633C87.6204 304.527 89.4459 304.137 91.2892 303.836C91.6437 303.782 92.069 303.658 92.2994 303.41C93.3451 302.329 94.6389 301.62 95.8441 300.769C96.6771 300.185 97.2974 299.352 97.776 298.412C98.5558 296.906 99.1052 295.364 99.4952 293.698C100.293 290.189 99.6192 286.963 97.5633 284.127C95.1529 280.813 93.93 280.6 91.2183 284.109C91.112 284.251 91.0411 284.446 90.917 284.588C90.3321 285.315 90.2612 286.094 90.598 286.945C91.112 288.257 91.6082 289.568 92.069 290.88C92.3526 291.677 92.6539 292.475 92.778 293.29C92.9906 294.726 92.3349 295.63 90.9524 295.984C90.5094 296.091 90.0308 296.126 89.57 296.161C87.904 296.321 86.2203 296.516 84.5543 296.64C83.6327 296.711 82.8528 296.977 82.6224 297.934C82.1262 299.954 80.5842 300.858 78.6524 301.727L78.6346 301.744Z" fill="#E6DECB"/>
<path d="M604.152 0.0737145C604.72 0.0559911 605.269 -0.0149028 605.836 0.00282069C607.059 0.0382676 608.353 0.00282069 608.565 1.70427C608.601 1.93468 608.885 2.14736 609.062 2.36004C610.551 4.09694 611.118 6.08197 610.568 8.33285C610.196 9.87479 610.497 11.2927 611.224 12.6751C612.022 14.1639 612.713 15.6881 613.599 17.1237C615.176 19.7113 615.885 22.6357 617.126 25.3474C617.551 26.2867 617.888 27.2792 618.455 28.1299C620.671 31.4265 621.929 35.1839 623.56 38.7463C624.605 41.0326 625.615 43.3544 626.768 45.6053C627.955 47.927 628.912 50.3906 629.975 52.7833C630.312 53.5454 630.667 54.3252 631.021 55.0873C631.447 56.0267 632.049 56.9306 632.262 57.9053C633.024 61.3437 634.849 64.3212 636.267 67.4583C637.278 69.6915 637.809 72.0664 638.731 74.3173C639.192 75.4516 639.546 76.6213 640.078 77.7025C640.787 79.1912 640.751 80.8041 640.982 82.3637C641.035 82.7182 640.964 83.1436 640.804 83.4626C639.316 86.6528 638.5 90.2329 635.665 92.6788C635.239 93.0332 634.973 93.5649 634.601 93.9726C633.166 95.55 631.96 97.3755 629.887 98.2794C629.727 98.3503 629.515 98.4566 629.444 98.5984C628.416 100.371 626.448 101.027 624.995 102.32C623.187 103.933 620.901 104.89 618.739 105.989C617.994 106.379 617.197 106.609 616.594 107.265C616.151 107.761 615.495 107.974 614.857 108.134C613.829 108.364 612.996 108.949 612.075 109.41C610.001 110.455 607.839 111.306 605.712 112.228C605.464 112.334 605.127 112.299 604.897 112.44C602.291 113.894 599.42 114.39 596.531 114.55C595.007 114.638 594.032 115.95 592.597 115.861C591.267 115.772 589.991 115.577 588.839 116.464C588.184 116.96 587.386 116.464 586.642 116.676C584.231 117.421 581.697 117.421 579.233 117.899C577.868 118.165 576.451 118.183 575.033 118.023C573.739 117.864 572.41 117.935 571.116 117.917C570.832 117.917 570.531 118.041 570.283 117.97C567.199 117.243 563.991 117.173 560.943 116.162C560.305 115.95 559.755 115.666 559.206 115.294C558.355 114.727 557.398 114.319 556.547 113.734C554.686 112.476 552.825 111.2 552.045 108.913C551.904 108.47 551.638 108.08 551.461 107.637C550.858 105.954 549.706 104.873 548.093 104.075C545.913 102.994 543.822 101.718 542.351 99.6618C542.032 99.201 541.677 98.7579 541.394 98.2794C540.525 96.7197 540.826 95.4082 542.262 94.3979C542.404 94.2916 542.617 94.1675 542.776 94.203C544.389 94.5929 545.895 93.6358 547.508 93.8131C548.625 93.9371 549.263 93.2991 549.688 92.3952C550.397 90.871 551.106 89.3468 551.762 87.7871C552.878 85.1109 554.048 82.4878 555.519 79.9711C556.831 77.7202 557.717 75.2212 558.851 72.864C560.553 69.3193 562.431 65.8632 564.062 62.283C566.047 57.9408 568.351 53.7581 570.496 49.5044C572.693 45.1622 574.466 40.6073 577.106 36.5131C577.354 36.1232 577.603 35.7156 577.762 35.2725C578.914 32.295 580.828 29.6896 582.069 26.7652C583.416 23.5927 585.401 20.7393 586.393 17.3718C587.156 14.7842 588.503 12.3915 589.601 9.89251C590.009 8.95317 590.629 8.03155 590.789 7.05676C591.072 5.33758 591.959 4.18556 593.341 3.22849C594.564 2.39549 595.592 1.20802 597.258 1.27891C597.524 1.27891 597.807 1.19029 598.073 1.10168C599.048 0.747206 599.97 0.268673 601.015 0.215502C602.043 0.162332 603.071 0.091438 604.099 0.0382676C604.099 0.0382676 604.099 0.0559911 604.099 0.0737145H604.152Z" fill="#E6DECB"/>
</svg>
