<svg width="478" height="237" viewBox="0 0 478 237" fill="none" xmlns="http://www.w3.org/2000/svg">
<g clip-path="url(#clip0_19_61)">
<path d="M389.076 37.72C390.97 34.4192 392.93 31.1518 394.713 27.7954C396.061 25.2504 397.687 24.5058 400.818 24.5947C406.912 24.7614 413.05 24.0501 419.133 23.3944C424.013 22.8609 425.561 24.2724 423.5 28.7401C418.208 40.2206 412.75 51.6343 406.934 62.8592C404.84 66.9046 404.338 69.8275 407.135 73.9618C415.134 85.7423 422.531 97.923 430.14 109.97C430.942 111.237 431.555 112.626 432.647 114.705C429.817 115.316 427.667 116.105 425.494 116.183C419.367 116.416 413.217 116.294 407.09 116.438C403.492 116.527 401.798 114.782 400.706 111.459C398.601 105.069 396.061 98.8232 393.71 92.5217C393.187 92.6551 392.663 92.7995 392.139 92.9329C392.93 99.201 393.543 105.491 394.568 111.715C395.17 115.349 394.044 116.616 390.413 116.505C384.274 116.316 378.136 116.327 371.997 116.427C368.822 116.483 367.207 115.094 366.928 112.004C365.201 92.8884 362.494 73.8618 364.6 54.535C365.547 45.8107 364.956 36.9087 365.012 28.0955C365.012 27.3175 364.277 26.4618 364.421 25.7616C364.678 24.5502 365.268 22.4719 365.859 22.4275C372.955 21.8607 380.074 21.5273 387.193 21.405C387.839 21.405 389.087 23.3833 389.065 24.4168C388.975 28.8068 388.519 33.1856 388.196 37.5644C388.485 37.6199 388.775 37.6866 389.065 37.7422L389.076 37.72Z" fill="#E6DECB"/>
<path d="M93.0689 77.696C94.7957 68.0382 98.9289 39.4204 100.255 29.6959C100.756 26.0394 101.993 25.0948 105.235 25.2726C112.019 25.6616 113.178 25.995 119.974 25.9839C123.026 25.9839 123.973 27.1175 123.617 30.007C122.179 41.6653 120.519 53.2903 119.372 64.9819C117.723 81.8081 116.264 98.6565 115.161 115.516C114.893 119.628 113.791 121.106 109.902 121.039C102.683 120.928 95.4642 121.206 88.245 121.117C81.8169 121.039 80.7585 119.973 79.3994 113.371C75.5336 94.5888 71.7569 75.7955 67.7351 57.0578C65.8858 48.4336 63.4683 39.9316 61.4852 31.3296C61.307 30.585 62.3096 28.8401 62.9781 28.7067C68.5484 27.5842 74.1633 26.3617 79.8004 26.0394C81.2153 25.9616 83.7331 28.829 84.123 30.7072C85.9278 39.2314 90.6626 66.8935 92.0774 75.4955C92.1888 76.1734 92.2334 76.8736 92.3114 77.5626C92.5676 77.596 92.8238 77.6404 93.0801 77.6738L93.0689 77.696Z" fill="#E6DECB"/>
<path d="M155.3 61.1033C161.751 60.8254 168.012 60.6587 174.251 60.2364C178.116 59.9808 179.698 61.47 179.576 65.3487C179.398 71.1501 179.453 76.9514 179.542 82.7528C179.598 86.2091 178.272 87.854 174.596 87.9762C167.733 88.2207 160.882 88.832 153.607 89.321C153.796 92.2328 153.941 94.5222 154.12 97.2117C160.147 96.7116 166.007 96.1004 171.867 95.7781C180.801 95.2891 182.461 96.945 182.172 105.814C182.06 109.403 182.038 113.06 181.247 116.527C180.957 117.783 178.573 119.339 177.08 119.417C166.731 119.984 156.359 120.184 145.987 120.517C144.572 120.562 143.157 120.662 141.765 120.862C135.726 121.74 134 120.817 133.632 114.582C132.707 98.8121 132.094 83.0084 131.627 67.2158C131.281 55.4797 131.604 43.7214 131.148 31.9964C130.98 27.7065 132.406 25.9061 136.45 25.5838C148.817 24.5725 161.172 23.3944 173.56 22.5276C179.208 22.1386 179.587 23.0166 179.576 28.6512C179.576 35.2194 179.943 41.7987 180.333 48.3669C180.501 51.2676 179.698 52.6457 176.546 52.8569C170.908 53.2459 165.316 54.1905 159.679 54.6017C155.657 54.9018 153.841 56.4355 155.312 61.081L155.3 61.1033Z" fill="#E6DECB"/>
<path d="M263.075 22.9498C272.032 22.4385 275.218 21.6606 283.763 21.4272C289.378 21.2716 290.158 22.2607 290.403 27.6509C291.428 49.9561 292.352 72.2613 293.489 94.5666C293.823 100.968 294.558 107.381 295.516 113.715C296.029 117.105 294.502 118.305 291.717 118.461C283.295 118.917 280.231 119.539 271.82 119.395C270.171 119.361 267.654 116.716 267.13 114.827C265.916 110.459 265.515 105.825 265.058 101.279C262.495 76.14 261.214 50.9563 262.819 25.6949C262.863 24.9391 262.963 24.1945 263.075 22.9498Z" fill="#E6DECB"/>
<path d="M109.958 138.588C117.678 138.588 119.194 139.133 126.669 139.066C129.9 139.044 132.128 140.4 133.532 143.278C136.963 150.324 140.416 157.359 143.915 164.372C144.962 166.461 146.154 168.484 147.847 171.585C147.847 161.238 148.181 152.158 147.691 143.122C147.48 139.255 148.56 137.966 152.103 137.566C156.125 137.11 160.158 136.532 164.09 135.621C172.279 133.731 172.88 137.165 173.448 145.667C175.108 170.34 176.59 195.023 178.116 219.696C178.306 222.708 178.161 225.753 178.517 228.731C178.941 232.31 177.57 234.377 174.017 234.477C166.318 234.688 162.43 234.277 154.732 234.044C153.395 233.999 151.68 232.299 150.878 230.932C147.379 224.942 144.149 218.796 140.818 212.717C140.205 211.605 139.547 210.527 138.133 209.638C138.511 217.951 138.901 226.275 139.302 235.155C131.248 235.466 129.721 235.4 122.213 235.489C119.45 235.522 117.4 234.133 117.01 230.921C115.339 217.184 113.066 203.503 111.93 189.722C110.571 173.352 110.147 156.915 109.368 140.5C109.334 139.822 109.78 139.121 109.958 138.577V138.588Z" fill="#E6DECB"/>
<path d="M207.439 154.325C209.333 151.024 211.293 147.757 213.076 144.401C214.424 141.855 216.05 141.111 219.181 141.2C225.275 141.366 231.413 140.655 237.496 139.999C242.376 139.466 243.924 140.877 241.863 145.345C236.571 156.826 231.113 168.239 225.297 179.464C223.203 183.51 222.701 186.433 225.498 190.567C233.497 202.347 240.894 214.528 248.503 226.575C249.305 227.842 249.918 229.232 251.01 231.31C248.18 231.921 246.03 232.71 243.857 232.788C237.73 233.021 231.58 232.899 225.453 233.044C221.855 233.132 220.161 231.388 219.07 228.065C216.964 221.674 214.424 215.428 212.073 209.127C211.55 209.26 211.026 209.405 210.502 209.538C211.293 215.806 211.906 222.097 212.931 228.32C213.533 231.954 212.407 233.221 208.776 233.11C202.637 232.921 196.499 232.932 190.36 233.032C187.185 233.088 185.57 231.699 185.291 228.609C183.564 209.494 180.857 190.467 182.963 171.14C183.91 162.416 183.319 153.514 183.375 144.701C183.375 143.923 182.64 143.067 182.784 142.367C183.041 141.155 183.631 139.077 184.222 139.033C191.318 138.466 198.437 138.132 205.556 138.01C206.202 138.01 207.45 139.988 207.428 141.022C207.338 145.412 206.882 149.791 206.559 154.169C206.848 154.225 207.138 154.292 207.428 154.347L207.439 154.325Z" fill="#E6DECB"/>
<path d="M346.084 206.915C342.452 212.861 339.478 217.729 335.979 223.463C331.423 218.207 327.646 213.839 322.889 208.349C323.435 215.273 323.725 220.974 324.36 226.642C325.619 237.911 324.683 235.466 316.205 235.611C310.189 235.711 305.844 235.022 299.828 234.866C294.113 234.722 294.904 233.132 294.904 227.431C294.915 204.181 295.327 180.942 295.405 157.692C295.427 151.513 294.648 145.334 294.67 139.155C294.67 138.11 296.898 136.165 298.079 136.176C307.437 136.254 312.328 137.499 321.686 137.732C327.635 137.877 327.824 138.277 328.549 144.078C329.373 150.735 330.844 157.315 332.024 163.927C332.526 163.994 333.016 164.05 333.517 164.116C336.202 157.337 339.099 150.635 341.472 143.756C342.53 140.666 343.767 139.344 347.243 139.388C354.796 139.488 352.768 138.666 360.322 138.388C364.232 138.243 365.925 139.677 366.393 143.889C367.396 152.88 369.502 161.749 370.515 170.751C371.518 179.598 372.019 188.522 372.198 197.435C372.432 208.982 372.019 220.541 372.153 232.099C372.198 235.411 371.061 236.466 367.931 236.3C360.689 235.933 363.051 236.155 355.81 235.844C351.565 235.666 349.493 233.288 348.992 229.154C348.145 222.141 347.153 215.139 346.062 206.904L346.084 206.915Z" fill="#E6DECB"/>
<path d="M143.926 14.1033C144.294 10.9359 144.706 7.13496 145.185 3.33407C145.263 2.74505 145.552 2.06711 145.965 1.66702C149.285 -1.56708 158.576 0.711236 161.974 1.81149C164.402 2.58945 164.725 4.50101 164.38 6.85712C164.068 9.01318 164.258 11.2359 164.191 13.4364C164.102 16.5705 162.653 18.2153 159.579 18.7155C158.041 18.96 150.699 18.8155 149.151 19.0711C144.327 19.8491 143.87 19.4823 143.926 14.1144V14.1033Z" fill="#E6DECB"/>
<path d="M56.5165 116.516C55.7478 107.692 55.2019 98.8343 54.7118 89.9878C54.5558 87.0871 52.8624 86.6536 50.5563 86.6536C45.8327 86.6648 41.0979 86.6536 34.9706 86.6536C40.2846 79.2297 44.9191 72.7837 49.5202 66.3044C50.69 64.6485 52.6507 62.9259 52.6953 61.2032C52.8736 54.1238 52.3945 47.0221 52.2497 39.9316C52.1606 35.7195 52.2385 31.4963 52.2385 26.8285C50.9462 26.4062 49.4422 25.4949 47.9271 25.4726C44.9303 25.4393 41.9446 25.4282 38.9478 25.3948L33.4554 30.8739L26.37 25.2948C25.3896 25.2948 27.3504 25.2837 26.37 25.2726L18.928 31.2407L12.9567 25.2837C9.67018 25.2837 6.39483 25.2726 3.10834 25.2948C2.18367 25.2948 0.501434 27.3064 0.479152 28.4067C0.278621 39.4981 0.278621 50.5896 0.390027 61.6811C0.423449 65.4709 2.67386 67.1713 6.47281 67.0602C10.0601 66.9601 13.6585 67.0379 17.58 67.0379C15.2516 69.8497 12.9789 72.5392 10.762 75.2732C5.8378 81.3413 0.356605 86.8426 1.3147 95.9781C1.94972 102.046 0.61284 108.337 0.0335269 114.516C-0.26727 117.683 1.27014 118.706 4.15556 118.839C20.1424 119.55 36.1403 120.273 52.116 121.128C55.7144 121.317 56.8173 120.028 56.5054 116.505L56.5165 116.516Z" fill="#E6DECB"/>
<path d="M308.607 26.9619C308.083 26.9175 307.57 26.873 307.047 26.8286C307.247 29.0291 307.459 31.2296 307.637 33.4301C307.726 34.4859 307.804 35.5417 307.782 36.5864C307.548 49.8673 307.225 63.1482 307.091 76.4291C307.036 82.1082 309.175 84.3754 314.879 84.831C317.775 85.0644 320.716 84.6643 323.646 84.5754C325.507 84.5087 327.39 84.2642 329.194 84.5199C329.907 84.6199 330.698 85.7868 330.966 86.6203C331.077 86.9538 329.941 88.0651 329.239 88.2096C327.423 88.5764 325.54 88.7764 323.68 88.7208C318.533 88.5764 313.397 88.2652 307.96 87.9984C307.96 90.2656 307.882 92.0994 307.972 93.9221C308.228 98.6898 308.707 103.447 308.818 108.203C308.985 114.994 310.222 116.483 317.163 116.194C325.953 115.827 334.72 115.06 343.51 114.571C349.66 114.238 350.328 114.038 351.364 107.87C353.381 95.7892 355.085 83.6974 352.077 71.4501C350.384 64.5263 346.797 60.9477 339.711 60.1697C336.269 59.7918 332.759 59.4918 329.473 58.5138C327.958 58.0692 326.899 56.091 325.641 54.8129C327.055 53.9127 328.437 52.3123 329.896 52.2345C335.344 51.9678 340.836 51.9567 346.284 52.3234C349.292 52.5235 350.217 51.1231 350.195 48.7559C350.139 42.2433 350.039 35.7306 349.593 29.2402C349.504 27.9955 347.888 26.0506 346.696 25.8061C344.513 25.3727 342.329 24.9614 340.146 24.628L335.21 29.5514L328.103 23.6389C327.334 23.6389 328.871 23.6389 328.103 23.6611L320.683 29.9293L316.026 25.2837" fill="#E6DECB"/>
<path d="M437.816 21.4717C446.773 20.9605 449.959 20.1826 458.504 19.9492C464.119 19.7936 464.899 20.7827 465.144 26.1728C466.169 48.4781 467.094 70.7833 468.23 93.0885C468.564 99.49 469.299 105.903 470.257 112.237C470.77 115.627 469.244 116.827 466.459 116.983C458.036 117.439 454.973 118.061 446.561 117.917C444.913 117.883 442.395 115.238 441.871 113.349C440.657 108.981 440.256 104.347 439.799 99.8012C437.237 74.662 435.955 49.4783 437.56 24.2168C437.604 23.4611 437.705 22.7165 437.816 21.4717Z" fill="#E6DECB"/>
<path d="M72.002 140.533C80.9591 140.022 84.1453 139.244 92.6902 139.01C98.305 138.855 99.0849 139.844 99.33 145.234C100.355 167.539 101.28 189.844 102.416 212.15C102.75 218.551 103.485 224.964 104.444 231.299C104.956 234.688 103.43 235.889 100.645 236.044C92.2222 236.5 89.1586 237.122 80.7474 236.978C79.0986 236.944 76.5808 234.299 76.0572 232.41C74.8429 228.042 74.4418 223.408 73.985 218.862C71.4227 193.723 70.1415 168.539 71.7458 143.278C71.7903 142.522 71.8906 141.778 72.002 140.533Z" fill="#E6DECB"/>
<path d="M255.588 139.888C264.545 139.377 267.732 138.599 276.277 138.366C281.891 138.21 282.671 139.199 282.916 144.589C283.941 166.895 284.866 189.2 286.002 211.505C286.337 217.907 287.072 224.319 288.03 230.654C288.542 234.044 287.016 235.244 284.231 235.4C275.809 235.855 272.745 236.478 264.334 236.333C262.685 236.3 260.167 233.655 259.644 231.765C258.429 227.398 258.028 222.763 257.571 218.218C255.009 193.079 253.728 167.895 255.332 142.633C255.377 141.878 255.477 141.133 255.588 139.888Z" fill="#E6DECB"/>
<path d="M445.447 139.577C454.404 139.066 457.59 138.288 466.135 138.055C471.75 137.899 472.53 138.888 472.775 144.278C473.8 166.584 474.724 188.889 475.861 211.194C476.195 217.596 476.93 224.008 477.888 230.343C478.401 233.733 476.875 234.933 474.089 235.088C465.667 235.544 462.603 236.167 454.192 236.022C452.543 235.989 450.026 233.344 449.502 231.454C448.288 227.087 447.887 222.452 447.43 217.907C444.868 192.767 443.586 167.584 445.191 142.322C445.235 141.567 445.335 140.822 445.447 139.577Z" fill="#E6DECB"/>
<path d="M255.054 111.437C253.984 108.814 252.803 106.169 251.255 103.813C245.684 95.4113 239.936 87.1204 234.076 78.5406C234.599 78.4073 235.546 78.2072 236.471 77.9294C244.904 75.351 249.962 70.2276 250.909 60.981C251.99 50.5118 249.617 40.5984 247.222 30.6627C246.219 26.484 242.687 24.2724 238.732 23.75C225.464 22.0052 212.229 19.5268 198.715 21.6829C192.477 22.6831 190.683 24.528 190.616 30.8406C190.538 37.7866 190.148 44.7327 190.003 51.6788C189.892 57.0801 189.747 62.5035 189.937 67.9048C190.449 82.6861 191.062 97.4673 191.853 112.226C191.942 113.927 193.089 116.672 194.292 117.016C202.247 119.284 210.424 119.695 218.991 119.272C218.434 111.893 217.933 105.158 217.432 98.412C220.217 103.735 221.71 109.248 223.949 114.427C224.729 116.216 227.347 118.283 229.196 118.361C236.593 118.65 244.035 118.472 251.433 117.939C256.379 117.583 256.992 116.138 255.076 111.437H255.054ZM226.734 62.9036C222.991 66.3933 219.225 67.6825 213.822 65.4709C213.822 62.0145 213.844 58.2137 213.822 54.4128C213.789 49.9117 213.766 45.4106 213.61 40.9207C213.521 38.2201 214.412 37.1865 217.331 37.2198C226.066 37.331 230.098 40.9985 230.611 49.8561C230.889 54.6573 230.778 59.1361 226.734 62.9148V62.9036Z" fill="#E6DECB"/>
<path d="M440.244 231.865C437.938 216.106 435.832 200.314 433.348 184.577C431.254 171.318 428.647 158.148 426.485 144.901C425.973 141.8 425.951 140.6 423.433 140.655C417.851 140.777 413.941 141 408.371 141.233C403.057 141.455 401.007 144.245 395.448 141.933C390.624 139.933 390 140.522 389.955 145.723C389.933 147.557 389.554 149.413 389.175 151.235C387.36 159.86 384.82 168.395 383.772 177.097C381.622 194.89 380.207 212.761 378.714 230.621C378.603 231.921 380.23 234.533 381.11 234.566C390.234 234.911 395.726 234.944 404.861 234.844C408.148 234.811 409.329 232.688 409.084 229.487C408.828 226.253 408.605 222.974 408.85 219.751C409.017 217.54 410.008 215.395 410.643 213.217C411.045 213.294 411.446 213.372 411.847 213.45C412.114 213.95 412.537 214.439 412.627 214.973C413.473 220.007 414.331 225.042 415.044 230.087C415.59 233.944 417.573 235.733 421.584 235.655C427.633 235.544 430.262 236.089 436.312 236.322C439.754 236.455 440.723 235 440.266 231.865H440.244ZM405.987 195.99C404.527 196.046 404.271 195.246 404.472 194.19C405.786 187.399 407.156 180.609 408.504 173.818C408.761 172.563 408.995 171.296 409.34 169.484C411.145 178.542 412.849 187.066 414.632 195.957C411.479 195.957 408.727 195.89 405.987 195.99Z" fill="#E6DECB"/>
<path d="M65.2173 228.353C64.1478 225.731 62.9669 223.086 61.4184 220.729C55.8481 212.328 50.0995 204.037 44.2395 195.457C44.7631 195.324 45.7101 195.123 46.6348 194.846C55.0682 192.267 60.1261 187.144 61.073 177.897C62.1537 167.428 59.7807 157.515 57.3855 147.579C56.3828 143.4 52.8512 141.189 48.8963 140.666C35.6278 138.921 22.3927 136.443 8.87916 138.599C2.64041 139.599 0.846765 141.444 0.779922 147.757C0.701937 154.703 0.312015 161.649 0.167187 168.595C0.0557806 173.996 -0.0890476 179.42 0.100343 184.821C0.612812 199.602 1.22555 214.384 2.01653 229.143C2.10566 230.843 3.25314 233.588 4.45633 233.933C12.4107 236.2 20.588 236.611 29.1551 236.189C28.5981 228.809 28.0968 222.074 27.5954 215.328C30.3806 220.652 31.8734 226.164 34.1127 231.343C34.8925 233.132 37.5106 235.2 39.3599 235.277C46.7573 235.566 54.1993 235.388 61.5966 234.855C66.5431 234.499 67.1558 233.055 65.2396 228.353H65.2173ZM37.6888 180.498C33.9456 183.988 30.18 185.277 24.7768 183.065C24.7768 179.609 24.7991 175.808 24.7768 172.007C24.7434 167.506 24.7211 163.005 24.5652 158.515C24.476 155.814 25.3673 154.781 28.2861 154.814C37.0204 154.925 41.0533 158.593 41.5658 167.45C41.8443 172.251 41.7329 176.73 37.6888 180.509V180.498Z" fill="#E6DECB"/>
</g>
<defs>
<clipPath id="clip0_19_61">
<rect width="478" height="237" fill="white"/>
</clipPath>
</defs>
</svg>
