<svg width="198" height="198" viewBox="0 0 198 198" fill="none" xmlns="http://www.w3.org/2000/svg">
<path d="M107.075 0H114.06C115.108 0.345788 116.538 0.397489 117.655 0.617318C119.143 0.909899 120.626 1.22044 122.077 1.66597C132.455 4.84372 141.151 11.9876 146.269 21.5389C148.665 26.0043 149.325 29.6046 153.228 33.2876C157.094 36.936 160.827 37.1989 165.557 39.1447C178.696 44.661 189.072 55.2005 194.365 68.4069C195.655 71.6139 196.603 74.9473 197.195 78.352C197.389 79.5044 197.745 82.7604 198 83.6516V90.9505C197.689 91.9125 197.539 93.8429 197.383 94.9265C197.121 96.7424 196.75 98.5405 196.271 100.313C193.082 111.979 185.951 122.187 176.086 129.212C174.689 130.208 173.244 131.137 171.757 131.996C168.786 133.707 166.838 134.39 164.525 137.16C162.18 139.967 161.722 142.183 160.349 145.357C157.801 151.25 153.049 156.077 147.44 159.15C140.569 162.913 133.199 163.888 125.668 161.686C123.644 161.091 121.689 160.281 119.836 159.272C117.36 157.922 115.571 155.865 112.531 155.982C109.234 156.109 107.965 158.754 105.948 160.985C104.867 162.169 103.732 163.303 102.547 164.382C93.9017 172.222 81.0136 175.924 69.5525 173.869C57.4373 171.696 46.2568 164.208 40.2193 153.449C39.0484 151.367 38.0828 149.175 37.3358 146.907C36.0869 143.118 36.1254 140.791 33.4489 137.436C30.7285 134.027 27.8567 133.102 24.37 130.882C16.7678 126.058 10.5184 119.387 6.2078 111.493C3.75005 107 1.98953 102.16 0.986307 97.1389C0.787145 96.1364 0.198402 91.6935 0 91.2323V83.2855C0.241379 82.8166 0.894023 77.8637 1.12402 76.8398C1.99216 72.8559 3.33479 68.9899 5.12331 65.3243C7.57499 60.2866 10.7978 55.6605 14.6759 51.6123C17.2041 49.0059 19.5009 47.3136 21.4885 44.1837C23.6397 40.7963 23.4335 38.8079 24.2986 35.2746C24.7878 33.3339 25.5125 31.4599 26.4566 29.6944C30.4121 22.1927 37.6483 15.4875 45.8358 12.9621C52.4382 10.8959 59.5921 11.5252 65.7302 14.7121C67.4766 15.5968 68.8736 16.6398 70.531 17.6168C72.0789 18.5293 74.3548 18.5252 75.9555 17.7689C77.6374 16.9742 78.6271 15.4811 79.7843 14.1028C86.0692 6.71749 95.0466 1.76967 104.665 0.435289C105.363 0.338372 106.442 0.226329 107.075 0ZM93.1539 47.298C91.6155 47.6174 90.0973 47.878 88.5733 48.2637C83.2183 49.6192 79.2526 51.7619 74.7782 54.8712C73.6372 53.7362 66.9702 46.8467 66.1696 46.4793C65.4051 46.9583 62.8367 49.5783 62.0837 50.3597C60.9348 51.5521 59.0342 53.2986 57.9906 54.5202C60.4876 56.8006 62.8198 59.3754 65.2644 61.72C65.6923 62.1304 66.1626 62.6065 66.5447 63.0572C62.1634 69.4722 60.3164 73.7133 58.9824 81.4248C56.3024 81.4559 53.622 81.4668 50.9418 81.4577C49.8932 81.4591 47.7287 81.5365 46.8014 81.4052L46.7961 92.9734C50.6647 92.9917 55.157 92.8843 58.9767 93.0254C59.8906 98.3775 61.2826 102.69 64.0169 107.437C64.7914 108.78 65.8436 110.138 66.5276 111.325C65.5909 112.457 63.5696 114.397 62.4727 115.466C61.0937 116.81 59.3884 118.65 57.989 119.898C59.3544 121.408 61.0864 123.023 62.524 124.49C63.2796 125.261 65.3786 127.433 66.189 127.917C66.5419 127.847 73.5966 120.607 74.7657 119.582C79.5024 122.718 83.2981 124.872 88.9257 126.265C90.3763 126.624 91.7693 126.841 93.1904 127.16L93.2023 139.277C94.0936 139.281 104.536 139.399 104.776 139.171C104.855 135.242 104.668 130.942 104.84 127.092C110.162 126.24 114.421 124.854 119.145 122.161C120.477 121.402 121.964 120.269 123.176 119.597C125.21 121.265 127.599 124.084 129.601 125.921C130.25 126.517 131.15 127.554 131.829 128.055C134.233 125.749 137.782 122.324 139.983 119.904C137.159 117.25 134.179 114.144 131.421 111.378C134.547 106.796 136.688 102.883 138.089 97.4331C138.479 95.9126 138.689 94.5201 139.028 93.041C142.724 92.8137 147.377 93.0495 151.191 92.9844C151.214 89.2416 151.13 85.192 151.229 81.4797C147.22 81.4347 142.912 81.5435 138.949 81.4127C138.331 75.8657 135.983 70.0149 132.963 65.3538C132.655 64.8795 131.793 63.6678 131.618 63.1878C131.475 62.7946 133.245 61.1575 133.582 60.8144C134.474 59.9101 135.424 58.9863 136.321 58.0819C137.539 56.9178 138.708 55.6151 139.966 54.5003C138.472 52.8878 136.762 51.238 135.202 49.6719C134.256 48.7234 132.722 47.1184 131.725 46.3243C130.252 47.9527 128.315 49.7531 126.745 51.3396C125.848 52.2464 124.085 54.0847 123.17 54.8642C118.504 51.5199 113.883 49.2495 108.241 47.9585C107.384 47.7625 105.657 47.4089 104.826 47.405C104.748 43.5781 104.725 38.9958 104.823 35.1764C102.33 35.1452 99.8353 35.138 97.3419 35.1547C96.3372 35.1578 94.0998 35.2355 93.2213 35.0953C93.192 37.7869 93.1869 40.4787 93.2059 43.1704C93.2074 44.287 93.2621 46.2466 93.1539 47.298Z" fill="#E6DECB"/>
<path d="M97.3179 58.1924C113.342 57.2633 127.086 69.4969 128.021 85.5206C128.956 101.544 116.728 115.294 100.705 116.235C84.6729 117.177 70.9146 104.941 69.979 88.9079C69.0433 72.8757 81.2849 59.122 97.3179 58.1924ZM100.513 104.561C110.102 103.724 117.192 95.2689 116.345 85.6821C115.499 76.0951 107.036 69.0132 97.4497 69.8705C87.8783 70.7264 80.8098 79.1738 81.6552 88.7459C82.5006 98.318 90.9403 105.396 100.513 104.561Z" fill="#E6DECB"/>
<path d="M98.4403 81.7455C101.452 81.415 104.147 83.7558 104.468 86.9818C104.79 90.2079 102.616 93.1053 99.6074 93.4635C96.5791 93.8238 93.8548 91.4782 93.5315 88.2325C93.2083 84.9867 95.4092 82.0779 98.4403 81.7455Z" fill="#E6DECB"/>
<path d="M0 178.511C0.323981 177.857 0.380991 177.173 0.554759 176.477C0.706789 175.867 0.935488 175.232 1.16723 174.647C2.95108 170.149 6.52787 166.574 11.0583 164.762C15.4246 162.974 20.3328 162.984 24.6911 164.792C28.9993 166.606 32.398 170.042 34.1341 174.341C35.8361 178.606 35.759 183.363 33.9196 187.573C31.982 191.889 28.3884 195.268 23.9298 196.965C23.0984 197.28 20.568 197.758 20.1051 198H15.6808C14.992 197.674 12.8914 197.338 11.867 196.965C7.08497 195.259 3.33131 191.743 1.28713 187.151C0.726631 185.893 0.527954 183.893 0 182.892V178.511Z" fill="#E6DECB"/>
</svg>
