<svg width="562" height="643" viewBox="0 0 562 643" fill="none" xmlns="http://www.w3.org/2000/svg">
<path d="M560.759 558.828C560.488 557.251 559.928 555.674 559.182 554.267C558.639 553.233 558.13 552.216 557.688 551.148C556.535 548.419 555.262 545.74 553.973 543.078C553.582 542.281 553.09 541.485 552.463 540.857C550.495 538.874 549.086 536.467 547.237 534.398C546.066 533.076 545.014 531.618 543.538 530.635C542.333 529.838 541.095 529.126 539.958 528.244C538.618 527.176 537.159 526.295 535.615 525.549C533.579 524.565 531.492 523.803 529.371 523.023C523.28 520.768 516.985 520.107 510.538 520.225C509.469 520.242 508.366 520.225 507.314 520.09C505.787 519.903 505.125 518.971 505.346 517.462C505.38 517.191 505.515 516.954 505.566 516.682C505.94 514.377 506.483 512.088 506.618 509.765C506.72 507.968 506.839 506.188 506.975 504.391C507.076 502.967 507.161 501.526 507.161 500.085C507.178 497.83 507.484 495.61 507.942 493.423C508.145 492.439 508.264 491.49 508.264 490.507C508.264 489.608 508.196 488.693 508.349 487.811C508.603 486.201 508.586 484.59 508.637 482.979C508.654 482.352 508.519 481.674 508.705 481.115C509.672 478.131 508.824 475.011 509.452 472.011C509.112 470.756 509.282 469.485 509.486 468.264C509.706 466.993 507.857 465.992 509.18 464.551C510.046 463.602 509.961 462.195 510.215 460.957C510.232 460.873 510.249 460.788 510.249 460.686C510.555 458.211 510.86 455.736 511.182 453.261C511.284 452.464 511.505 451.684 511.573 450.87C511.929 446.039 512.234 441.19 512.557 436.358C512.557 436.172 512.591 436.002 512.608 435.816C513.388 431.205 513.473 426.526 513.795 421.863C513.931 419.897 514.084 417.913 513.643 415.947C513.422 414.964 513.727 413.997 514.033 413.048C515.203 409.403 515.203 405.622 515.22 401.842C515.22 398.96 515.22 396.095 515.78 393.264C516.357 390.331 516.289 387.347 516.255 384.397C516.238 382.346 515.577 380.311 516.408 378.294C516.442 373.903 516.629 369.495 516.459 365.104C516.391 363.46 515.814 361.68 514.949 360.29C514.219 359.103 513.659 357.984 513.456 356.628C513.252 355.238 512.658 354.068 511.284 353.424C510.249 352.932 509.672 352.05 509.333 350.965C509.011 349.948 508.586 348.982 507.399 348.541C506.958 348.372 506.567 347.846 506.33 347.388C505.583 345.998 504.243 345.184 503.157 344.184C501.986 343.099 500.476 342.387 499.102 341.556C498.406 341.133 497.829 340.641 497.27 340.031C495.488 338.098 493.299 336.623 490.907 335.657C489.092 334.928 487.531 334.046 486.207 332.656C485.647 332.08 485.172 331.368 484.358 331.13C482.542 330.588 481.287 329.35 480.201 327.892C479.879 327.468 479.658 326.841 479.064 326.824C477.622 326.79 477.096 325.705 476.451 324.739C475.993 324.061 475.586 323.383 474.822 322.993C472.888 322.026 471.208 320.636 469.393 319.484C467.883 318.517 466.627 317.178 464.863 316.585C464.473 316.449 464.15 316.059 463.845 315.737C462.912 314.771 462.08 313.652 460.469 313.94C460.316 313.974 460.078 313.872 459.993 313.77C459.043 312.448 457.448 312.109 456.21 311.261C455.497 310.77 454.632 310.414 454.208 309.515C454.021 309.142 453.614 308.82 453.224 308.634C451.442 307.769 450.068 306.311 448.32 305.345C446.573 304.378 445.215 302.666 443.688 301.293C443.417 301.055 443.111 300.852 442.891 300.564C442.178 299.682 440.957 300.191 440.193 299.53C439.447 298.902 439.277 297.817 438.242 297.36C437.445 297.004 436.783 296.343 436.104 295.749C433.797 293.749 431.489 291.765 428.791 290.273C427.298 289.46 425.873 288.51 424.482 287.527C423.888 287.103 423.328 286.747 422.599 286.561C421.055 286.171 419.833 285.323 419.154 283.814C418.883 283.221 418.408 282.814 417.899 282.441C414.319 279.881 410.756 277.321 407.176 274.795C406.667 274.439 406.107 274.015 405.513 273.93C404.003 273.693 402.917 272.744 401.763 271.93C401.034 271.421 400.423 270.726 399.405 270.743C399.015 270.743 398.777 270.455 398.557 270.15C397.844 269.116 397.131 268.099 395.74 267.861C395.435 267.81 395.061 267.505 394.909 267.217C394.4 266.268 393.466 265.878 392.652 265.335C391.227 264.403 389.683 263.691 388.801 262.08C388.529 261.572 387.867 261.233 387.308 260.961C386.052 260.317 385.085 259.164 383.643 258.808C383.252 258.707 382.947 258.283 382.625 257.978C380.911 256.282 379.282 254.485 376.975 253.468C376.109 253.095 375.414 252.281 374.735 251.569C373.904 250.688 372.937 250.128 371.783 249.789C370.273 249.348 368.559 249.179 367.897 247.365C364.877 245.127 361.823 242.906 359.024 240.38C358.888 240.262 358.752 240.126 358.583 240.058C356.767 239.295 355.342 237.786 353.357 237.329C352.933 237.227 352.509 236.956 352.203 236.651C350.998 235.413 349.471 234.599 348.097 233.599C346.451 232.395 344.89 231.005 342.804 230.514C342.074 230.344 341.463 229.818 341.107 229.242C340.242 227.869 339.037 227.072 337.51 226.699C337.12 226.597 336.848 226.411 336.797 226.004C336.662 224.851 335.813 224.376 334.863 223.97C332.674 223.037 330.723 221.8 329.298 219.85C328.772 219.121 327.567 219.308 327.296 218.239C327.228 218.002 326.498 217.968 326.091 217.782C325.514 217.527 324.971 217.222 324.411 216.951C324.004 216.765 323.546 216.425 323.173 216.476C321.544 216.731 319.966 216.036 318.354 216.29C317.099 216.493 315.843 216.561 314.588 216.375C314.028 216.29 313.587 216.409 313.112 216.781C311.754 217.866 310.108 218.409 308.429 218.646C307.258 218.799 306.138 219.07 305.001 219.341C304.475 219.477 303.949 219.63 303.424 219.664C301.71 219.765 300.047 220.07 298.452 220.799C296.789 221.562 294.872 220.935 293.142 221.562C291.53 222.139 289.816 222.274 288.102 222.461C285.88 222.698 283.606 222.885 281.485 223.698C278.788 224.733 275.785 224.614 273.172 225.97C272.951 226.089 272.646 226.055 272.374 226.072C269.948 226.241 267.657 227.055 265.316 227.631C264.094 227.937 263.399 228.055 261.685 227.869C263.45 227.004 264.96 226.258 266.47 225.529C267.607 224.97 268.692 224.292 269.863 223.902C275.343 222.054 280.535 219.613 285.32 216.375C286.219 215.764 287.169 215.29 288.136 214.798C290.851 213.442 293.735 212.34 296.145 210.373C297.095 209.593 298.316 209.085 299.487 208.627C300.505 208.237 301.455 207.745 302.338 207.101C303.576 206.203 304.849 205.372 306.257 204.728C307.071 204.355 307.801 203.812 308.531 203.287C311.364 201.235 314.164 199.133 317.031 197.133C318.575 196.065 320.221 195.115 321.629 193.861C322.172 193.386 322.681 192.878 323.241 192.437C328.195 188.588 333.166 184.723 337.951 180.637C338.562 180.112 339.376 179.756 339.851 179.146C341.769 176.721 344.127 174.806 346.451 172.822C348.64 170.957 350.829 169.092 352.899 167.109C354.646 165.43 356.648 164.057 358.277 162.209C360.228 159.989 362.4 157.937 364.436 155.801C366.676 153.462 369.102 151.275 370.884 148.562C372.139 146.663 373.836 145.205 375.261 143.493C375.957 142.662 376.856 142.052 377.043 140.882C377.093 140.509 377.348 140.238 377.704 140.086C379.113 139.509 379.978 138.305 380.809 137.153C383.49 133.44 386.663 130.1 389.242 126.303C390.141 124.98 391.329 123.844 392.262 122.505C394.298 119.555 396.487 116.69 398.624 113.808C400.185 111.723 401.933 109.773 403.155 107.451C403.392 106.976 403.816 106.603 404.156 106.196C407.413 102.399 407.803 101.873 409.229 98.6521C410.06 96.7703 410.739 94.8207 411.519 92.905C412.91 89.4974 414.03 85.9712 416.202 82.9366C416.847 82.055 417.186 81.0209 417.458 79.9698C418.323 76.5622 418.951 73.1207 418.951 69.5945C418.951 67.7127 419.086 65.8139 419.137 63.9321C419.171 62.3216 419.29 60.6771 418.9 59.1005C418.323 56.744 417.746 54.3875 416.813 52.1327C415.812 49.6745 414.454 47.5045 412.469 45.7245C410.976 44.3852 409.313 43.368 407.583 42.3847C405.649 41.2658 403.647 40.6046 401.407 40.8759C400.728 40.9606 400.202 40.842 399.659 40.4181C398.777 39.6892 397.708 39.5874 396.588 39.6722C395.689 39.74 394.79 39.7909 393.891 39.7739C390.735 39.6552 387.596 39.6891 384.559 40.7572C384.237 40.8759 383.863 40.8759 383.507 40.9267C381.386 41.2488 379.231 41.4862 377.144 41.9439C375.04 42.4017 372.988 43.0798 370.918 43.6901C369.628 44.0631 368.322 44.4191 367.049 44.8938C364.182 45.9618 361.331 47.0977 358.481 48.1827C357.972 48.3692 357.463 48.5556 356.954 48.6913C356.479 48.8269 356.055 48.3861 356.173 47.8945C356.92 44.7412 357.7 41.6049 358.464 38.4685C360.127 31.6025 360.907 24.7026 360.195 17.6162C359.804 13.8187 358.379 10.4789 356.462 7.32563C355.206 5.25735 353.713 3.27384 351.355 2.2736C349.539 1.51071 347.673 0.815634 345.824 0.154462C345.416 0.00188368 344.941 0.0357899 344.483 0.0357899C341.344 0.0188368 338.172 -0.218507 335.118 0.798681C334.778 0.917352 334.405 0.934306 334.049 0.951259C330.638 1.10384 327.601 2.35837 324.649 4.00282C322.358 5.27431 320.187 6.71532 317.964 8.07157C315.962 9.2922 314.062 10.6484 312.314 12.1912C311.652 12.7845 310.923 13.3609 310.142 13.7678C308.531 14.5985 307.088 15.6835 305.68 16.7855C303.848 18.2265 302.236 19.9388 300.166 21.0916C299.623 21.3798 299.114 21.8545 298.792 22.3631C298.333 23.0751 297.672 23.4989 297.061 24.0245C295.653 25.262 294.346 26.6183 292.972 27.9067C292.717 28.161 292.293 28.4323 292.429 28.7713C292.938 30.0767 292.124 29.7546 291.411 29.7038C290.8 29.6529 290.444 30.0937 290.206 30.6192C289.952 31.2126 289.697 31.789 289.002 31.9585C287.407 32.3654 286.423 33.5182 285.507 34.7727C285.133 35.2813 284.828 35.8069 284.251 36.129C281.146 37.9091 278.822 40.5877 276.497 43.1815C273.392 46.6569 270.423 50.2679 267.233 53.6755C264.213 56.8966 261.634 60.4737 258.818 63.8474C257.902 64.9493 256.9 66.0004 256.086 67.1871C254.101 70.0691 251.709 72.6799 250.182 75.8671C250.029 76.1892 249.757 76.4435 249.537 76.7317C246.941 80.0715 244.362 83.4282 242.394 87.1748C241.003 89.8195 238.712 91.7861 237.253 94.363C236.557 95.6175 235.658 96.7534 234.945 97.9909C233.367 100.72 231.298 103.094 229.618 105.755C227.853 108.57 226.207 111.452 224.528 114.317C224.256 114.775 224.002 115.266 223.781 115.758C222.644 118.216 221.423 120.606 219.794 122.776C219.421 123.268 219.064 123.828 218.878 124.421C218.012 127.066 216.299 129.371 215.688 132.118C215.569 132.609 215.264 133.118 214.908 133.508C213.381 135.22 212.566 137.288 211.65 139.357C210.547 141.883 210.496 144.815 208.562 147.002C208.291 147.308 208.274 147.85 208.121 148.274C207.476 150.139 207.052 152.122 206.153 153.851C205.287 155.496 205.118 157.276 204.609 158.971C204.439 159.531 204.694 160.022 204.88 160.531C204.592 160.734 204.235 160.887 204.015 161.141C203.489 161.752 203.676 162.226 204.541 162.498C204.795 162.582 205.084 162.548 205.338 162.565C205.406 162.921 205.525 163.26 205.542 163.616C205.542 164.006 205.338 164.447 204.948 164.362C204.049 164.176 203.693 164.481 203.37 165.312C202.708 167.058 201.826 168.736 201.181 170.499C200.197 173.144 200.062 175.941 199.875 178.705C199.688 181.4 199.553 184.096 198.772 186.707C197.941 189.419 197.042 192.098 196.142 194.793C195.396 197.014 194.802 197.438 192.41 197.523C189.712 197.608 187.014 197.76 184.401 198.574C183.892 198.726 183.332 198.794 182.806 198.76C181.619 198.693 180.482 198.947 179.328 199.133C177.021 199.506 174.764 200.1 172.474 200.591C167.553 201.659 162.633 202.71 157.78 204.05C155.863 204.575 154.014 205.355 153.199 207.457C153.08 207.762 152.826 208.152 152.538 208.254C151.011 208.847 150.281 210.288 149.229 211.34C147.583 212.984 146.056 214.781 144.902 216.832C144.054 218.324 143.121 219.748 141.933 220.986C141.17 221.783 140.61 222.664 140.22 223.698C139.931 224.444 139.507 225.156 139.168 225.868C138.896 226.428 138.489 226.936 138.642 227.631C139.252 228.174 139.846 227.479 140.44 227.631C140.813 227.716 141.136 227.835 141.255 228.225C141.373 228.615 141.136 228.903 140.864 229.157C140.237 229.734 139.456 229.971 138.659 230.056C137.284 230.208 136.317 230.92 135.605 232.056C134.264 234.175 132.805 236.227 131.634 238.431C130.871 239.872 129.989 241.194 129.038 242.516C127.308 244.924 125.866 247.518 125.289 250.484C125.136 251.23 124.78 251.807 124.186 252.281C122.167 253.858 121.573 256.299 120.504 258.469C120.47 260.775 119.232 262.521 117.806 264.165C117.501 264.521 117.23 264.844 117.23 265.335C117.23 267.031 116.771 268.505 115.329 269.574C114.99 269.828 115.075 270.218 115.397 270.489C115.72 270.76 115.923 271.015 115.397 271.252C114.99 271.438 114.447 271.455 114.176 271.744C113.141 272.896 112.818 274.439 112.123 275.778C112.869 276.863 111.97 277.355 111.359 277.982C111.003 278.355 110.748 278.864 110.528 279.355C109.323 282.238 108.118 285.12 107.185 288.103C106.863 289.137 106.88 290.409 106.252 291.155C105.404 292.155 105.251 292.901 105.896 293.969C105.981 294.105 105.743 294.461 105.59 294.681C104.776 295.8 105.234 297.309 104.47 298.445C105.268 299.428 104.623 300.326 104.301 301.225C103.894 302.344 103.741 303.497 103.571 304.65C103.469 305.362 103.469 306.108 103.232 306.769C102.367 309.057 102.316 311.482 101.79 313.821C101.399 315.55 101.06 317.449 99.3295 318.415C98.4133 318.924 98.074 319.636 97.8874 320.535C97.565 322.213 97.2257 323.925 97.565 325.604C97.8365 326.977 97.3784 328.282 97.548 329.588C97.7347 330.995 98.2267 332.368 98.566 333.775C98.6678 334.216 98.7357 334.657 98.7357 335.114C98.7357 337.454 98.8375 339.793 98.7018 342.116C98.4642 346.1 99.1599 350.016 99.6858 353.915C100.331 358.645 102.061 363.104 103.707 367.563C104.08 368.58 104.538 369.546 104.963 370.546C105.573 371.97 106.286 373.259 107.847 373.937C108.695 374.31 109.221 375.141 108.848 376.175C108.627 376.785 108.78 377.277 109.289 377.565C110.748 378.396 111.732 379.633 112.598 381.023C112.92 381.549 113.395 382.058 113.921 382.346C116.975 384.058 119.096 387.11 122.54 388.211C126.85 391.127 131.702 391.28 136.555 390.551C140.203 389.992 143.698 388.686 147.023 387.076C148.805 386.211 150.569 385.329 152.351 384.465C155.507 382.939 158.646 381.396 161.818 379.904C163.294 379.209 164.737 378.514 165.89 377.345C166.484 376.751 167.214 376.412 167.994 376.209C169.029 375.92 170.081 375.632 171.116 375.327C171.829 375.124 172.524 375.107 173.203 375.48C175.952 377.005 178.751 378.463 180.092 381.6C180.261 382.007 180.584 382.363 180.77 382.77C181.144 383.617 181.687 384.329 182.467 384.838C183.943 385.804 184.893 387.143 185.589 388.754C185.809 389.263 186.013 389.703 185.928 390.263C185.894 390.483 186.013 390.907 186.166 390.958C187.608 391.433 187.71 392.84 188.321 393.891C188.745 394.654 188.287 395.535 188.524 396.23C188.779 396.942 189.678 397.349 189.848 398.197C189.882 398.332 189.746 398.502 189.661 398.638C189.661 398.655 189.474 398.638 189.423 398.57C189.237 398.383 189.067 398.163 188.88 397.976C188.609 397.705 188.27 397.587 187.913 397.807C187.574 398.01 187.438 398.383 187.506 398.739C187.761 399.977 188.032 401.215 188.982 402.13C189.271 402.401 189.491 402.91 190.085 402.588C190.034 402.316 189.983 402.062 189.949 401.808C189.915 401.537 189.882 401.198 190.153 401.113C190.577 400.977 190.798 401.333 190.933 401.672C191.222 402.384 191.137 403.079 190.781 403.757C190.492 404.3 190.441 404.826 191.12 405.08C192.308 405.521 192.579 406.589 192.919 407.606C193.411 409.115 193.326 409.267 192.019 410.284C191.731 410.505 191.442 410.708 191.188 410.98C190.916 411.268 190.883 411.624 191.035 411.98C191.188 412.37 191.561 412.387 191.918 412.488C192.698 412.709 193.02 411.573 193.835 411.861C194.191 412.59 194.547 413.302 194.87 413.946C194.53 414.557 193.92 414.218 193.631 414.574C193.122 415.184 193.207 417.066 193.767 417.896C193.835 417.998 194.089 417.981 194.259 417.981C194.327 417.981 194.446 417.896 194.463 417.812C194.513 417.642 194.53 417.456 194.513 417.286C194.463 416.862 194.14 416.438 194.547 416.032C194.802 415.777 195.26 416.218 195.481 417.049C195.65 417.659 195.956 418.219 196.159 418.795C196.736 420.49 197.398 422.203 197.652 423.966C197.992 426.356 198.28 428.746 198.976 431.069C199.247 431.967 199.247 432.849 198.636 433.629C198.246 434.121 198.144 434.629 198.585 435.087C199.162 435.697 199.078 436.291 198.874 437.053C198.535 438.376 198.738 438.511 200.333 438.715C200.418 438.715 200.52 438.715 200.605 438.749C200.944 438.834 201.198 439.359 200.995 439.613C200.774 439.885 200.486 440.105 200.248 440.376C199.62 441.122 199.688 441.512 200.588 441.665C201.436 441.817 201.877 442.207 202.047 442.987C202.165 443.513 202.284 444.038 202.318 444.581C202.437 447.463 202.793 450.294 203.845 453.006C204.066 453.583 204.168 454.227 204.32 454.837C204.609 456.058 204.727 457.312 205.203 458.499C205.745 459.855 205.423 460.398 203.845 461.313C203.709 461.398 203.506 461.534 203.506 461.652C203.353 463.619 203.693 465.602 203.217 467.535C203.845 468.942 203.659 470.485 204.117 471.977C204.66 473.757 205.457 475.774 204.049 477.639C203.947 477.758 203.93 477.995 203.964 478.165C204.269 480.08 203.845 482.149 205.169 483.861C205.44 484.217 205.389 484.522 205.186 484.844C204.897 485.336 204.863 485.861 205.033 486.404C205.627 486.574 205.932 485.98 206.458 485.895C207.527 485.692 207.663 485.811 207.544 487.235C207.256 487.014 206.916 486.811 206.577 487.048C205.796 487.574 205.712 487.964 206.068 489.066C206.153 489.337 206.56 489.829 205.915 489.795C205.05 489.744 205.033 490.218 205.118 490.761C205.27 491.676 205.627 492.541 206.662 492.711C207.561 492.846 207.68 491.931 208.087 491.405C207.188 490.168 207.612 488.76 207.544 487.404C207.544 487.404 207.544 487.353 207.544 487.319V487.404C207.951 488.693 208.613 489.947 208.121 491.371C208.121 491.558 208.121 491.727 208.121 491.914C208.189 493.27 208.172 493.253 206.848 494.236C206.39 494.575 206.051 495.033 206.356 495.626C206.662 496.203 206.814 496.779 206.78 497.44C206.747 498.017 207.052 498.186 207.612 498.169C209.054 498.102 209.156 498.186 209.241 499.492C209.325 500.56 209.444 501.645 209.156 502.713C209.054 503.069 208.969 503.561 208.579 503.544C207.171 503.51 207.205 504.527 207.273 505.391C207.374 506.612 207.306 507.714 206.526 508.714C206.305 508.986 206.254 509.511 206.577 509.698C207.289 510.121 207.12 510.562 207.001 511.257C206.78 512.664 206.933 514.105 206.78 515.529C206.492 518.208 207.12 520.904 206.509 523.565C206.458 523.82 206.509 524.108 206.56 524.362C206.814 525.6 206.611 526.854 206.933 528.109C207.273 529.38 206.424 530.719 206.984 532.076C207.154 532.5 207.001 533.178 206.78 533.652C205.813 535.788 206.322 538.077 205.983 540.264C205.881 540.874 206.153 541.502 206.221 542.112C206.356 543.265 206.797 544.316 207.052 545.435C207.273 546.486 206.594 547.215 205.542 547.113C204.473 547.028 203.455 546.774 202.471 546.232C199.807 544.791 197.075 543.468 194.361 542.078C193.648 541.705 192.885 541.4 192.223 540.942C190.662 539.84 188.897 539.179 187.15 538.467C184.825 537.518 182.382 536.856 180.126 535.67C179.43 535.314 178.582 535.229 177.801 535.009C173.916 533.907 170.098 532.567 166.111 531.771C166.026 531.754 165.941 531.72 165.856 531.686C163.888 530.669 161.734 530.465 159.579 530.211C157.085 529.906 154.574 529.601 152.079 529.295C149.331 528.956 146.582 528.617 143.851 528.261C142.697 528.109 141.509 527.99 140.389 527.685C137.844 526.99 135.248 526.82 132.652 526.651C126.443 526.244 120.233 526.583 114.023 526.481C113.395 526.481 112.767 526.634 112.14 526.685C109.544 526.905 106.948 527.278 104.335 527.295C97.7516 527.363 91.2194 527.82 84.7041 528.838C82.753 529.143 80.8187 529.634 78.8675 529.804C77.5272 529.923 76.1868 530.109 74.8634 530.363C69.3831 531.431 64.1234 533.415 58.5922 534.195C58.2359 534.246 57.9135 534.449 57.5742 534.551C54.588 535.551 51.6019 536.551 48.6327 537.568C45.2223 538.738 41.8459 539.976 38.6901 541.722C35.9415 543.248 33.2437 544.875 30.563 546.52C27.1018 548.622 23.2503 549.944 19.7551 551.979C19.5345 552.114 19.2461 552.148 18.9746 552.216C17.2101 552.708 15.7 553.572 14.2748 554.759C12.4763 556.251 10.5421 557.556 8.42128 558.59C7.45417 559.065 6.58886 559.709 5.68962 560.303C5.36725 560.523 5.21455 560.879 5.40118 561.252C5.99502 562.388 5.19758 563.303 4.94308 564.304C4.90914 564.473 4.46801 564.694 4.29834 564.626C3.48393 564.371 3.19549 564.948 2.80526 565.439C2.12658 566.287 2.29625 567.525 1.39701 568.305C1.09161 568.559 1.46488 568.983 1.82118 569.101C2.14355 569.203 2.51682 569.22 2.85616 569.254C3.14459 569.271 3.3991 569.356 3.3991 569.678C3.3991 569.83 3.31426 570.085 3.19549 570.135C1.71938 570.831 1.02374 572.187 0.243266 573.475C-0.0282033 573.933 -0.130004 574.374 0.243266 574.696C1.58365 575.883 1.95692 577.612 2.75436 579.104C3.68753 580.833 4.92611 582.189 6.80943 582.816C7.65777 583.105 8.14981 583.63 8.55701 584.376C9.16782 585.478 9.82952 586.546 10.5252 587.597C11.3056 588.784 12.4254 589.174 13.7998 588.886C14.9365 588.648 16.0733 588.428 17.1931 588.157C18.1772 587.936 19.1613 587.818 20.1114 588.224C21.1634 588.682 22.1983 588.665 23.2842 588.411C24.2004 588.191 25.0657 588.292 25.8801 588.784C26.7794 589.326 27.7295 589.174 28.7306 589.174C31.2247 589.174 33.7188 588.886 36.2129 589.343C37.706 589.615 39.1991 590.242 40.7431 589.869C42.338 589.479 43.9498 590.123 45.5447 589.665C46.2064 589.479 46.9699 589.665 47.6825 589.699C48.3951 589.716 49.1417 589.852 49.8373 589.733C52.1278 589.36 54.4862 589.903 56.7767 589.259C57.4215 589.072 58.2189 589.276 58.8976 589.462C59.7968 589.699 60.6961 589.818 61.5614 589.581C63.0036 589.208 64.4966 589.581 65.9728 589.174C66.9568 588.903 68.1106 589.106 69.1625 588.852C69.7224 588.716 70.2314 588.92 70.5877 589.394C70.978 589.903 71.5209 589.971 72.0469 589.75C73.1837 589.242 74.2865 589.377 75.4742 589.598C77.3236 589.937 79.2238 590.038 81.0902 590.276C83.9576 590.666 86.842 590.327 89.7094 590.428C90.8801 590.462 92.0677 590.767 93.1876 590.615C94.9012 590.377 96.5979 590.344 98.2946 590.327C102.061 590.293 105.845 590.327 109.611 590.327C113.48 590.31 117.331 590.038 121.2 590.191C122.269 590.242 123.355 590.106 124.44 590.089C125.425 590.072 126.409 590.089 127.41 590.089C128.665 590.123 129.921 590.225 131.193 590.242C134.162 590.276 137.132 590.242 140.101 590.055C143.053 589.886 146.005 590.378 148.991 590.055C150.756 589.852 152.571 589.971 154.37 590.174C158.578 590.615 162.802 590.564 167.027 590.208C168.911 590.055 170.777 590.038 172.677 590.208C175.358 590.445 178.073 590.581 180.753 590.53C183.349 590.479 185.962 590.649 188.575 590.462C194.14 590.072 199.705 590.784 205.287 590.886C207.273 590.92 209.258 591.022 211.209 590.717C213.007 590.428 214.789 590.479 216.587 590.547C218.929 590.632 221.287 590.852 223.595 590.598C226.937 590.225 230.246 590.377 233.571 590.496C236.354 590.581 239.136 590.903 241.885 591.293C242.869 591.429 243.785 591.615 244.786 591.378C246.279 591.022 247.806 590.988 249.35 591.259C251.234 591.581 253.117 591.463 255 591.259C255.984 591.157 256.968 591.005 257.952 591.005C262.635 590.937 267.318 590.886 271.984 590.869C274.767 590.869 277.583 590.666 280.349 590.937C283.759 591.276 287.135 591.53 290.563 591.361C293.888 591.191 297.231 591.31 300.556 591.31C303.882 591.31 307.207 591.106 310.533 591.056C312.772 591.005 314.995 591.123 317.218 591.191C318.999 591.259 320.781 591.513 322.596 591.395C323.393 591.344 324.208 591.513 325.005 591.564C327.075 591.717 329.128 592.005 331.198 591.971C334.71 591.903 338.205 591.649 341.718 591.937C342.702 592.022 343.703 592.005 344.687 591.886C346.825 591.649 349.013 592.005 351.134 591.429C351.541 591.31 352.033 591.429 352.475 591.462C356.038 591.751 359.618 591.869 363.198 591.886C365.166 591.886 367.151 591.852 369.119 592.107C370.884 592.344 372.733 592.463 374.498 592.242C375.974 592.073 377.365 592.158 378.773 592.395C379.486 592.514 380.215 592.751 380.894 592.683C383.235 592.463 385.577 592.734 387.901 592.564C390.022 592.429 392.245 592.819 394.247 591.683C394.807 591.361 395.502 591.446 396.079 591.734C397.606 592.48 399.235 592.344 400.847 592.395C405.852 592.581 410.908 591.734 415.88 592.87C416.049 592.904 416.236 592.904 416.423 592.87C419.12 592.548 421.801 592.87 424.482 593.124C425.194 593.192 425.924 593.124 426.637 593.107C427.18 593.107 427.722 593.073 428.248 593.107C429.165 593.158 429.775 593.632 429.996 594.531C430.234 595.48 430.352 596.481 431.031 597.277C431.625 597.956 431.676 598.752 431.269 599.549C430.76 600.549 430.81 601.651 430.81 602.719C430.81 603.516 430.912 604.364 432.185 604.211C432.863 604.127 433.254 604.788 433.661 605.262C433.831 605.466 434.102 605.703 434.323 605.466C434.475 605.313 434.424 604.974 434.458 604.703C434.492 604.482 434.272 604.126 434.696 604.11C434.815 604.11 434.984 604.313 435.069 604.466C435.646 605.635 435.578 605.805 434.323 606.449C433.423 606.907 432.914 608.416 433.61 609.111C434.255 609.772 434.645 610.569 435.137 611.298C435.358 611.637 435.646 611.772 436.036 611.772C436.393 611.772 436.766 611.721 437.105 611.772C437.869 611.908 438.123 612.688 437.665 613.417C437.071 614.383 437.037 614.553 437.801 614.756C439.175 615.146 439.735 616.112 439.718 617.35C439.684 619.096 440.651 620.249 441.822 621.215C443.247 622.402 444.316 623.758 445.029 625.454C445.521 626.657 446.369 627.539 447.438 628.285C448.32 628.895 449.236 629.556 449.881 630.387C451.629 632.642 454.31 633.777 456.176 635.846C457.635 636.371 458.704 637.575 460.078 638.185C461.86 638.982 463.59 640.016 465.66 640.016C466.085 640.016 466.543 640.22 466.933 640.44C468.528 641.356 470.428 641.203 472.057 642.017C474.229 641.966 476.349 642.169 478.369 643C480.947 642.729 483.543 642.593 486.139 642.559C486.309 642.559 486.479 642.424 486.648 642.39C488.006 642.186 489.159 641.406 490.415 641C491.671 640.593 493.096 640.711 494.385 640.254C494.47 640.22 494.555 640.186 494.64 640.169C497.337 639.508 499.984 638.643 502.784 638.406C503.208 638.372 503.649 638.168 504.039 637.965C508.519 635.693 512.981 633.371 517.494 631.133C519.174 630.285 520.887 629.437 522.686 628.861C525.91 627.81 528.726 626.098 531.322 623.979C533.884 621.893 536.633 620.079 539.161 617.943C539.975 617.248 540.756 616.485 541.485 615.705C542.588 614.536 543.64 613.281 544.743 612.111C546.236 610.552 547.576 608.873 548.781 607.076C550.138 605.059 551.36 602.94 552.87 601.075C554.414 599.159 555.279 596.904 556.518 594.853C557.654 592.988 558.096 590.852 558.859 588.852C560.742 583.935 561.438 578.782 561.947 573.577C562.117 571.763 561.828 570 561.777 568.203C561.693 565.05 561.353 561.93 560.81 558.828H560.759ZM99.2447 321.637C99.2447 321.637 99.109 321.721 99.0241 321.755C98.9393 321.721 98.8375 321.721 98.7866 321.67C98.4133 321.213 98.4982 320.467 99.0072 320.009C99.075 319.941 99.4144 320.009 99.4313 320.094C99.601 320.636 99.4313 321.145 99.2277 321.637H99.2447ZM164.754 288.442C164.024 288.815 163.142 288.731 162.378 288.493C160.919 288.052 159.375 287.561 158.289 286.544C156.389 284.747 154.93 282.577 154.862 279.796C154.828 278.135 155.167 276.626 156.525 275.439C157.458 274.626 158.052 273.456 159.222 272.862C160.156 272.388 161.038 272.049 161.937 272.896C162.344 273.303 162.887 273.558 163.396 273.337C164.805 272.727 165.856 273.456 166.858 274.202C169.114 275.846 169.929 278.287 170.268 280.424C170.183 285.17 168.045 286.764 164.754 288.442ZM205.135 464.365C204.999 464.467 204.829 464.365 204.829 464.145C204.829 464.009 204.914 463.856 204.948 463.721C205.135 463.67 205.27 463.738 205.27 463.941C205.27 464.094 205.236 464.297 205.135 464.365ZM220.863 126.523C220.727 126.523 220.608 126.354 220.49 126.252C220.625 126.167 220.761 126.014 220.897 126.031C221.033 126.031 221.151 126.201 221.287 126.303C221.151 126.387 220.999 126.54 220.863 126.523ZM235.251 100.754C235.166 100.788 234.911 100.619 234.894 100.534C234.861 100.127 235.183 99.9575 235.488 99.8558C235.573 99.8219 235.726 99.9745 235.845 100.042C235.811 100.415 235.573 100.653 235.234 100.754H235.251ZM288.018 34.3828C288.221 34.2981 288.357 34.4167 288.391 34.6202C288.391 34.9592 288.17 35.1118 287.882 35.0779C287.78 35.0779 287.627 34.8066 287.644 34.7049C287.678 34.5693 287.848 34.4337 288.001 34.3828H288.018ZM256.12 230.022C255.747 230.259 255.323 230.361 254.898 230.174C254.508 230.005 255.051 229.649 255.933 229.547C256.171 229.513 256.408 229.547 256.646 229.547C256.476 229.717 256.324 229.903 256.12 230.039V230.022ZM258.784 229.564C258.105 229.564 257.426 229.53 256.748 229.513C257.274 229.056 257.851 228.666 258.597 228.75C258.835 228.767 259.157 228.92 259.242 229.106C259.378 229.412 259.055 229.564 258.801 229.564H258.784ZM258.92 188.673C258.444 188.944 257.902 189.148 257.392 188.792C256.883 188.419 256.884 187.843 257.087 187.317C257.681 185.808 258.275 184.299 258.953 182.841C260.243 180.095 261.244 177.162 263.484 174.958C263.602 174.839 263.755 174.704 263.806 174.534C265.469 169.94 268.828 166.499 271.746 162.752C272.68 161.548 273.816 160.514 274.834 159.378C276.412 157.649 277.804 155.767 279.008 153.767C280.807 150.732 283.335 148.257 285.608 145.612C286.745 144.29 288.425 143.425 289.646 142.086C289.884 141.815 290.257 141.662 290.444 141.357C291.852 138.984 294.041 137.39 296.026 135.593C296.942 134.762 297.74 133.745 298.469 132.728C300.675 129.625 303.491 127.083 305.952 124.234C308.904 120.827 312.348 117.928 315.368 114.605C316.709 113.13 318.253 111.909 319.746 110.621C320.305 110.146 320.764 109.638 321.612 109.824C322.138 109.943 322.392 109.451 322.664 109.112C323.699 107.79 324.717 106.468 325.752 105.145C325.972 104.874 326.278 104.67 326.498 104.399C327.533 103.196 328.857 102.331 329.705 100.873C330.537 99.432 331.843 98.2283 333.099 97.0585C334.269 95.9566 335.287 94.6851 336.322 93.4475C337.272 92.3116 338.562 91.6335 339.699 90.7859C341.582 89.3957 343.414 87.9547 345.23 86.4798C347.724 84.4284 350.269 82.411 353.119 80.8513C353.832 80.4614 354.562 80.1054 355.325 79.8341C356.581 79.3764 357.87 78.9695 359.16 78.5627C360.873 78.0202 361.959 78.5627 362.519 80.2071C362.604 80.4614 362.723 80.7157 362.757 80.987C362.977 82.6823 362.943 84.3945 363.35 85.8356C363.249 88.4972 362.231 90.5824 360.771 92.4473C360.161 93.2271 359.448 93.9222 358.701 94.5664C356.394 96.6008 354.358 98.8725 352.763 101.5C352.492 101.958 352.135 102.382 351.762 102.772C350.744 103.823 349.879 104.976 349.217 106.247C347.724 109.061 345.552 111.333 343.329 113.571C342.379 114.537 341.446 115.504 340.53 116.504C339.257 117.894 337.985 119.301 336.526 120.505C333.743 122.81 331.639 125.777 329.094 128.32C328.263 129.151 327.55 130.083 326.685 130.846C323.631 133.525 321.171 136.763 318.269 139.56C316.064 141.679 313.79 143.714 311.517 145.765C309.582 147.511 307.597 149.206 305.646 150.936C300.658 155.326 295.754 159.836 290.427 163.82C286.1 167.058 282.249 170.872 277.838 173.992C276.667 174.823 275.683 175.874 274.563 176.789C272.747 178.264 271.068 179.875 268.998 181.027C267.98 181.587 267.098 182.367 266.164 183.096C264.111 184.706 262.075 186.334 260.022 187.927C259.666 188.199 259.293 188.453 258.886 188.656L258.92 188.673Z" fill="#E6DECB"/>
</svg>
